<svg xmlns="http://www.w3.org/2000/svg" width="75" height="75" viewBox="0 0 75 75">
  <g id="_10lak" data-name="10lak" transform="translate(-1040 -1929)">
    <circle id="Ellipse_532" data-name="Ellipse 532" cx="37.5" cy="37.5" r="37.5" transform="translate(1040 1929)" fill="#ff6334"/>
    <g id="cinema" transform="translate(1055 1910)">
      <g id="Group_1729" data-name="Group 1729" transform="translate(0 38)">
        <g id="Group_1728" data-name="Group 1728" transform="translate(0 0)">
          <path id="Path_2037" data-name="Path 2037" d="M43.752,65.691v-.23a2.534,2.534,0,0,0-1.143-2.117,4.127,4.127,0,0,0,1.143-2.857,4.878,4.878,0,0,0-1.177-3.107,4.05,4.05,0,0,0-2.309-1.406v-14.7A3.272,3.272,0,0,0,37,38H7.626a3.272,3.272,0,0,0-3.268,3.268v14.7a4.05,4.05,0,0,0-2.309,1.406A4.878,4.878,0,0,0,.872,60.486a4.126,4.126,0,0,0,1.143,2.857A2.534,2.534,0,0,0,.872,65.46v.23A1.526,1.526,0,0,0,0,67.066v4.358a.654.654,0,0,0,1.307,0V67.066a.218.218,0,0,1,.218-.218H8.5a.218.218,0,0,1,.218.218v2.4H7.278a1.527,1.527,0,0,0-1.525,1.525v4.358a.654.654,0,1,0,1.307,0V70.989a.218.218,0,0,1,.218-.218H14.25a.218.218,0,0,1,.218.218v4.358a.654.654,0,1,0,1.307,0V70.989a1.527,1.527,0,0,0-1.525-1.525H12.841v-2.4a.218.218,0,0,1,.218-.218h6.972a.218.218,0,0,1,.218.218v2.4h-1.38a1.527,1.527,0,0,0-1.525,1.525v4.358a.654.654,0,1,0,1.307,0V70.989a.218.218,0,0,1,.218-.218h6.972a.218.218,0,0,1,.218.218v4.358a.654.654,0,1,0,1.307,0V70.989a1.527,1.527,0,0,0-1.525-1.525H24.375v-2.4a.218.218,0,0,1,.218-.218h6.972a.218.218,0,0,1,.218.218v2.4H30.461a1.527,1.527,0,0,0-1.525,1.525v4.358a.654.654,0,1,0,1.307,0V70.989a.218.218,0,0,1,.218-.218h6.972a.218.218,0,0,1,.218.218v4.358a.654.654,0,1,0,1.307,0V70.989a1.527,1.527,0,0,0-1.525-1.525H35.908v-2.4a.218.218,0,0,1,.218-.218H43.1a.218.218,0,0,1,.218.218v4.358a.654.654,0,0,0,1.307,0V67.067A1.526,1.526,0,0,0,43.752,65.691ZM5.982,63.736a.654.654,0,0,0,.635.5A1.228,1.228,0,0,1,7.844,65.46v.081H2.179V65.46a1.228,1.228,0,0,1,1.227-1.227A.654.654,0,0,0,3.707,63a2.826,2.826,0,0,1-1.528-2.514c0-1.511,1.237-3.268,2.833-3.268,1.572,0,2.813,1.738,2.832,3.232v.036A2.826,2.826,0,0,1,6.316,63,.654.654,0,0,0,5.982,63.736Zm6.423,1.725v.23a1.526,1.526,0,0,0-.872,1.376v2.4H10.023v-2.4a1.526,1.526,0,0,0-.872-1.376v-.23a2.534,2.534,0,0,0-1.143-2.117,4.12,4.12,0,0,0,1.1-2.247H12.45a4.121,4.121,0,0,0,1.1,2.247A2.534,2.534,0,0,0,12.405,65.461Zm5.111-1.725a.654.654,0,0,0,.635.5,1.228,1.228,0,0,1,1.227,1.227v.081H13.713V65.46a1.228,1.228,0,0,1,1.227-1.227.654.654,0,0,0,.3-1.234,2.826,2.826,0,0,1-1.528-2.516v-.034c.018-1.495,1.259-3.233,2.832-3.233s2.813,1.738,2.832,3.232v.036A2.826,2.826,0,0,1,17.849,63,.654.654,0,0,0,17.516,63.736Zm6.423,1.725v.23a1.526,1.526,0,0,0-.872,1.376v2.4H21.557v-2.4a1.526,1.526,0,0,0-.872-1.376v-.23a2.534,2.534,0,0,0-1.143-2.117,4.12,4.12,0,0,0,1.1-2.247h3.344a4.121,4.121,0,0,0,1.1,2.247A2.534,2.534,0,0,0,23.939,65.461Zm5.111-1.725a.654.654,0,0,0,.635.5,1.228,1.228,0,0,1,1.227,1.227v.081H25.246V65.46a1.228,1.228,0,0,1,1.227-1.227.654.654,0,0,0,.3-1.234,2.826,2.826,0,0,1-1.528-2.515v-.035c.018-1.495,1.259-3.233,2.832-3.233s2.813,1.738,2.832,3.232v.036A2.826,2.826,0,0,1,29.383,63,.653.653,0,0,0,29.05,63.736Zm6.423,1.725v.23a1.526,1.526,0,0,0-.872,1.376v2.4H33.09v-2.4a1.526,1.526,0,0,0-.872-1.376v-.23a2.534,2.534,0,0,0-1.143-2.117,4.12,4.12,0,0,0,1.1-2.247h3.344a4.121,4.121,0,0,0,1.1,2.247A2.534,2.534,0,0,0,35.472,65.461Zm.058-5.672h-3.37a4.972,4.972,0,0,0-1.136-2.429,3.718,3.718,0,0,0-5.891,0A4.971,4.971,0,0,0,24,59.789h-3.37a4.972,4.972,0,0,0-1.136-2.429,3.9,3.9,0,0,0-2.946-1.449A3.9,3.9,0,0,0,13.6,57.36a4.97,4.97,0,0,0-1.136,2.429H9.094A4.972,4.972,0,0,0,7.957,57.36a4.045,4.045,0,0,0-2.292-1.386V41.268a1.963,1.963,0,0,1,1.961-1.961H37a1.963,1.963,0,0,1,1.961,1.961V55.973a4.045,4.045,0,0,0-2.292,1.386A4.971,4.971,0,0,0,35.531,59.789Zm5.053,3.947a.654.654,0,0,0,.635.5,1.228,1.228,0,0,1,1.227,1.227v.081H36.78V65.46a1.228,1.228,0,0,1,1.227-1.227.654.654,0,0,0,.3-1.234,2.826,2.826,0,0,1-1.528-2.515v-.035c.018-1.495,1.259-3.233,2.832-3.233,1.6,0,2.833,1.757,2.833,3.268A2.826,2.826,0,0,1,40.917,63,.654.654,0,0,0,40.583,63.736Z" transform="translate(0 -38)" fill="#fff"/>
        </g>
      </g>
      <g id="Group_1731" data-name="Group 1731" transform="translate(17.735 44.974)">
        <g id="Group_1730" data-name="Group 1730" transform="translate(0 0)">
          <path id="Path_2038" data-name="Path 2038" d="M212.28,122l-7.844-3.922a.661.661,0,0,0-.635.029.65.65,0,0,0-.31.556V123.9a.654.654,0,1,0,1.307,0v-4.171l5.729,2.864c-6.963,3.482-6.729,3.368-6.729,3.368a.646.646,0,0,0-.215.221l0,0a.653.653,0,0,0,.26.908h0a.619.619,0,0,0,.2.067v0a.627.627,0,0,0,.255-.011c.06,0,7.927-3.945,7.98-3.972a.654.654,0,0,0,0-1.17Z" transform="translate(-203.49 -118.014)" fill="#fff"/>
        </g>
      </g>
    </g>
  </g>
</svg>
