<svg xmlns="http://www.w3.org/2000/svg" xmlns:xlink="http://www.w3.org/1999/xlink" width="190" height="50" viewBox="0 0 190 50"><defs><radialGradient id="a" cx="0.5" cy="0.5" r="0.5" gradientUnits="objectBoundingBox"><stop offset="0" stop-color="#0053de"/><stop offset="1" stop-color="#0041ac"/></radialGradient></defs><g transform="translate(-1079 -3362)"><path d="M0,0H190L170,25.074,190,50H0Z" transform="translate(1079 3362)" fill="url(#a)"/><path d="M6.88,0V-14.816A7.29,7.29,0,0,1,.608-9.728V-17.5A9.274,9.274,0,0,0,4.64-18.72,6.881,6.881,0,0,0,7.488-22.4H14.72V0ZM20.112-2.512Q17.248-5.6,17.248-10.976a12.633,12.633,0,0,1,2.928-8.688A9.814,9.814,0,0,1,27.9-22.976a10.081,10.081,0,0,1,7.84,3.28,12.433,12.433,0,0,1,2.976,8.688,11.832,11.832,0,0,1-2.944,8.464A10.311,10.311,0,0,1,27.9.576,10.108,10.108,0,0,1,20.112-2.512Zm10.064-8.72q0-5.7-2.272-5.7a1.737,1.737,0,0,0-1.632,1.344,13.3,13.3,0,0,0-.512,4.352,13.245,13.245,0,0,0,.512,4.4,1.725,1.725,0,0,0,1.632,1.3,1.82,1.82,0,0,0,1.728-1.328A12.55,12.55,0,0,0,30.176-11.232ZM44.32,0,60.576-22.4h5.056L49.44,0ZM57.248-6.08A6.9,6.9,0,0,1,58.912-10.9a5.666,5.666,0,0,1,4.416-1.84,5.765,5.765,0,0,1,4.448,1.84,6.78,6.78,0,0,1,1.7,4.784,6.509,6.509,0,0,1-1.664,4.688A5.9,5.9,0,0,1,63.328.32,5.825,5.825,0,0,1,58.88-1.408,6.527,6.527,0,0,1,57.248-6.08Zm7.04-.16q0-2.912-.96-2.912-.9,0-.9,2.912,0,2.944.9,2.944Q64.288-3.3,64.288-6.24ZM40.32-16.064a6.9,6.9,0,0,1,1.664-4.816A5.666,5.666,0,0,1,46.4-22.72a5.765,5.765,0,0,1,4.448,1.84,6.78,6.78,0,0,1,1.7,4.784,6.509,6.509,0,0,1-1.664,4.688A5.9,5.9,0,0,1,46.4-9.664a5.825,5.825,0,0,1-4.448-1.728A6.527,6.527,0,0,1,40.32-16.064Zm7.04-.16q0-2.912-.96-2.912-.9,0-.9,2.912,0,2.944.9,2.944Q47.36-13.28,47.36-16.224ZM76.544-11.04a13.509,13.509,0,0,1,.752-4.592,11.238,11.238,0,0,1,2.272-3.776,10.093,10.093,0,0,1,4.064-2.624,16.827,16.827,0,0,1,5.872-.944,16.827,16.827,0,0,1,5.872.944,10.093,10.093,0,0,1,4.064,2.624,11.238,11.238,0,0,1,2.272,3.776,13.509,13.509,0,0,1,.752,4.592,13,13,0,0,1-.752,4.512A10.666,10.666,0,0,1,99.44-2.864,10.175,10.175,0,0,1,95.376-.336,17.363,17.363,0,0,1,89.5.576a17.363,17.363,0,0,1-5.872-.912,10.175,10.175,0,0,1-4.064-2.528A10.666,10.666,0,0,1,77.3-6.528,13,13,0,0,1,76.544-11.04Zm16.96,0a7.012,7.012,0,0,0-1.024-4.08A3.411,3.411,0,0,0,89.5-16.576a3.408,3.408,0,0,0-2.96,1.472A6.944,6.944,0,0,0,85.5-11.04q0,5.216,4,5.216T93.5-11.04Zm33.344-6.144v1.024h3.616v4.8h-3.616V0h-7.36V-11.36H113.76V0H106.4V-11.36h-2.72v-4.8h2.72v-1.184a5.752,5.752,0,0,1,1.376-4.224A5.752,5.752,0,0,1,112-22.944h6.176v4.8H114.72a.849.849,0,0,0-.96.96v1.024h5.728v-1.184a5.752,5.752,0,0,1,1.376-4.224,5.752,5.752,0,0,1,4.224-1.376h6.176v4.8h-3.456A.849.849,0,0,0,126.848-17.184Z" transform="translate(1103 3399)" fill="#fff"/></g></svg>