<svg xmlns="http://www.w3.org/2000/svg" width="75" height="75" viewBox="0 0 75 75">
  <g id="_14yers" data-name="14yers" transform="translate(-429 -1929)">
    <circle id="Ellipse_530" data-name="Ellipse 530" cx="37.5" cy="37.5" r="37.5" transform="translate(429 1929)" fill="#9c46ff"/>
    <g id="research" transform="translate(430.001 1931.489)">
      <path id="Path_2017" data-name="Path 2017" d="M120,264h2v1.332h-2Z" transform="translate(-95.343 -227.803)" fill="#fff"/>
      <path id="Path_2018" data-name="Path 2018" d="M176,304h2v1.332h-2Z" transform="translate(-146.681 -264.473)" fill="#fff"/>
      <path id="Path_2019" data-name="Path 2019" d="M120,304h3.33v1.332H120Z" transform="translate(-95.343 -264.473)" fill="#fff"/>
      <path id="Path_2020" data-name="Path 2020" d="M56,304h4v1.332H56Z" transform="translate(-36.671 -264.473)" fill="#fff"/>
      <path id="Path_2021" data-name="Path 2021" d="M104,344h7.992v1.332H104Z" transform="translate(-80.675 -301.143)" fill="#fff"/>
      <path id="Path_2022" data-name="Path 2022" d="M56,344h2.664v1.332H56Z" transform="translate(-36.671 -301.143)" fill="#fff"/>
      <path id="Path_2023" data-name="Path 2023" d="M152,384h4v1.332h-4Z" transform="translate(-124.679 -337.813)" fill="#fff"/>
      <path id="Path_2024" data-name="Path 2024" d="M56,384h6.66v1.332H56Z" transform="translate(-36.671 -337.813)" fill="#fff"/>
      <path id="Path_2025" data-name="Path 2025" d="M104,424h4v1.332h-4Z" transform="translate(-80.675 -374.483)" fill="#fff"/>
      <path id="Path_2026" data-name="Path 2026" d="M56,424h2.664v1.332H56Z" transform="translate(-36.671 -374.483)" fill="#fff"/>
      <path id="Path_2027" data-name="Path 2027" d="M54.627,210.664a.666.666,0,0,0-.666-.666h-4a.666.666,0,0,0-.666.666v3.33h-3.33a.666.666,0,0,0-.666.666v3.33h-3.33a.666.666,0,0,0-.666.666v3.33h-3.33a.666.666,0,0,0-.666.666v4H32.535a2,2,0,1,0,0,1.332h.781v2a.667.667,0,0,1-.666.666H18a.667.667,0,0,1-.666-.666V214.66h3.33a2,2,0,0,0,2-2v-3.33h9.99a.667.667,0,0,1,.666.666v.666h1.332V210a2,2,0,0,0-2-2h-10.1a1.985,1.985,0,0,0-1.413.585l-4.548,4.548A1.985,1.985,0,0,0,16,214.546v15.432a2,2,0,0,0,2,2H32.65a2,2,0,0,0,2-2v-2H55.959v-1.332H54.627Zm-33.3-.39v2.388a.667.667,0,0,1-.666.666H18.274Zm9.324,17.706a.666.666,0,1,1,.666-.666A.666.666,0,0,1,30.652,227.98Zm7.992-4.662h2.664v3.33H38.644Zm4-4H45.3v7.326H42.64Zm4-4H49.3v11.322H46.635Zm4,11.322V211.33H53.3v15.318Z" transform="translate(-0.001 -176.464)" fill="#fff"/>
      <path id="Path_2028" data-name="Path 2028" d="M18,69.309a2,2,0,0,0,1.8-2.859l2-2a2,2,0,0,0,2.744-1.137h2.893a2,2,0,0,0,3.854-.336l3.761-3.224a2,2,0,1,0-.906-.978l-3.186,2.731a2,2,0,0,0-3.523.474H24.543a2,2,0,1,0-3.686,1.527l-2,2a2,2,0,1,0-.861,3.8ZM35.979,57.322a.666.666,0,1,1-.666.666.666.666,0,0,1,.666-.666Zm-6.66,4.662a.666.666,0,1,1-.666.666.666.666,0,0,1,.666-.666Zm-6.66,0a.666.666,0,1,1-.666.666A.666.666,0,0,1,22.659,61.984ZM18,66.645a.666.666,0,1,1-.666.666A.666.666,0,0,1,18,66.645Z" transform="translate(0 -37.108)" fill="#fff"/>
      <path id="Path_2029" data-name="Path 2029" d="M174.112,31.129l-4.4,4.4h-5.833a2,2,0,1,0,0,1.332h1.447V48.851h1.332V36.863h3.33a.666.666,0,0,0,.471-.2l4.807-4.807a8.681,8.681,0,1,0-1.151-.732Zm-12.118,5.734a.666.666,0,1,1,.666-.666A.666.666,0,0,1,161.994,36.863Zm22.658-7.646-3.859-4.341h5.812A7.3,7.3,0,0,1,184.652,29.217Zm1.953-5.673h-6.629V16.914a7.338,7.338,0,0,1,6.629,6.629Zm-7.961-6.629v7.3a.663.663,0,0,0,.169.442h0l4.845,5.45a7.324,7.324,0,1,1-5.013-13.188Z" transform="translate(-132.009 0)" fill="#fff"/>
    </g>
  </g>
</svg>
