<svg xmlns="http://www.w3.org/2000/svg" width="60" height="60" viewBox="0 0 60 60"><path d="M55,0H5A5.006,5.006,0,0,0,0,5V55a5.006,5.006,0,0,0,5,5H55a5.006,5.006,0,0,0,5-5V5A5.006,5.006,0,0,0,55,0ZM5,2H55a3,3,0,0,1,3,3v7H2V5A3,3,0,0,1,5,2ZM55,58H5a3,3,0,0,1-3-3V14H58V55A3,3,0,0,1,55,58Z" fill="#a63ad6"/><path d="M7,10A3,3,0,1,0,4,7,3,3,0,0,0,7,10ZM7,6A1,1,0,1,1,6,7,1,1,0,0,1,7,6Z" fill="#a63ad6"/><path d="M15,10a3,3,0,1,0-3-3A3,3,0,0,0,15,10Zm0-4a1,1,0,1,1-1,1A1,1,0,0,1,15,6Z" fill="#a63ad6"/><path d="M23,10a3,3,0,1,0-3-3A3,3,0,0,0,23,10Zm0-4a1,1,0,1,1-1,1A1,1,0,0,1,23,6Z" fill="#a63ad6"/><path d="M18,17a9,9,0,1,0,9,9A9,9,0,0,0,18,17Zm0,16a7,7,0,1,1,7-7A7,7,0,0,1,18,33Z" fill="#a63ad6"/><path d="M18,37a9,9,0,1,0,9,9A9,9,0,0,0,18,37Zm0,16a7,7,0,1,1,7-7A7,7,0,0,1,18,53Z" fill="#a63ad6"/><circle cx="1" cy="1" r="1" transform="translate(13 24)" fill="#a63ad6"/><circle cx="1" cy="1" r="1" transform="translate(21 24)" fill="#a63ad6"/><path d="M20.233,26.858a1,1,0,0,0-1.312.53,1.009,1.009,0,0,1-.216.32,1,1,0,0,1-.316.213,1,1,0,0,1-1.311-.534,1,1,0,1,0-1.842.781,3,3,0,0,0,5.527,0,1,1,0,0,0-.53-1.311Z" fill="#a63ad6"/><circle cx="1" cy="1" r="1" transform="translate(13 44)" fill="#a63ad6"/><circle cx="1" cy="1" r="1" transform="translate(21 44)" fill="#a63ad6"/><path d="M20.122,47.88a2.971,2.971,0,0,0-.955-.644,3.023,3.023,0,0,0-2.334,0,2.969,2.969,0,0,0-.954.643,3.008,3.008,0,0,0-.643.952,1,1,0,1,0,1.842.781,1.009,1.009,0,0,1,.216-.32,1,1,0,0,1,.316-.213,1,1,0,0,1,1.312.534,1,1,0,1,0,1.842-.781,3.006,3.006,0,0,0-.642-.951Z" fill="#a63ad6"/><path d="M48,26a1,1,0,0,0-1,1v4a1,1,0,0,1-1,1H36a1,1,0,0,1-1-1V21a1,1,0,0,1,1-1H46a1,1,0,0,0,0-2H36a3,3,0,0,0-3,3V31a3,3,0,0,0,3,3H46a3,3,0,0,0,3-3V27A1,1,0,0,0,48,26Z" fill="#a63ad6"/><path d="M46,38H36a3,3,0,0,0-3,3V51a3,3,0,0,0,3,3H46a3,3,0,0,0,3-3V41A3,3,0,0,0,46,38Zm1,13a1,1,0,0,1-1,1H36a1,1,0,0,1-1-1V41a1,1,0,0,1,1-1H46a1,1,0,0,1,1,1Z" fill="#a63ad6"/><path d="M50.293,18.293,41,27.586l-2.293-2.293a1,1,0,0,0-1.414,1.414l3,3a1,1,0,0,0,1.414,0l10-10a1,1,0,0,0-1.414-1.414Z" fill="#a63ad6"/></svg>