<svg xmlns="http://www.w3.org/2000/svg" width="30" height="30" viewBox="0 0 30 30">
  <g id="arro" transform="translate(-1466 -1401)">
    <circle id="Ellipse_5" data-name="Ellipse 5" cx="15" cy="15" r="15" transform="translate(1466 1401)" fill="#ff7a17"/>
    <g id="right-arrow" transform="translate(1466 1399)" fill="#fff">
      <path d="M 15.70009899139404 23.25053596496582 C 15.48238945007324 23.25053596496582 15.27130889892578 23.16016578674316 15.12100887298584 23.00259590148926 C 14.97346878051758 22.84770584106445 14.8951587677002 22.64481544494629 14.9003791809082 22.43115615844727 C 14.90558910369873 22.2175350189209 14.99368953704834 22.01870536804199 15.14843940734863 21.87130546569824 L 18.89742469787598 18.30046463012695 L 8.550008773803711 18.30046463012695 C 8.108879089355469 18.30046463012695 7.749999046325684 17.94158554077148 7.749999046325684 17.50046539306641 C 7.749999046325684 17.05933570861816 8.108879089355469 16.70045471191406 8.550008773803711 16.70045471191406 L 18.9130973815918 16.70045471191406 L 15.14882946014404 13.13026523590088 C 14.8291187286377 12.82535552978516 14.81680870056152 12.31797504425049 15.12087917327881 11.99873542785645 C 15.27088928222656 11.84104537963867 15.48203945159912 11.7505350112915 15.70008945465088 11.7505350112915 C 15.90645885467529 11.7505350112915 16.10237884521484 11.82889556884766 16.25175857543945 11.97116565704346 L 21.04066848754883 16.53237533569336 L 21.04275894165039 16.53436470031738 L 21.0447998046875 16.53640556335449 C 21.30620956420898 16.79715538024902 21.4501781463623 17.13953590393066 21.4501781463623 17.50046539306641 C 21.4501781463623 17.86124610900879 21.30966949462891 18.20026588439941 21.05453872680664 18.45506477355957 L 21.05244827270508 18.45715522766113 L 21.0502986907959 18.45919609069824 L 16.25175857543945 23.02975463867188 C 16.10247993469238 23.17209625244141 15.90652942657471 23.25053596496582 15.70009899139404 23.25053596496582 Z" stroke="none"/>
      <path d="M 15.70008563995361 12.00053787231445 C 15.55483436584473 12.00053405761719 15.40986061096191 12.05767440795898 15.30189895629883 12.17116546630859 C 15.0923490524292 12.39116477966309 15.10114860534668 12.73932456970215 15.32086944580078 12.94887542724609 L 19.53997802734375 16.95045471191406 L 8.550008773803711 16.95045471191406 C 8.24639892578125 16.95045471191406 8 17.19685554504395 8 17.50046539306641 C 8 17.8040657043457 8.24639892578125 18.05046463012695 8.550008773803711 18.05046463012695 L 19.52237892150879 18.05046463012695 L 15.32086944580078 22.05232620239258 C 15.10086917877197 22.26187515258789 15.0923490524292 22.61003494262695 15.30189895629883 22.83003616333008 C 15.40997886657715 22.94333648681641 15.55489921569824 23.00053405761719 15.70009899139404 23.00053405761719 C 15.83649921417236 23.00053405761719 15.97290897369385 22.95021438598633 16.07933807373047 22.84873580932617 L 20.87786865234375 18.27817535400391 C 21.08577919006348 18.0705451965332 21.20018005371094 17.7944450378418 21.20018005371094 17.50046539306641 C 21.20018005371094 17.20648574829102 21.08577919006348 16.93038558959961 20.86824798583984 16.71340560913086 L 16.07933807373047 12.15219497680664 C 15.97296142578125 12.05087661743164 15.83640098571777 12.00054359436035 15.70008563995361 12.00053787231445 M 15.70008945465088 11.50053596496582 L 15.70012950897217 11.50053596496582 C 15.97097873687744 11.50055503845215 16.22811889648438 11.6034049987793 16.42417907714844 11.79013633728027 L 21.21308898925781 16.35134506225586 L 21.21726989746094 16.35532569885254 L 21.22135925292969 16.35940551757813 C 21.53012847900391 16.66739463806152 21.70018005371094 17.07263565063477 21.70018005371094 17.50046539306641 C 21.70018005371094 17.9280948638916 21.53361892700195 18.32993507385254 21.2311897277832 18.63196563720703 L 21.22699928283691 18.63614463806152 L 21.22271919250488 18.64022636413574 L 16.4241886138916 23.21078491210938 C 16.2282886505127 23.3975658416748 15.9710693359375 23.50053405761719 15.70009899139404 23.50053405761719 C 15.41436862945557 23.50053405761719 15.13736915588379 23.38193511962891 14.94010925292969 23.17515563964844 C 14.54051876068115 22.75563430786133 14.55673885345459 22.08964538574219 14.97601890563965 21.69027519226074 L 18.2724723815918 18.55046463012695 L 8.550008773803711 18.55046463012695 C 7.971029281616211 18.55046463012695 7.5 18.07943534851074 7.5 17.50046539306641 C 7.5 16.92148590087891 7.971029281616211 16.45045471191406 8.550008773803711 16.45045471191406 L 18.28621673583984 16.45045471191406 L 14.9767894744873 13.31165504455566 C 14.55688953399658 12.91119575500488 14.54076862335205 12.24529457092285 14.93984889984131 11.82631492614746 C 15.13671875 11.61936569213867 15.41389942169189 11.50053596496582 15.70008945465088 11.50053596496582 Z" stroke="none" fill="#fff"/>
    </g>
  </g>
</svg>
