<svg xmlns="http://www.w3.org/2000/svg" width="75" height="75" viewBox="0 0 75 75">
  <g id="arti" transform="translate(8332 -3135)">
    <g id="_10lak" data-name="10lak" transform="translate(-9372 1206)">
      <circle id="Ellipse_532" data-name="Ellipse 532" cx="37.5" cy="37.5" r="37.5" transform="translate(1040 1929)" fill="#d86004"/>
      <g id="cinema" transform="translate(1055 1910)">
        <g id="Group_1729" data-name="Group 1729" transform="translate(0 38)">
          <g id="Group_1728" data-name="Group 1728">
            <path id="Path_2037" data-name="Path 2037" d="M43.752,65.691v-.23a2.534,2.534,0,0,0-1.143-2.117,4.127,4.127,0,0,0,1.143-2.857,4.878,4.878,0,0,0-1.177-3.107,4.05,4.05,0,0,0-2.309-1.406v-14.7A3.272,3.272,0,0,0,37,38H7.626a3.272,3.272,0,0,0-3.268,3.268v14.7a4.05,4.05,0,0,0-2.309,1.406A4.878,4.878,0,0,0,.872,60.486a4.126,4.126,0,0,0,1.143,2.857A2.534,2.534,0,0,0,.872,65.46v.23A1.526,1.526,0,0,0,0,67.066v4.358a.654.654,0,0,0,1.307,0V67.066a.218.218,0,0,1,.218-.218H8.5a.218.218,0,0,1,.218.218v2.4H7.278a1.527,1.527,0,0,0-1.525,1.525v4.358a.654.654,0,1,0,1.307,0v-4.36a.218.218,0,0,1,.218-.218H14.25a.218.218,0,0,1,.218.218v4.358a.654.654,0,1,0,1.307,0V70.989a1.527,1.527,0,0,0-1.525-1.525H12.841v-2.4a.218.218,0,0,1,.218-.218h6.972a.218.218,0,0,1,.218.218v2.4h-1.38a1.527,1.527,0,0,0-1.525,1.525v4.358a.654.654,0,1,0,1.307,0V70.989a.218.218,0,0,1,.218-.218h6.972a.218.218,0,0,1,.218.218v4.358a.654.654,0,1,0,1.307,0V70.989a1.527,1.527,0,0,0-1.525-1.525H24.375v-2.4a.218.218,0,0,1,.218-.218h6.972a.218.218,0,0,1,.218.218v2.4H30.461a1.527,1.527,0,0,0-1.525,1.525v4.358a.654.654,0,1,0,1.307,0V70.989a.218.218,0,0,1,.218-.218h6.972a.218.218,0,0,1,.218.218v4.358a.654.654,0,1,0,1.307,0V70.989a1.527,1.527,0,0,0-1.525-1.525H35.908v-2.4a.218.218,0,0,1,.218-.218H43.1a.218.218,0,0,1,.218.218v4.358a.654.654,0,0,0,1.307,0V67.067a1.526,1.526,0,0,0-.873-1.376ZM5.982,63.736a.654.654,0,0,0,.635.5A1.228,1.228,0,0,1,7.844,65.46v.081H2.179V65.46a1.228,1.228,0,0,1,1.227-1.227A.654.654,0,0,0,3.707,63a2.826,2.826,0,0,1-1.528-2.514c0-1.511,1.237-3.268,2.833-3.268,1.572,0,2.813,1.738,2.832,3.232v.036A2.826,2.826,0,0,1,6.316,63a.654.654,0,0,0-.334.736ZM12.4,65.461v.23a1.526,1.526,0,0,0-.872,1.376v2.4h-1.51v-2.4a1.526,1.526,0,0,0-.872-1.376v-.23a2.534,2.534,0,0,0-1.143-2.117,4.12,4.12,0,0,0,1.1-2.247H12.45a4.121,4.121,0,0,0,1.1,2.247A2.534,2.534,0,0,0,12.4,65.461Zm5.111-1.725a.654.654,0,0,0,.635.5,1.228,1.228,0,0,1,1.227,1.227v.081H13.713V65.46a1.228,1.228,0,0,1,1.227-1.227A.654.654,0,0,0,15.24,63a2.826,2.826,0,0,1-1.528-2.516v-.034c.018-1.495,1.259-3.233,2.832-3.233s2.813,1.738,2.832,3.232v.036A2.826,2.826,0,0,1,17.849,63a.654.654,0,0,0-.333.736Zm6.423,1.725v.23a1.526,1.526,0,0,0-.872,1.376v2.4h-1.51v-2.4a1.526,1.526,0,0,0-.872-1.376v-.23a2.534,2.534,0,0,0-1.143-2.117,4.12,4.12,0,0,0,1.1-2.247h3.344a4.121,4.121,0,0,0,1.1,2.247A2.534,2.534,0,0,0,23.939,65.461Zm5.111-1.725a.654.654,0,0,0,.635.5,1.228,1.228,0,0,1,1.227,1.227v.081H25.246V65.46a1.228,1.228,0,0,1,1.227-1.227.654.654,0,0,0,.3-1.234,2.826,2.826,0,0,1-1.528-2.515v-.035c.018-1.495,1.259-3.233,2.832-3.233s2.813,1.738,2.832,3.232v.036A2.826,2.826,0,0,1,29.383,63a.653.653,0,0,0-.333.736Zm6.423,1.725v.23a1.526,1.526,0,0,0-.872,1.376v2.4H33.09v-2.4a1.526,1.526,0,0,0-.872-1.376v-.23a2.534,2.534,0,0,0-1.143-2.117,4.12,4.12,0,0,0,1.1-2.247h3.344a4.121,4.121,0,0,0,1.1,2.247,2.534,2.534,0,0,0-1.147,2.117Zm.058-5.672h-3.37a4.972,4.972,0,0,0-1.136-2.429,3.718,3.718,0,0,0-5.891,0A4.971,4.971,0,0,0,24,59.789H20.63a4.972,4.972,0,0,0-1.136-2.429,3.9,3.9,0,0,0-2.946-1.449A3.9,3.9,0,0,0,13.6,57.36a4.97,4.97,0,0,0-1.136,2.429H9.094A4.972,4.972,0,0,0,7.957,57.36a4.045,4.045,0,0,0-2.292-1.386V41.268a1.963,1.963,0,0,1,1.961-1.961H37a1.963,1.963,0,0,1,1.961,1.961v14.7a4.045,4.045,0,0,0-2.292,1.386,4.971,4.971,0,0,0-1.138,2.43Zm5.053,3.947a.654.654,0,0,0,.635.5,1.228,1.228,0,0,1,1.227,1.227v.081H36.78V65.46a1.228,1.228,0,0,1,1.227-1.227.654.654,0,0,0,.3-1.234,2.826,2.826,0,0,1-1.528-2.515v-.035c.018-1.495,1.259-3.233,2.832-3.233,1.6,0,2.833,1.757,2.833,3.268A2.826,2.826,0,0,1,40.917,63a.654.654,0,0,0-.334.736Z" transform="translate(0 -38)" fill="#d86004"/>
          </g>
        </g>
        <g id="Group_1731" data-name="Group 1731" transform="translate(17.735 44.974)">
          <g id="Group_1730" data-name="Group 1730">
            <path id="Path_2038" data-name="Path 2038" d="M212.28,122l-7.844-3.922a.661.661,0,0,0-.635.029.65.65,0,0,0-.31.556V123.9a.654.654,0,1,0,1.307,0v-4.171l5.729,2.864c-6.963,3.482-6.729,3.368-6.729,3.368a.646.646,0,0,0-.215.221h0a.653.653,0,0,0,.26.908h0a.619.619,0,0,0,.2.067h0a.627.627,0,0,0,.255-.011c.06,0,7.927-3.945,7.98-3.972a.654.654,0,0,0,0-1.17Z" transform="translate(-203.49 -118.014)" fill="#d86004"/>
          </g>
        </g>
      </g>
    </g>
    <g id="copywriting" transform="translate(-8317 3126.467)">
      <g id="Group_4083" data-name="Group 4083" transform="translate(0 25.533)">
        <path id="Path_2087" data-name="Path 2087" d="M206.647,138.23H189.929a.659.659,0,0,0,0,1.318h16.718a.659.659,0,0,0,0-1.318Z" transform="translate(-172.635 -128.325)" fill="#fff"/>
        <path id="Path_2088" data-name="Path 2088" d="M158.188,190.245a.659.659,0,0,0-.659-.659H136.077a.659.659,0,1,0,0,1.318h21.451A.659.659,0,0,0,158.188,190.245Z" transform="translate(-123.516 -175.167)" fill="#fff"/>
        <path id="Path_2089" data-name="Path 2089" d="M136.077,240.94a.659.659,0,1,0,0,1.318h21.152a.659.659,0,0,0,0-1.318Z" transform="translate(-123.516 -222.008)" fill="#fff"/>
        <path id="Path_2090" data-name="Path 2090" d="M38.992,34.721h3.082V39.04a.659.659,0,0,0,1.318,0V28.586a3.036,3.036,0,0,0-.542-1.735h26A2.247,2.247,0,0,1,71.091,29.1v20.8a.659.659,0,0,0,1.318,0V29.1a3.566,3.566,0,0,0-3.562-3.562H40.338a3.057,3.057,0,0,0-3.053,3.053v4.429A1.709,1.709,0,0,0,38.992,34.721ZM38.6,28.586a1.735,1.735,0,0,1,3.47,0V33.4H38.992a.389.389,0,0,1-.388-.388Z" transform="translate(-34.008 -25.533)" fill="#fff"/>
        <path id="Path_2091" data-name="Path 2091" d="M41.644,220.866h-.467v-1.408a1.831,1.831,0,0,0-1.828-1.829H15.722a1.831,1.831,0,0,0-1.829,1.829v1.408H9.384V207.435a.659.659,0,0,0-1.318,0v13.431H6.649c-1.869,0-2.738.866-5.989,2.307a1.163,1.163,0,0,0,0,2.1c3.251,1.441,4.12,2.307,5.989,2.307H8.066v.217a3.567,3.567,0,0,0,3.562,3.562H37.6a3.577,3.577,0,0,0,3.573-3.573v-.207h.467a3.356,3.356,0,1,0,0-6.713ZM7.308,226.26v-1.379h6.585v1.379Zm6.585-2.7H7.308v-1.379h6.585Zm-12.372.659c3.341-1.559,3.581-1.828,4.468-1.981V226.2c-.887-.154-1.131-.424-4.468-1.981Zm10.107,5.818A2.247,2.247,0,0,1,9.385,227.8v-.217h4.509v.207a2.258,2.258,0,0,1-2.255,2.255Zm28.229-2.255A2.258,2.258,0,0,1,37.6,230.04H14.408a3.556,3.556,0,0,0,.8-2.255v-8.327a.511.511,0,0,1,.51-.51H39.348a.511.511,0,0,1,.51.51v8.327Zm1.786-1.525h-.467v-4.076h.467a2.038,2.038,0,1,1,0,4.076Z" transform="translate(0 -190.846)" fill="#fff"/>
      </g>
    </g>
  </g>
</svg>
