<svg xmlns="http://www.w3.org/2000/svg" xmlns:xlink="http://www.w3.org/1999/xlink" width="639.246" height="400" viewBox="0 0 639.246 400"><defs><clipPath id="a"><path d="M342.146,257.435c-1.249,3.821-1.249,4.488-1.249,3.821l.041-109.179c0-.667-.041-.562-.041-79.618h245.52l.032,184.968Z" transform="translate(-340.897 -72.459)" fill="none"/></clipPath></defs><g transform="translate(-976.377 -263.125)"><g transform="translate(934.553 212.875)"><g transform="translate(86.252 50.25)"><g transform="translate(8.652 1.382)" opacity="0.8"><g transform="translate(0 45.116)" opacity="0.5"><path d="M370.08,169.619a137.973,137.973,0,0,1-62.9-26.657c-27.781-20.969-85.92-56.651-141.38-38.877C89.307,128.6,88.965,199.52,108.89,238.044S270.115,389.381,453.3,371.43c163.922-16.063,195.865-199.927,108.441-233.2C485.911,109.375,460.042,182.9,370.08,169.619Z" transform="translate(-97.79 -99.276)" fill="#ced3e6"/></g><g transform="translate(501.169 80.595)" opacity="0.5"><ellipse cx="7.108" cy="7.65" rx="7.108" ry="7.65" fill="#ced3e6"/></g><g transform="translate(40.38 37.772)"><path d="M144.213,91.61a4.609,4.609,0,0,1,5.156,2.886c1.31,3.55-2.12,7.526-6.736,5.743h0C138.65,97.29,140.384,92.315,144.213,91.61Z" transform="translate(-140.366 -91.533)" fill="#ced3e6"/></g><g transform="translate(478.245 9.238)"><circle cx="9.259" cy="9.259" r="9.259" transform="translate(0 18.277) rotate(-80.754)" fill="#ced3e6"/></g><g transform="translate(53.932 23.717)" opacity="0.8"><path d="M173.017,83.545a9.353,9.353,0,1,1-11.531-6.482A9.354,9.354,0,0,1,173.017,83.545Z" transform="translate(-154.654 -76.713)" fill="#ced3e6"/></g><g transform="translate(439.353 308.896)"><path d="M564.047,377.711a4.609,4.609,0,0,1,5.6,1.878c1.947,3.244-.683,7.788-5.55,6.9h0C559.639,384.327,560.416,379.116,564.047,377.711Z" transform="translate(-561.033 -377.399)" fill="#ced3e6"/></g><g transform="translate(450.851 291.615)"><path d="M590.893,364.378a9.354,9.354,0,1,1-12.536-4.224A9.353,9.353,0,0,1,590.893,364.378Z" transform="translate(-573.156 -359.178)" fill="#ced3e6"/></g><g transform="translate(465.732)"><circle cx="5.696" cy="5.696" r="5.696" fill="#ced3e6"/></g></g><g transform="translate(0)" opacity="0.8"><path d="M589.615,160.514C589.608,109.629,547.239,53.871,494.51,50.5q-1.39-.088-2.806-.155c-75.595-3.523-81.353,88.675-149.749,99.074s-120.625-42.1-202.463-7.846c-73.5,30.76-93.41,203.611,122.55,210.542C434.828,357.664,589.638,312.332,589.615,160.514Z" transform="translate(-88.667 -50.25)" fill="#ced3e6"/></g></g><g transform="translate(266.88 71.314)"><g transform="translate(18.184 325.27)"><ellipse cx="166.645" cy="8.596" rx="166.645" ry="8.596" fill="#ced3e6"/></g><g transform="translate(71.384 258.342)"><g transform="translate(203.227 51.462)"><path d="M591.753,399.108H568.66v24.017h27V403.019A3.911,3.911,0,0,0,591.753,399.108Z" transform="translate(-568.66 -399.108)" fill="#ced3e6"/></g><g transform="translate(79.692)"><rect width="80.161" height="51.462" fill="#ced3e6"/></g><g transform="translate(0 51.462)"><path d="M15.922,0h189.3a15.922,15.922,0,0,1,15.922,15.922v8.095a0,0,0,0,1,0,0H0a0,0,0,0,1,0,0V15.922A15.922,15.922,0,0,1,15.922,0Z" fill="#fff"/></g><g transform="translate(69.868)"><rect width="80.161" height="51.462" fill="#fff"/></g><g transform="translate(69.868)"><path d="M428.049,360.65l80.161-6.418.012-9.384H428.154Z" transform="translate(-428.049 -344.848)" fill="#ced3e6"/></g></g><g transform="translate(0 35.121)"><g transform="translate(0 0)"><rect width="363.689" height="223.233" rx="11.293" fill="#ced3e6"/></g><g transform="translate(330.578)"><path d="M660.781,120.2V307.089H627.67V109.49h22.4A10.711,10.711,0,0,1,660.781,120.2Z" transform="translate(-627.67 -109.49)" fill="#585859"/></g><path d="M629.188,120.2V322.013a10.712,10.712,0,0,1-10.711,10.711H289.828a10.712,10.712,0,0,1-10.711-10.711V120.2a10.712,10.712,0,0,1,10.711-10.711h328.65c.16,0,.318,0,.475.01.118.006.232.011.347.022h.013c.083.006.166.013.248.024.138.011.275.029.414.048.091.01.179.024.27.043.043.006.085.013.128.022.088.013.174.029.262.05A10.715,10.715,0,0,1,629.188,120.2Z" transform="translate(-279.117 -109.49)" fill="#fff"/><path d="M620.635,109.709c-.088-.021-.174-.037-.262-.05-.043-.009-.085-.016-.128-.022-.091-.019-.179-.032-.27-.043-.138-.019-.275-.037-.414-.048-.082-.01-.166-.018-.248-.024H619.3c-.115-.01-.23-.016-.347-.022-.157-.008-.315-.01-.475-.01H289.828A10.712,10.712,0,0,0,279.117,120.2V307.089H629.188V120.2A10.715,10.715,0,0,0,620.635,109.709ZM615.3,288.421a2.912,2.912,0,0,1-2.913,2.914H295.916A2.911,2.911,0,0,1,293,288.421V126.289a2.91,2.91,0,0,1,2.913-2.913H612.39a2.911,2.911,0,0,1,2.913,2.913Z" transform="translate(-279.117 -109.49)" fill="#39393b"/><g transform="translate(13.886 13.885)"><rect width="322.3" height="167.959" rx="3.072" fill="#ced3e6"/></g><g transform="translate(13.886 13.886)"><path d="M616.057,127.044v15.3h-322.3v-15.3a2.91,2.91,0,0,1,2.913-2.913H613.145A2.911,2.911,0,0,1,616.057,127.044Z" transform="translate(-293.758 -124.131)" fill="#fff"/><g transform="translate(292.386 6.387)"><path d="M606.992,133.34a2.475,2.475,0,1,1-2.474-2.475A2.474,2.474,0,0,1,606.992,133.34Z" transform="translate(-602.042 -130.865)" fill="#df615c"/><g transform="translate(8.021 0)"><circle cx="2.475" cy="2.475" r="2.475" fill="#5392f3"/></g></g><g transform="translate(28.142 6.244)"><path d="M2.434,0H253.967A2.435,2.435,0,0,1,256.4,2.435V2.8a2.434,2.434,0,0,1-2.434,2.434H2.434A2.434,2.434,0,0,1,0,2.8V2.434A2.434,2.434,0,0,1,2.434,0Z" fill="#d2dcec"/></g><g transform="translate(6.55 5.993)"><path d="M305.75,133.319v2.423a.444.444,0,0,1-.667.385l-2.1-1.212-2.1-1.211a.445.445,0,0,1,0-.77l2.1-1.212,2.1-1.211a.444.444,0,0,1,.667.384Z" transform="translate(-300.664 -130.45)"/></g><g transform="translate(15.324 5.993)"><path d="M309.915,133.319v2.423a.444.444,0,0,0,.667.385l2.1-1.212,2.1-1.211a.444.444,0,0,0,0-.77l-2.1-1.212-2.1-1.211a.444.444,0,0,0-.667.384Z" transform="translate(-309.915 -130.45)"/></g></g></g><g transform="translate(322.028 55.185)"><rect width="5.942" height="1.398" rx="0.654" transform="translate(0 4.202) rotate(-45)" fill="#39393b"/><g transform="translate(0 0)"><rect width="1.398" height="5.942" rx="0.654" transform="translate(0 0.989) rotate(-45)" fill="#39393b"/></g></g><g transform="translate(50.318)"><g transform="translate(0 70.914)"><rect width="248.572" height="139.529" rx="6.422" fill="#fff"/><g transform="translate(15.934 55.554)"><g transform="translate(0 12.81)"><path d="M404.984,222.337h-54.5a1.514,1.514,0,0,1-1.514-1.515h0a1.514,1.514,0,0,1,1.514-1.514h54.5a1.514,1.514,0,0,1,1.514,1.514h0A1.514,1.514,0,0,1,404.984,222.337Z" transform="translate(-348.971 -219.309)" fill="#ced3e6"/></g><path d="M404.984,208.83h-54.5a1.514,1.514,0,0,1-1.514-1.514h0a1.514,1.514,0,0,1,1.514-1.514h54.5a1.513,1.513,0,0,1,1.514,1.514h0A1.513,1.513,0,0,1,404.984,208.83Z" transform="translate(-348.971 -205.803)" fill="#ced3e6"/><g transform="translate(0 25.62)"><path d="M404.984,235.843h-54.5a1.514,1.514,0,0,1-1.514-1.514h0a1.514,1.514,0,0,1,1.514-1.514h54.5a1.513,1.513,0,0,1,1.514,1.514h0A1.514,1.514,0,0,1,404.984,235.843Z" transform="translate(-348.971 -232.816)" fill="#ced3e6"/></g></g><g transform="translate(183.393 55.554)"><g transform="translate(0 12.81)"><path d="M581.549,222.337h-54.5a1.514,1.514,0,0,1-1.514-1.515h0a1.514,1.514,0,0,1,1.514-1.514h54.5a1.514,1.514,0,0,1,1.514,1.514h0A1.514,1.514,0,0,1,581.549,222.337Z" transform="translate(-525.535 -219.309)" fill="#ced3e6"/></g><path d="M581.549,208.83h-54.5a1.514,1.514,0,0,1-1.514-1.514h0a1.514,1.514,0,0,1,1.514-1.514h54.5a1.514,1.514,0,0,1,1.514,1.514h0A1.514,1.514,0,0,1,581.549,208.83Z" transform="translate(-525.535 -205.803)" fill="#ced3e6"/><g transform="translate(0 25.62)"><path d="M581.549,235.843h-54.5a1.514,1.514,0,0,1-1.514-1.514h0a1.514,1.514,0,0,1,1.514-1.514h54.5a1.514,1.514,0,0,1,1.514,1.514h0A1.514,1.514,0,0,1,581.549,235.843Z" transform="translate(-525.535 -232.816)" fill="#ced3e6"/></g></g><g transform="translate(0 117.86)"><path d="M332.171,271.5H580.742v20.38a1.29,1.29,0,0,1-1.291,1.288H333.462a1.29,1.29,0,0,1-1.291-1.288Z" transform="translate(-332.171 -271.497)" fill="#39393b"/></g><g transform="translate(222.522 122.421)"><path d="M568.426,279.777V277.94h2.3v-1.634h-3.117a.817.817,0,0,0-.817.817v2.655Z" transform="translate(-566.792 -276.306)" fill="#fff"/><g transform="translate(0 6.74)"><path d="M568.426,283.413h-1.634v2.794a.817.817,0,0,0,.817.818h3.117V285.39h-2.3Z" transform="translate(-566.792 -283.413)" fill="#fff"/></g><g transform="translate(6.538)"><path d="M575.865,279.777H577.5v-2.655a.817.817,0,0,0-.818-.817h-3v1.634h2.179Z" transform="translate(-573.686 -276.306)" fill="#fff"/></g><g transform="translate(6.538 6.74)"><path d="M575.865,283.413v1.977h-2.179v1.635h3a.818.818,0,0,0,.818-.818v-2.794Z" transform="translate(-573.686 -283.413)" fill="#fff"/></g></g><g transform="translate(14.48 122.786)"><path d="M347.438,281.854v-5.163l4.471,2.581,4.471,2.581-4.471,2.581-4.471,2.581Z" transform="translate(-347.438 -276.691)" fill="#fff"/></g><g transform="translate(37.293 123.304)"><rect width="2.771" height="9.399" rx="0.841" fill="#fff"/><g transform="translate(5.789)"><rect width="2.771" height="9.399" rx="0.841" fill="#fff"/></g></g><g transform="translate(0 113.787)"><rect width="248.572" height="4.075" fill="#ced3e6"/><g transform="translate(0 0.002)"><rect width="127.545" height="4.074" fill="#df615c"/></g></g><g transform="translate(197.367 97.932)"><g transform="translate(11.458)"><path d="M552.35,250.486h2.8v6.143h3.755V258.8H552.35Z" transform="translate(-552.35 -250.486)" fill="#39393b"/><g transform="translate(7.33)"><path d="M560.079,250.486h2.8V258.8h-2.8Z" transform="translate(-560.079 -250.486)" fill="#39393b"/></g><g transform="translate(10.585)"><path d="M573.3,250.486l-3.518,8.318h-2.756l-3.518-8.318h3.018l1.985,4.86,2.031-4.86Z" transform="translate(-563.511 -250.486)" fill="#39393b"/></g><g transform="translate(20.649)"><path d="M581.038,256.689V258.8h-6.916v-8.318h6.761V252.6h-4v.974H580.4v2.02h-3.517v1.094Z" transform="translate(-574.122 -250.486)" fill="#39393b"/></g></g><g transform="translate(0 0.671)"><path d="M547.11,254.614a3.421,3.421,0,1,1-3.42-3.42A3.42,3.42,0,0,1,547.11,254.614Z" transform="translate(-540.269 -251.194)" fill="#df615c"/></g></g><g transform="translate(7.246 96.608)"><g transform="translate(14.348 0.638)"><path d="M363.706,256.854c0,1.9-1.8,3.128-4.384,3.128s-4.384-1.229-4.384-3.128a2.551,2.551,0,0,1,1.313-2.247,2.382,2.382,0,0,1-.964-1.927c0-1.773,1.662-2.917,4.035-2.917s4.035,1.145,4.035,2.917a2.379,2.379,0,0,1-.964,1.927A2.551,2.551,0,0,1,363.706,256.854Zm-3.308-.111a1.077,1.077,0,1,0-1.076,1.019A.991.991,0,0,0,360.4,256.743Zm-1.857-3.924a.783.783,0,1,0,.781-.837A.764.764,0,0,0,358.541,252.82Z" transform="translate(-354.939 -249.763)" fill="#39393b"/><g transform="translate(9.38)"><path d="M364.829,254.872c0-3.239,1.843-5.109,4.426-5.109s4.425,1.87,4.425,5.109-1.843,5.11-4.425,5.11S364.829,258.111,364.829,254.872Zm5.543,0c0-1.885-.474-2.471-1.116-2.471s-1.117.586-1.117,2.471.474,2.472,1.117,2.472S370.372,256.758,370.372,254.872Z" transform="translate(-364.829 -249.763)" fill="#39393b"/></g></g><g transform="translate(2.612)"><path d="M348.572,252.094a3,3,0,1,1-3-3A3,3,0,0,1,348.572,252.094Z" transform="translate(-342.565 -249.09)" fill="#df615c"/></g><g transform="translate(0 7.037)"><path d="M351.042,260.079H339.811a5.811,5.811,0,0,1,5.53-3.569c.031,0,.058,0,.085,0s.054,0,.085,0A5.811,5.811,0,0,1,351.042,260.079Z" transform="translate(-339.811 -256.51)" fill="#df615c"/></g></g></g><g transform="translate(8.276)"><g clip-path="url(#a)"><g transform="translate(11.639 3.714)"><g transform="translate(0 40.696)"><g transform="translate(0 39.484)"><path d="M380.63,179.721s-1.5,9.164-8.25,10.805c-5.45,1.323-10.587-3.911-12.363-5.972-.425-.493-.655-.8-.655-.8a9.31,9.31,0,0,1-1.012.033c-1.42-.019-3.946-.309-4.936-2.056-1.409-2.49,3.72-4.19,3.72-4.19s-2.63-2.348-1.971-4.056c.649-1.679,4.177-2.03,4.177-2.03s-3.8-2.466-2.528-4.618c1.913-3.234,5.842.324,6.155.52-.249-.284-5.17-5.377-2.476-6.292,2.351-.8,6.217,1.846,8.76,4.466.4.414.631.655.631.655s.152-.116.42-.294c1.272-.851,5.174-3.128,7.66-1.051C380.967,167.346,380.63,179.721,380.63,179.721Z" transform="translate(-353.169 -160.916)" fill="#ea9b7a"/></g><g transform="translate(14.736 52.283)"><path d="M374.388,186.044a.536.536,0,0,1-.679-.781,4.818,4.818,0,0,0,.816-4.012c-.89-3.431-5.479-5.805-5.526-5.829a.536.536,0,1,1,.487-.954c.206.105,5.066,2.621,6.077,6.515a5.844,5.844,0,0,1-.965,4.878A.537.537,0,0,1,374.388,186.044Z" transform="translate(-368.706 -174.41)" fill="#d96c63"/></g><g transform="translate(5.179 48.26)"><path d="M369.184,172.617a1.665,1.665,0,0,1-.756,1.46,1.887,1.887,0,0,1-.347.176,3.927,3.927,0,0,1-.966.218,3.851,3.851,0,0,1,.687.56,1.84,1.84,0,0,1,.414.629,1.4,1.4,0,0,1-.237,1.352c-.86,1.139-2.843,1.6-4.46,1.8a5.657,5.657,0,0,1,2.5,2.538,1.674,1.674,0,0,1-.207,1.632,3.173,3.173,0,0,1-1.161.853,17.558,17.558,0,0,1-4.347,1.2c-.428-.494-.656-.806-.656-.806a9.17,9.17,0,0,1-1.015.036.522.522,0,0,1,.278-.113c1.983-.231,5.379-.927,6.046-1.814a.618.618,0,0,0,.052-.632c-.367-1.023-2.292-2.378-3.958-2.788a.535.535,0,0,1,.135-1.054c1.324.025,4.968-.2,5.939-1.5.14-.187.1-.289.083-.341a1.776,1.776,0,0,0-.811-.742,13.218,13.218,0,0,0-3.172-1.192.506.506,0,0,1-.276-.168.519.519,0,0,1-.121-.477.536.536,0,0,1,.648-.4c.185.045.568.14,1.045.289a12,12,0,0,0,2.422.088,2.125,2.125,0,0,0,.907-.248.613.613,0,0,0,.268-.571,3.426,3.426,0,0,0-.577-1.625.526.526,0,0,1,.044-.6.061.061,0,0,0,.011-.014.524.524,0,0,1,.863.055A4.489,4.489,0,0,1,369.184,172.617Z" transform="translate(-358.629 -170.168)" fill="#d96c63"/></g><g transform="translate(4.738)"><path d="M365.234,159.966a14.627,14.627,0,0,1,2.51,1.844c.763.726,1.243,1.092,1.765,1.571.036-.061-.036.057,0,0l-10.3-43.685a.529.529,0,0,0-1.037.212l7.059,40.058Z" transform="translate(-358.165 -119.285)" fill="#39393b"/></g><g transform="translate(13.897 51.302)"><path d="M374.683,187.014c-3.569,2.3-4.57.6-4.57.6l-1.81-10.26a2.213,2.213,0,0,0,.149-.176,1.4,1.4,0,0,0,.237-1.352,1.84,1.84,0,0,0-.414-.629,3.152,3.152,0,0,0-.416-.367l-.039-.223a3.749,3.749,0,0,0,.734-.188,1.888,1.888,0,0,0,.347-.176,1.573,1.573,0,0,0,.662-.866,2.661,2.661,0,0,0,1.6.72,3.627,3.627,0,0,0,.519.016Z" transform="translate(-367.821 -173.376)" fill="#39393b"/></g><g transform="translate(14.527 44.096)"><path d="M377.819,170.6a17.634,17.634,0,0,1-3.516,2.361,6.022,6.022,0,0,1-3.1.741,2.673,2.673,0,0,1-1.938-1.1c-1.7-2.28-.245-5.258.775-6.832.4.414.631.655.631.655s.152-.116.42-.294c-.877,1.3-2.344,3.983-.966,5.83a1.609,1.609,0,0,0,1.189.67c1.888.2,4.826-1.981,5.8-2.838a.535.535,0,0,1,.708.8Z" transform="translate(-368.485 -165.778)" fill="#d96c63"/></g><g transform="translate(13.417 38.293)"><path d="M432.879,159.691l0-.019s0-.022,0,0l-.012.059-.027.129-.064.315-.142.7c-.047.237-.1.48-.156.727s-.109.491-.169.742c-.227,1-.477,2.014-.748,3.027-.555,2.028-1.145,4.067-1.833,6.073s-1.4,4-2.214,5.95c-.414.97-.82,1.943-1.262,2.9-.417.966-.883,1.9-1.331,2.849-.939,1.867-1.92,3.7-2.982,5.477-.25.453-.535.882-.8,1.323s-.53.885-.82,1.307c-.571.853-1.123,1.719-1.722,2.543-1.157,1.686-2.435,3.261-3.707,4.83-1.321,1.522-2.661,3.025-4.1,4.419-.358.349-.708.708-1.07,1.052l-1.111,1-.554.5-.138.126.07-.064.1-.083a3.864,3.864,0,0,1,.414-.292,6.519,6.519,0,0,1,2-.925c.171-.044.313-.091.475-.119.079-.014.158-.027.238-.036l.2-.034a3.371,3.371,0,0,1,.4-.03,2.142,2.142,0,0,1,.312-.011c.047,0,.112.009.147.007s.073,0,.109,0a2.043,2.043,0,0,1,.211.025.665.665,0,0,1,.13.016l.061.017a.124.124,0,0,1,.027,0c.156.049-.156,0-.618-.2a15.559,15.559,0,0,1-1.786-.933c-.686-.407-1.427-.9-2.187-1.439-1.527-1.076-3.126-2.371-4.727-3.743s-3.213-2.859-4.814-4.4-3.207-3.117-4.783-4.746-3.165-3.279-4.718-4.96c-.783-.836-1.562-1.678-2.327-2.523L384.6,178.8l-17.284,12.964.576.872.546.807,1.092,1.585q1.1,1.565,2.233,3.1c1.517,2.041,3.072,4.06,4.688,6.049s3.291,3.95,5.042,5.891c.878.967,1.77,1.931,2.691,2.888s1.867,1.9,2.842,2.845a80.124,80.124,0,0,0,6.364,5.558c1.171.906,2.407,1.8,3.761,2.687a38.338,38.338,0,0,0,4.551,2.563,27.587,27.587,0,0,0,6.22,2.125l.469.095c.163.029.339.055.507.082.342.052.685.1,1.027.142s.743.064,1.113.088l.561.028c.185.009.4.006.6.006q.609-.006,1.217-.033c.425-.029.865-.077,1.3-.129.218-.027.431-.054.651-.09s.453-.085.68-.132c.455-.1.9-.191,1.355-.325a18.637,18.637,0,0,0,5.263-2.452c.387-.269.762-.552,1.132-.842l.275-.22.248-.2.2-.176.793-.707,1.581-1.416c.516-.483,1.018-.981,1.526-1.471,2.044-1.956,3.92-4.059,5.749-6.193,1.78-2.167,3.5-4.385,5.056-6.691,1.6-2.287,3.026-4.662,4.391-7.063l.989-1.816c.327-.606.627-1.224.94-1.836s.62-1.226.907-1.848l.873-1.861a100.863,100.863,0,0,0,5.489-15.346c.693-2.62,1.317-5.255,1.794-7.943.24-1.345.466-2.694.646-4.078.046-.342.089-.691.13-1.043s.082-.7.119-1.062.074-.727.106-1.1l.1-1.32Z" transform="translate(-367.315 -159.66)" fill="#faaf3a"/></g><g transform="translate(24.707 66.146)"><path d="M379.225,190.645a1.491,1.491,0,1,0,1.358-1.612A1.49,1.49,0,0,0,379.225,190.645Z" transform="translate(-379.219 -189.027)" fill="#c77e2e"/></g><g transform="translate(55.061 81.236)"><path d="M411.86,217.075a.636.636,0,0,0,.617-.482,47.965,47.965,0,0,0,1.038-11.037.637.637,0,0,0-1.273.036,47.579,47.579,0,0,1-1,10.692.636.636,0,0,0,.463.772A.621.621,0,0,0,411.86,217.075Z" transform="translate(-411.224 -204.938)" fill="#c77e2e"/><g transform="translate(1.027 0.849)"><path d="M415.991,212.511a.637.637,0,0,0,.569-.921,51.778,51.778,0,0,0-3.117-5.516.637.637,0,0,0-1,.791,52.665,52.665,0,0,1,2.976,5.293A.637.637,0,0,0,415.991,212.511Z" transform="translate(-412.306 -205.833)" fill="#c77e2e"/></g></g><g transform="translate(18.214 64.515)"><g transform="translate(1.284)"><path d="M374.362,202.926a.634.634,0,0,0,.457-.194c5.331-5.5,17.364-14.184,17.485-14.27a.637.637,0,0,0-.745-1.034c-.121.088-12.245,8.84-17.654,14.418a.637.637,0,0,0,.456,1.08Z" transform="translate(-373.726 -187.307)" fill="#c77e2e"/></g><g transform="translate(0 1.923)"><path d="M379.444,198.33a.637.637,0,0,0,.489-1.044l-6.435-7.722a.637.637,0,1,0-.978.816l6.434,7.721A.637.637,0,0,0,379.444,198.33Z" transform="translate(-372.372 -189.335)" fill="#c77e2e"/></g></g></g><g transform="translate(62.509 169.936)"><g transform="translate(0 30.017)"><path d="M451.282,353.627l8.627-50.915.708-4.162-24.836-8.766-1.417-.5-5.914-2.086s-.472,2.177-1.207,5.921c-.088.451-.181.928-.276,1.424-2.33,12.04-6.7,36.857-7.889,59.082Z" transform="translate(-419.077 -287.2)" fill="#39393b"/><g transform="translate(26.434 13.95)"><path d="M448.317,354.386c3.731-20.3,8.528-49.968,8.808-51.7a.671.671,0,1,0-1.324-.213c-.069.427-5.049,31.225-8.853,51.912Z" transform="translate(-446.948 -301.908)" fill="#585859"/></g></g><g transform="translate(7.889)"><g transform="translate(1.374)"><path d="M502.033,269.313s1.869,17.732-2.164,27.6-56.258,4.791-69.567-4.093c-5.459-3.644,6.167-37.272,6.167-37.272Z" transform="translate(-428.843 -255.551)" fill="#39393b"/></g><g transform="translate(0 16.794)"><path d="M427.395,293.827a15.218,15.218,0,0,0,2.311-.595,15.482,15.482,0,0,0,3.435-1.663,18.1,18.1,0,0,0,3.067-2.5c5.757-5.808,7.452-14.587,7.532-15.016a.671.671,0,1,0-1.319-.247c-.019.1-1.783,9.235-7.628,14.76a16.056,16.056,0,0,1-2.384,1.88,14.187,14.187,0,0,1-3.28,1.564,13.988,13.988,0,0,1-1.459.391C427.583,292.853,427.489,293.329,427.395,293.827Z" transform="translate(-427.395 -273.258)" fill="#585859"/></g><g transform="translate(32.221 7.231)"><path d="M461.369,298.266a.661.661,0,0,0,.634.679h.006a.66.66,0,0,0,.7-.614c.118-2.424.261-4.907.416-7.387.028-.436.055-.873.085-1.309.526-8.1,1.2-16.06,1.7-21.676.042-.454.08-.9.12-1.318.113-1.232.214-2.326.3-3.251-.444-.069-.889-.14-1.328-.214-.087.925-.19,2.029-.3,3.274-.041.423-.079.864-.12,1.317-.5,5.568-1.165,13.454-1.692,21.509-.03.444-.059.891-.089,1.334C461.64,293.18,461.492,295.756,461.369,298.266Z" transform="translate(-461.368 -263.175)" fill="#585859"/></g><g transform="translate(29.938 8.03)"><path d="M459.335,289.757a17.554,17.554,0,0,0,2.343.9,13.5,13.5,0,0,0,1.324.334,9.464,9.464,0,0,0,1.269.165,4.615,4.615,0,0,0,2.249-.352,2.742,2.742,0,0,0,1.526-2.048c.487-2.5,1.511-12.823,2.2-20.124.045-.449.085-.888.125-1.313.109-1.168.207-2.231.29-3.133-.444-.054-.889-.107-1.333-.166-.083.908-.182,1.983-.295,3.166q-.06.635-.122,1.313c-.69,7.283-1.71,17.591-2.182,20.014a1.441,1.441,0,0,1-.808,1.131,4.733,4.733,0,0,1-2.832.037c-.451-.1-.9-.225-1.32-.359a16.089,16.089,0,0,1-1.839-.721.68.68,0,0,0-.9.291A.64.64,0,0,0,459.335,289.757Z" transform="translate(-458.96 -264.018)" fill="#585859"/></g></g><g transform="translate(43.674 16.793)"><g transform="translate(0 8.304)"><path d="M497.413,353.36c2.066-18.9,4.455-44.184,5.805-58.835.044-.459.083-.9.122-1.34.6-6.464.963-10.535.963-10.535-3.2-1.335-9.017-.417-15.2,1.338-.448.125-.894.252-1.344.39a184.74,184.74,0,0,0-22.633,8.847V353.36Z" transform="translate(-465.126 -282.013)" fill="#39393b"/></g><g transform="translate(27.785 27.174)"><path d="M495.768,354.386c1.785-21.008,3.9-51.359,3.928-51.759a.671.671,0,1,0-1.338-.093c-.028.4-2.15,30.863-3.936,51.852Z" transform="translate(-494.422 -301.909)" fill="#585859"/></g><g transform="translate(18.918)"><path d="M485.084,274.052a35.115,35.115,0,0,0,3.7,9.872,21.648,21.648,0,0,0,6.9,7.645,15.687,15.687,0,0,0,8.564,2.5c.043-.459.083-.9.123-1.341a14.432,14.432,0,0,1-7.961-2.29,20.093,20.093,0,0,1-6.278-6.907,34.461,34.461,0,0,1-3.729-9.729.671.671,0,1,0-1.319.245Z" transform="translate(-485.073 -273.257)" fill="#585859"/></g></g></g><g transform="translate(71.4)"><g transform="translate(0 60.509)"><path d="M428.451,262.244c14.457,13.5,48.643,20.67,74.993,7.839,2.891-7.9,6.069-36.092,6.921-44.518.173-1.679.308-3.356.419-5.037a221.163,221.163,0,0,0,.027-24.745c-.022-.464-.045-.927-.066-1.392-.344-7.007-.86-14.277-1.345-21.991-.963-15.274-6.061-24.686-14.918-26.1a36.136,36.136,0,0,1-9.777-2.949c-.294-.138-.571-.274-.84-.414a27.625,27.625,0,0,1-4.474-2.768H459.636a15.067,15.067,0,0,1-6.15,5.14c-.255.122-.513.238-.774.352-7.012,3.026-15.189,2.424-16.875,10.882-1.059,5.308,3.007,16.231,2.58,38.377q-.047,2.438-.17,5.056-.117,2.455-.31,5.076c-.12,1.626-.267,3.307-.438,5.032q-.225,2.266-.513,4.651-.3,2.447-.664,5.015C435.008,228.959,431.479,250.408,428.451,262.244Z" transform="translate(-428.451 -140.174)" fill="#faaf3a"/><g transform="translate(67.114 43.776)"><path d="M499.808,269.237a.593.593,0,0,1-.573-.749c10.972-40.23,8.758-81.122,8.734-81.531a.593.593,0,1,1,1.184-.068c.024.411,2.249,41.5-8.774,81.911A.593.593,0,0,1,499.808,269.237Z" transform="translate(-499.214 -186.33)" fill="#c77e2e"/></g><g transform="translate(7.533 38.214)"><path d="M437.031,216.684a.637.637,0,0,0,.632-.565c1.313-11.635,1.328-34.784,1.328-35.016a.637.637,0,0,0-1.274,0c0,.231-.015,23.309-1.319,34.873a.635.635,0,0,0,.561.7A.612.612,0,0,0,437.031,216.684Z" transform="translate(-436.394 -180.466)" fill="#c77e2e"/></g><g transform="translate(35.228 116.636)"><path d="M465.6,264.77a1.49,1.49,0,1,0,1.358-1.612A1.491,1.491,0,0,0,465.6,264.77Z" transform="translate(-465.594 -263.152)" fill="#c77e2e"/></g><g transform="translate(34.991 123.842)"><path d="M465.35,272.367a1.49,1.49,0,1,0,1.357-1.612A1.49,1.49,0,0,0,465.35,272.367Z" transform="translate(-465.344 -270.749)" fill="#c77e2e"/></g><g transform="translate(14.924 30.698)"><path d="M446.865,188.039c-3.878-4.5-2.424-14.531-2.36-14.956a.636.636,0,0,1,.629-.543h13.157a.636.636,0,0,1,.629.543c.064.425,1.518,10.452-2.36,14.956a6.526,6.526,0,0,1-9.695,0ZM445.7,173.815c-.243,2.118-.889,9.883,2.134,13.394a5.253,5.253,0,0,0,7.765,0c3.021-3.506,2.377-11.276,2.135-13.395Z" transform="translate(-444.186 -172.541)" fill="#c77e2e"/></g></g><g transform="translate(14.241)"><path d="M481.949,88.174c-3.684-2.383-15.275-3.579-15.275-3.579s-1.909-5.012-4.057-6.445c-4.884-3.257-5.49,3.341-5.49,3.341s-4.773-6.683-9.07-4.773,1.193,8.115,1.193,8.115-6.445-1.193-5.729,4.3,6.922,7.877,6.922,7.877a12.04,12.04,0,0,0-.954,8.115c.954,5.012,3.1,5.251,3.1,5.251l26.732,2.386s5.49,0,6.922-6.922-3.341-9.786-3.341-9.786S486.007,90.8,481.949,88.174Z" transform="translate(-443.466 -76.375)" fill="#39393b"/><g transform="translate(8.562 44.759)"><g transform="translate(8.085)"><path d="M461.018,135.957v5.022a15.733,15.733,0,0,0,1.777,1.245c8.72,5.236,18.127-1.245,18.127-1.245V123.568L463.392,134.48Z" transform="translate(-461.018 -123.568)" fill="#ea9b7a"/></g><g transform="translate(8.085 7.927)"><path d="M461.018,136.244v5.166a15.733,15.733,0,0,0,1.777,1.245c7.425-2.939,12.829-10.73,12.829-10.73l-12.233,2.985Z" transform="translate(-461.018 -131.926)" fill="#39393b"/></g><g transform="translate(16.472 12.31)"><path d="M481.334,136.547a9.934,9.934,0,0,1,7.478,7.7c-5.716,5.981-10.771,11.167-18.952,12.681V144.913A21.168,21.168,0,0,0,481.334,136.547Z" transform="translate(-469.861 -136.547)" fill="#faaf3a"/></g><g transform="translate(0.623 14.045)"><path d="M460.429,138.377s-5.241,1.125-7.278,7.83c5.284,6.429,8.106,8.849,15.848,10.814V145.007S464.683,144.938,460.429,138.377Z" transform="translate(-453.151 -138.377)" fill="#faaf3a"/></g><g transform="translate(0 19.372)"><g transform="translate(4.948 16.575)"><path d="M457.711,232.942l3.4,8.2v0l1.525,3.685,4.311,10.412,2.08-4.021.738-1.423,1.67-3.224.736-1.423,1.671-3.224.736-1.423,1.67-3.224v0l.738-1.421,1.568-3.03-.033-.329-.244-2.4-.555-5.449-.244-2.406-.555-5.449-.244-2.4-.555-5.449-.244-2.4-.555-5.452-.245-2.4-.555-5.449-.244-2.4-.555-5.449-.245-2.406-.555-5.447-.244-2.406-.555-5.449-.245-2.4-.573-5.632-4.163-.163-.122.937-.252,1.907-.57,4.324-.252,1.907-.57,4.324-.252,1.91-.57,4.324-.252,1.907-.57,4.324-.252,1.907-.57,4.326-.252,1.907-.57,4.324-.252,1.907-.57,4.324-.252,1.91-.57,4.324-.252,1.907-.57,4.324-.252,1.91-.57,4.324-.252,1.907-.57,4.324-.252,1.91Z" transform="translate(-457.711 -161.469)" fill="#39393b"/><g transform="translate(0.01 0.937)"><g transform="translate(9.047)"><path d="M467.261,164.365l5.355,5.355-.245-2.4-4.858-4.858Z" transform="translate(-467.261 -162.457)" fill="#585859"/></g><g transform="translate(8.225 6.231)"><path d="M466.393,170.934l6.977,6.979-.244-2.406-6.48-6.481Z" transform="translate(-466.393 -169.027)" fill="#585859"/></g><g transform="translate(7.402 12.462)"><path d="M465.526,177.506l8.6,8.6-.245-2.406-8.1-8.1Z" transform="translate(-465.526 -175.597)" fill="#585859"/></g><g transform="translate(6.58 18.695)"><path d="M464.659,184.076,474.88,194.3l-.244-2.4-9.724-9.725Z" transform="translate(-464.659 -182.169)" fill="#585859"/></g><g transform="translate(5.757 24.926)"><path d="M463.792,190.646l11.843,11.843-.245-2.4-11.346-11.346Z" transform="translate(-463.792 -188.739)" fill="#585859"/></g><g transform="translate(4.935 31.159)"><path d="M462.925,197.218l13.465,13.465-.244-2.4-12.969-12.969Z" transform="translate(-462.925 -195.311)" fill="#585859"/></g><g transform="translate(4.112 37.39)"><path d="M462.058,203.788l15.087,15.087-.244-2.4-14.591-14.59Z" transform="translate(-462.058 -201.881)" fill="#585859"/></g><g transform="translate(3.29 43.621)"><path d="M461.19,210.36,477.9,227.069l-.244-2.406L461.442,208.45Z" transform="translate(-461.19 -208.45)" fill="#585859"/></g><g transform="translate(2.467 49.855)"><path d="M460.323,216.93l18.331,18.331-.244-2.4-17.835-17.835Z" transform="translate(-460.323 -215.023)" fill="#585859"/></g><g transform="translate(1.645 56.085)"><path d="M459.456,223.5l16.88,16.877.738-1.421-17.366-17.366Z" transform="translate(-459.456 -221.592)" fill="#585859"/></g><g transform="translate(0.822 62.319)"><path d="M458.589,230.072l15.3,15.3.736-1.423-15.78-15.78Z" transform="translate(-458.589 -228.165)" fill="#585859"/></g><g transform="translate(0 68.55)"><path d="M457.722,236.644l13.712,13.709.736-1.423-14.2-14.2Z" transform="translate(-457.722 -234.734)" fill="#585859"/></g><g transform="translate(3.387 78.74)"><path d="M461.292,245.479l1.525,3.685,6.391,6.391.738-1.423Z" transform="translate(-461.292 -245.479)" fill="#585859"/></g></g><g transform="translate(9.067 0)"><path d="M471.8,161.633l-2.072,3.08-2.091-3.244-.366,2.771,2.424,2.467,2.323-2.93Z" transform="translate(-467.271 -161.47)" fill="#585859"/></g></g><g transform="translate(11.149 4.668)"><path d="M475.125,155.81l-5.554,8.256-5.322-8.256,5.322-6.895Z" transform="translate(-464.249 -148.915)" fill="#39393b"/></g><path d="M477.745,161.2a.639.639,0,0,0,.4-.138c5.5-4.384,10.18-15.715,10.378-16.194a.637.637,0,1,0-1.179-.483c-.045.111-4.454,10.78-9.486,15.255l-8.363-11.359a.636.636,0,0,0-1.033.011l-7.8,11.078c-1.19-2.15-4.323-7.863-6.955-13.159a.637.637,0,0,0-1.14.567c3.321,6.685,7.436,14.025,7.476,14.1a.636.636,0,0,0,1.076.055l7.879-11.184,8.242,11.194a.638.638,0,0,0,.429.254C477.69,161.2,477.717,161.2,477.745,161.2Z" transform="translate(-452.494 -143.993)" fill="#c77e2e"/><g transform="translate(15.848 1.188)"><path d="M469.84,149.362a.637.637,0,0,0,.637-.636v-2.843a.637.637,0,0,0-1.274,0v2.843A.636.636,0,0,0,469.84,149.362Z" transform="translate(-469.204 -145.246)" fill="#c77e2e"/></g></g></g><g transform="translate(5.229 33.396)"><path d="M454.121,113.085s-2.852-3.369-4.463,0-.373,10.19,3.967,9.075Z" transform="translate(-448.98 -111.587)" fill="#d96c63"/></g><g transform="translate(7.329 15.187)"><path d="M451.194,123.911s-.014,10.382,10.785,10.359c10.732-.02,18.046-8.448,18.426-8.838l.012-.01.117-2.181.611-11.326.326-6.053s1.371-10.9-8.987-12.888c-7.568-1.453-14.666-.2-18.248,3.753-.115.127-.228.258-.333.392a9.311,9.311,0,0,0-2.038,5.077l-.335,10.873-.083,2.664Z" transform="translate(-451.194 -92.388)" fill="#ea9b7a"/></g><g transform="translate(19.08 24.962)"><path d="M464.233,105.8s4.531,3.375,7.228,1.223-3.586-4.5-5.652-4.318S462.887,105.035,464.233,105.8Z" transform="translate(-463.584 -102.695)" fill="#39393b"/></g><g transform="translate(6.907 24.962)"><path d="M458.639,105.8s-4.531,3.375-7.228,1.223,3.586-4.5,5.652-4.318S459.985,105.035,458.639,105.8Z" transform="translate(-450.749 -102.695)" fill="#39393b"/></g><g transform="translate(16.843 46.237)"><path d="M462.749,126.956a4.5,4.5,0,0,0,3.088-.99.478.478,0,0,0-.622-.725,3.3,3.3,0,0,1-3.319.516.477.477,0,0,0-.388.873A3.884,3.884,0,0,0,462.749,126.956Z" transform="translate(-461.225 -125.126)" fill="#d96c63"/></g><g transform="translate(13.132 40.654)"><path d="M467.229,119.24s-6.589,1.327-9.917,1.028c0,0,1.238,4.9,6.141,3.666A4.91,4.91,0,0,0,467.229,119.24Z" transform="translate(-457.312 -119.24)" fill="#fff"/></g><g transform="translate(10.038 15.187)"><path d="M454.05,97.117c1.694-.6,2.917-.042,5.557,1.118,3.816,1.676,8.083.168,11.853-1.759s6.034.754,4.748,2.513-1.145,3.184.28,5.428-2.695,3.286-.418,5.047a2.332,2.332,0,0,1,.514,2.88,1.553,1.553,0,0,0,1.748,2.058h0c1.228-.312,2.96-2.489,2.96-2.489l.326-6.053s1.371-10.9-8.987-12.888c-7.568-1.453-14.666-.2-18.248,3.753C454.268,96.852,454.155,96.983,454.05,97.117Z" transform="translate(-454.05 -92.388)" fill="#39393b"/></g><g transform="translate(21.749 35.832)"><path d="M466.4,115.525c0,.756,1.557,1.37,3.478,1.37s3.477-.614,3.477-1.37-1.556-1.369-3.477-1.369S466.4,114.77,466.4,115.525Z" transform="translate(-466.398 -114.156)" fill="#d96c63"/></g><g transform="translate(7.582 35.832)"><path d="M451.461,116.853a8.23,8.23,0,0,0,.837.041c1.919,0,3.476-.614,3.476-1.37s-1.557-1.369-3.476-1.369c-.26,0-.513.011-.756.033Z" transform="translate(-451.461 -114.156)" fill="#d96c63"/></g><g transform="translate(20.244 31.161)"><path d="M464.811,111.111c0,1.038.47,1.88,1.052,1.88s1.052-.842,1.052-1.88-.471-1.88-1.052-1.88S464.811,110.072,464.811,111.111Z" transform="translate(-464.811 -109.231)" fill="#39393b"/></g><g transform="translate(9.811 31.161)"><path d="M453.811,111.111c0,1.038.47,1.88,1.052,1.88s1.052-.842,1.052-1.88-.471-1.88-1.052-1.88S453.811,110.072,453.811,111.111Z" transform="translate(-453.811 -109.231)" fill="#39393b"/></g><g transform="translate(33.16 44.018)"><path d="M478.429,122.787c.049.115,1.416,3.284,3.381,4.212l.01-.01.117-2.181A7.456,7.456,0,0,1,478.429,122.787Z" transform="translate(-478.429 -122.787)" fill="#39393b"/></g><g transform="translate(35.061 33.934)"><path d="M480.434,115.028s4.151-5.576,7.192-1.194c2.507,3.611-2.232,13.02-7.192,9.8Z" transform="translate(-480.434 -112.154)" fill="#ea9b7a"/></g><g transform="translate(35.201 36.774)"><path d="M481.01,122.1a.427.427,0,0,0,.424-.38,7.137,7.137,0,0,1,4.147-5.752.427.427,0,0,0-.317-.793,7.992,7.992,0,0,0-4.68,6.452.428.428,0,0,0,.378.471Z" transform="translate(-480.581 -115.149)" fill="#39393b"/></g><g transform="translate(36.578 39.309)"><path d="M485.07,119.653a.427.427,0,0,0,.27-.758c-.171-.139-1.7-1.345-2.985-1.018a.427.427,0,0,0,.212.828c.737-.189,1.863.551,2.234.853A.426.426,0,0,0,485.07,119.653Z" transform="translate(-482.034 -117.822)" fill="#39393b"/></g><g transform="translate(13.412 28.525)"><path d="M461.068,116.193a.427.427,0,1,0,0-.854,2.937,2.937,0,0,1-2.549-1.189c1.7-3.512,3.4-7.052,3.413-7.088a.427.427,0,1,0-.77-.368c-.018.036-1.775,3.712-3.511,7.289a.422.422,0,0,0,0,.367A3.649,3.649,0,0,0,461.068,116.193Z" transform="translate(-457.607 -106.451)" fill="#39393b"/></g></g></g></g><g transform="translate(139.415 48.987)"><g transform="translate(72.311)"><path d="M569.894,155.6s5.75,5.807,11.428,3.543c4.585-1.83,5.6-8.2,5.822-10.588.053-.571.061-.911.061-.911a8.252,8.252,0,0,0,.742-.492c1.01-.738,2.674-2.234,2.492-3.992-.259-2.5-4.806-1.108-4.806-1.108s.689-3.026-.654-3.916c-1.322-.874-4.031.674-4.031.674s1.466-3.706-.543-4.6c-3.021-1.345-4.025,3.211-4.149,3.512.032-.331,1.471-14.3-.929-13.582-2.094.625-4.023,12.3-4.51,15.476-.079.5-.119.792-.119.792s-.169-.006-.451,0c-1.346.038-5.306.395-6.031,3.152C563.34,146.893,569.894,155.6,569.894,155.6Z" transform="translate(-564.136 -124.11)" fill="#ea9b7a"/><g transform="translate(12.503 17.302)"><path d="M582.338,146.669a4.993,4.993,0,0,0-.5,3.095,1.472,1.472,0,0,0,.983,1.065,2.782,2.782,0,0,0,1.265.019,15.425,15.425,0,0,0,3.732-1.354c.055-.572.061-.911.061-.911a7.926,7.926,0,0,0,.745-.492.462.462,0,0,0-.257.061c-1.539.845-4.33,2.078-5.262,1.78a.541.541,0,0,1-.359-.424c-.259-.921.432-2.876,1.416-4.018a.471.471,0,0,0-.635-.688c-.937.692-3.665,2.387-5.021,1.956-.2-.064-.224-.155-.235-.2a1.587,1.587,0,0,1,.2-.947,11.6,11.6,0,0,1,1.667-2.472.475.475,0,0,0-.044-.665.472.472,0,0,0-.667.044,12.778,12.778,0,0,0-1.7,2.455,4.013,4.013,0,0,0-.4,1.177,1.636,1.636,0,0,0,.025.663,1.223,1.223,0,0,0,.858.847C579.424,148.035,581.083,147.359,582.338,146.669Z" transform="translate(-577.319 -142.353)" fill="#d96c63"/></g><g transform="translate(9.706 17.41)"><path d="M574.977,142.707a.462.462,0,0,1,.337.406,3.042,3.042,0,0,0,.414,1.461.543.543,0,0,0,.485.272,1.875,1.875,0,0,0,.776-.285,13.859,13.859,0,0,0,2.522-2.094.457.457,0,0,1-.113.26,11.592,11.592,0,0,0-1.667,2.472c-.094.063-.19.12-.283.173a3.591,3.591,0,0,1-.856.366,1.7,1.7,0,0,1-.338.05,1.466,1.466,0,0,1-1.287-.662,3.923,3.923,0,0,1-.6-1.943.461.461,0,0,1,.592-.48Z" transform="translate(-574.369 -142.467)" fill="#d96c63"/></g><g transform="translate(3.14 15.503)"><path d="M567.869,147.884a15.472,15.472,0,0,0,3.725-.1,5.3,5.3,0,0,0,2.6-1.049,2.354,2.354,0,0,0,.832-1.774c.055-2.5-2.507-3.9-4.039-4.506-.079.5-.119.792-.119.792s-.169-.006-.451,0c1.29.482,3.712,1.662,3.667,3.688a1.42,1.42,0,0,1-.511,1.087c-1.254,1.106-4.473,1.039-5.606.921a.471.471,0,1,0-.1.936Z" transform="translate(-567.447 -140.456)" fill="#d96c63"/></g><g transform="translate(9.868 20.876)"><path d="M578.352,157.178a.472.472,0,0,0,.089-.907,4.237,4.237,0,0,1-2.631-2.461c-1.112-2.915.97-6.959.991-7a.472.472,0,0,0-.837-.436c-.094.18-2.3,4.464-1.036,7.772a5.143,5.143,0,0,0,3.179,3.007A.47.47,0,0,0,578.352,157.178Z" transform="translate(-574.54 -146.121)" fill="#d96c63"/></g></g><g transform="translate(0 24.71)"><path d="M503.912,150.164l9.829,8.536q2.356,2.2,4.73,4.368c1.575,1.451,3.15,2.9,4.732,4.319s3.158,2.838,4.737,4.225,3.159,2.741,4.724,4.042,3.117,2.567,4.578,3.652c.724.538,1.427,1.031,2,1.4l.38.243.155.1a.255.255,0,0,1,.056.048,1.006,1.006,0,0,1,.123.129c.05.067.043.119.108.171a.731.731,0,0,0,.486.075A7.444,7.444,0,0,0,543.3,180.4a23.637,23.637,0,0,0,3.777-2.822,51.1,51.1,0,0,0,3.882-3.9,96.21,96.21,0,0,0,7.328-9.441c2.334-3.368,3.983-5.967,6.092-9.55a15.78,15.78,0,0,0,14.321,5.476,127.615,127.615,0,0,1-5.539,12.782,99.12,99.12,0,0,1-7.289,12.384,63.047,63.047,0,0,1-4.731,6.021,44.37,44.37,0,0,1-6.158,5.752,30.973,30.973,0,0,1-4.013,2.6A26.274,26.274,0,0,1,546,201.786a22.76,22.76,0,0,1-6.007.948,21.854,21.854,0,0,1-6.365-.811,23.2,23.2,0,0,1-2.944-1.044l-.683-.308-.575-.281c-.2-.1-.361-.184-.541-.276s-.36-.185-.518-.273c-1.329-.719-2.469-1.412-3.558-2.1-2.163-1.378-4.109-2.744-6.016-4.124s-3.716-2.787-5.516-4.194-3.564-2.822-5.3-4.263-3.458-2.878-5.16-4.333-3.379-2.932-5.053-4.408-3.321-2.977-4.963-4.487l-2.453-2.278-1.219-1.155c-.413-.391-.8-.766-1.236-1.187Z" transform="translate(-487.893 -150.164)" fill="#faaf3a"/></g><g transform="translate(6.702 49.666)"><path d="M513.656,191.84a.585.585,0,0,1-.34-.107c-6.489-4.541-18.028-14.111-18.143-14.207a.593.593,0,0,1,.758-.912c.116.1,11.616,9.635,18.066,14.149a.593.593,0,0,1-.34,1.078Z" transform="translate(-494.96 -176.476)" fill="#c77e2e"/><g transform="translate(0.109 3.163)"><path d="M500.239,181.661a.527.527,0,0,1-.085-.007l-4.571-.664a.593.593,0,1,1,.17-1.173l4.571.664a.593.593,0,0,1-.084,1.18Z" transform="translate(-495.074 -179.811)" fill="#c77e2e"/></g></g><g transform="translate(73.133 34.217)"><path d="M579.489,168.062a.6.6,0,0,0-.408-1.126c-8.608,1.875-12.895-6.335-12.937-6.419a.6.6,0,0,0-.812-.264l0,0a.6.6,0,0,0-.259.81c.046.091,4.761,9.122,14.27,7.051A.606.606,0,0,0,579.489,168.062Z" transform="translate(-565.002 -160.187)" fill="#c77e2e"/></g><g transform="translate(82.312 34.493)"><path d="M575.563,168.235a.607.607,0,0,0,.277-.3l2.834-6.617a.6.6,0,1,0-1.111-.475l-2.834,6.617a.6.6,0,0,0,.834.773Z" transform="translate(-574.681 -160.479)" fill="#c77e2e"/></g><g transform="translate(78.001 34.358)"><path d="M570.254,161.867a1.046,1.046,0,1,0,.446-1.412A1.047,1.047,0,0,0,570.254,161.867Z" transform="translate(-570.135 -160.337)" fill="#c77e2e"/></g><g transform="translate(49.921 56.054)"><path d="M541.41,190.539a.6.6,0,0,0,.318-.437,26.086,26.086,0,0,1,1.762-6.011.6.6,0,1,0-1.076-.547,26.763,26.763,0,0,0-1.877,6.361.6.6,0,0,0,.874.634Z" transform="translate(-540.528 -183.212)" fill="#c77e2e"/><g transform="translate(1.693 0.542)"><path d="M545.423,189.21a.6.6,0,0,0,.11-.073.6.6,0,0,0,.075-.851,11.08,11.08,0,0,1-2.1-4.018.6.6,0,1,0-1.184.241,12.143,12.143,0,0,0,2.357,4.553A.6.6,0,0,0,545.423,189.21Z" transform="translate(-542.313 -183.784)" fill="#c77e2e"/></g></g></g></g></g></g></g><g transform="translate(41.824 126.279)"><g transform="translate(0 307.252)"><ellipse cx="137.371" cy="8.36" rx="137.371" ry="8.36" fill="#ced3e6"/></g><g transform="translate(18.009)"><g transform="translate(89.757 75.045)"><path d="M176.485,217.423l13.876,50.736-4.946-5.7a25.174,25.174,0,0,0,6.3,2.248,45.384,45.384,0,0,0,7.579.971c2.676.139,5.465.116,8.316,0s5.766-.333,8.725-.585h.015a7.93,7.93,0,0,1,1.922,15.733c-3.05.487-6.153.947-9.336,1.315s-6.446.644-9.825.721a63.228,63.228,0,0,1-10.5-.578,43.6,43.6,0,0,1-11.019-3.045,8.632,8.632,0,0,1-4.771-5.175l-.175-.527L156,223.635a10.706,10.706,0,1,1,20.311-6.777C176.372,217.035,176.436,217.246,176.485,217.423Z" transform="translate(-155.45 -209.539)" fill="#ea9b7a"/></g><g transform="translate(21.943)"><g transform="translate(0 101.643)"><g transform="translate(19.666 135.345)"><path d="M179.211,410.163a1.831,1.831,0,0,1-.622-.109L105.9,383.846a1.834,1.834,0,1,1,1.244-3.45L179.832,406.6a1.834,1.834,0,0,1-.621,3.559Z" transform="translate(-104.684 -380.287)" fill="#c77e2e"/></g><g transform="translate(16.647 134.913)"><path d="M103.334,410.14a1.834,1.834,0,0,1-.624-3.559l73.555-26.639a1.834,1.834,0,0,1,1.249,3.448L103.958,410.03A1.847,1.847,0,0,1,103.334,410.14Z" transform="translate(-101.5 -379.832)" fill="#c77e2e"/></g><g transform="translate(10.305 105.026)"><path d="M185.166,455.352a3.138,3.138,0,0,1-3.106-2.722L168.93,354.6H113.987l-12.925,98.029a3.138,3.138,0,0,1-6.222-.821l13.285-100.755a3.138,3.138,0,0,1,3.111-2.728h60.44a3.138,3.138,0,0,1,3.11,2.721L188.28,451.8a3.143,3.143,0,0,1-3.114,3.555Z" transform="translate(-94.813 -348.32)" fill="#faaf3a"/></g><path d="M153.61,345.747H114.357c-12.436,0-25.754-6.806-27.663-19.094A233.1,233.1,0,0,1,84.222,279.7,57.167,57.167,0,0,1,105.9,237.583h0s7.841,34.171-2.019,81.334C107.645,336.837,153.61,345.747,153.61,345.747Z" transform="translate(-83.948 -237.583)" fill="#faaf3a"/></g><g transform="translate(16.908)"><g transform="translate(8.311)"><path d="M146.8,139.805s-4.669-11.245-17.021-9.127c-8.634,1.48-12.312,12.238-11.8,28.847.741,24.175-7.438,38.743-7.438,38.743l10.854,2.467S149.022,159.294,146.8,139.805Z" transform="translate(-110.539 -130.413)" fill="#39393b"/></g><g transform="translate(30.523 155.966)"><path d="M247,410.587H229.471s-4.057-19.461-5.418-30.373-2.069-36.784-2.069-36.784-13.973,4.538-43.221,2.827c-64.806-3.785-40.233-51.4-40.233-51.4,2.19,3.024,15.6.927,24.769,2.372,28.136,2.7,52.537,13.743,67.181,20.061a72.985,72.985,0,0,1,9.407,4.823c3.531,2.177,5.74,8.779,7.071,17.463C250.959,365.682,247,410.587,247,410.587Z" transform="translate(-133.959 -294.86)" fill="#39393b"/><g transform="translate(4.596 0.748)"><path d="M231.9,401.25a.627.627,0,0,1-.615-.5c-2.529-12.519-3.378-28.1-4.06-40.621-.566-10.382-1.1-20.187-2.434-21.366-1.08-.954-5.565-.21-11.244.733-11.295,1.875-28.364,4.709-47.187.329-10.253-2.385-17.791-7.366-22.4-14.8-7.954-12.826-4.329-28.726-4.291-28.885a.628.628,0,0,1,1.222.288c-.036.155-3.54,15.568,4.142,27.945,4.431,7.138,11.7,11.927,21.616,14.233,18.58,4.323,35.5,1.515,46.7-.344,6.705-1.113,10.752-1.786,12.28-.435,1.65,1.458,2.114,8.628,2.856,22.238.681,12.48,1.527,28.012,4.037,40.441a.627.627,0,0,1-.49.74A.636.636,0,0,1,231.9,401.25Z" transform="translate(-138.804 -295.649)" fill="#585859"/></g><g transform="translate(93.255 105.006)"><path d="M252.409,407.249H252.4l-19.5-.418a.628.628,0,0,1-.614-.641.619.619,0,0,1,.641-.614l19.5.418a.627.627,0,0,1-.013,1.255Z" transform="translate(-232.285 -405.575)" fill="#585859"/></g><g transform="translate(95.634 115.727)"><g transform="translate(0.863)"><path d="M251.767,439.343H239.392l-2.383-14.519-1.305-7.944h15.375l.244,7.944Z" transform="translate(-235.703 -416.879)" fill="#ea9b7a"/></g><g transform="translate(2.168 7.944)"><path d="M251.838,439.775H239.463l-1.775-10.809-.608-3.71h14.314l.119,3.846Z" transform="translate(-237.079 -425.256)" fill="#faaf3a"/><path d="M251.512,429.1l-13.824-.136-.608-3.71h14.314Z" transform="translate(-237.079 -425.256)" fill="#c77e2e"/></g><g transform="translate(0 19.023)"><path d="M282.259,459.922H235.451a6.555,6.555,0,0,1-.615-2.6c-.293-3.96.968-10.278,1.588-14.262.076-.467.14-.9.19-1.293a13.771,13.771,0,0,0,.14-1.628c0-3.25,2.878-2.694,2.878-2.694,4.736,4.645,10.1-2.319,13.232-.035,0,0,.127.093.414.318.264.207.663.528,1.217.994.8.667,1.918,1.635,3.434,3,3.714,3.343,10.034,5.55,15.416,7.8.687.287,1.323.574,1.914.858.449.216.872.434,1.27.65,4.4,2.375,5.8,4.644,6.115,6.294A3.65,3.65,0,0,1,282.259,459.922Z" transform="translate(-234.793 -436.937)" fill="#0875f7"/><g transform="translate(13.661 0.792)"><path d="M277.27,451.072c-1.205.96-3.887,2.879-6.037,2.879-.1,0-.191,0-.283-.01-1.519-.127-7.1-2.869-11.635-5.362-2.6-1.43-4.976-2.837-6.685-3.964-2.8-1.847-3.287-2.552-3.4-3.042-.41-1.847,2.644-3.135,4.786-3.8.264.207.663.528,1.217.994-2.659.725-4.845,1.862-4.743,2.509.261.548,3.03,2.659,9.655,6.285,5.054,2.766,9.847,5,10.91,5.091,1.442.117,3.559-1.2,4.942-2.229C276.449,450.638,276.872,450.857,277.27,451.072Z" transform="translate(-249.197 -437.772)" fill="#084fc7"/></g><g transform="translate(0.043 20.385)"><path d="M282.261,461.031H235.455a6.558,6.558,0,0,1-.616-2.6h47.807A3.658,3.658,0,0,1,282.261,461.031Z" transform="translate(-234.839 -458.431)" fill="#084fc7"/></g><g transform="translate(1.631 4.831)"><path d="M240.316,460.185h-1.39a10.274,10.274,0,0,0,2.516-7.495,13.2,13.2,0,0,0-4.929-9.367c.076-.466.139-.9.19-1.293a14.337,14.337,0,0,1,5.854,10.6A11.353,11.353,0,0,1,240.316,460.185Z" transform="translate(-236.513 -442.031)" fill="#084fc7"/></g><g transform="translate(21.57 5.275)"><path d="M258.307,444.769a.771.771,0,0,1-.185-1.52l2.924-.726a.771.771,0,1,1,.371,1.5l-2.923.726A.793.793,0,0,1,258.307,444.769Z" transform="translate(-257.536 -442.5)" fill="#fff"/></g><g transform="translate(18.665 2.841)"><path d="M255.243,442.2a.772.772,0,0,1-.185-1.52l2.924-.727a.772.772,0,0,1,.372,1.5l-2.924.726A.747.747,0,0,1,255.243,442.2Z" transform="translate(-254.473 -439.933)" fill="#fff"/></g><g transform="translate(24.494 6.975)"><path d="M261.39,446.561a.771.771,0,0,1-.185-1.519l2.923-.727a.772.772,0,1,1,.372,1.5l-2.924.726A.779.779,0,0,1,261.39,446.561Z" transform="translate(-260.619 -444.292)" fill="#fff"/></g><g transform="translate(27.418 8.609)"><path d="M264.473,448.284a.772.772,0,0,1-.186-1.52l2.924-.726a.771.771,0,1,1,.372,1.5l-2.924.726A.745.745,0,0,1,264.473,448.284Z" transform="translate(-263.702 -446.015)" fill="#fff"/></g><g transform="translate(30.606 10.12)"><path d="M267.834,449.877a.771.771,0,0,1-.185-1.52l2.924-.726a.771.771,0,1,1,.371,1.5l-2.923.727A.791.791,0,0,1,267.834,449.877Z" transform="translate(-267.063 -447.608)" fill="#fff"/></g><g transform="translate(34.064 11.409)"><path d="M271.479,451.236a.772.772,0,0,1-.185-1.52l2.924-.726a.771.771,0,1,1,.372,1.5l-2.924.726A.748.748,0,0,1,271.479,451.236Z" transform="translate(-270.709 -448.967)" fill="#fff"/></g></g></g></g><g transform="translate(0.144 8.203)"><g transform="translate(2.478 127.376)"><path d="M104.558,278.658s-.555,3.78,4.512,4.844l52.8,1.76a5.954,5.954,0,0,0,2.925-6.216S142.5,266.525,104.558,278.658Z" transform="translate(-104.54 -273.364)" fill="#084fc7"/></g><g transform="translate(3.197 128.443)"><path d="M162.637,296.181c-27.41,15.076-57.338,2.936-57.338,2.936a83.3,83.3,0,0,0,3.336-12.6c.913-4.768,1.426-8.978,1.659-11.191,11.661-.64,40.24-1.855,51.438.8l.089,4.487Z" transform="translate(-105.299 -274.489)" fill="#ea9b7a"/><g transform="translate(34.913 11.746)"><path d="M144.29,289.588c-.2,1.413-.841,2.491-1.426,2.407s-.894-1.3-.691-2.711.841-2.492,1.426-2.407S144.492,288.175,144.29,289.588Z" transform="translate(-142.11 -286.873)" fill="#d96c63"/></g><g transform="translate(3.336)"><path d="M162,280.617c-11.671-.709-34.64-.955-53.186,5.9.913-4.768,1.426-8.978,1.659-11.191,11.661-.64,40.24-1.855,51.438.8Z" transform="translate(-108.816 -274.489)" fill="#d96c63"/></g></g><g transform="translate(0 52.643)"><g transform="translate(0.357 0.569)"><path d="M174.688,254.84a6.482,6.482,0,0,1-.394.952c-.056.112-.114.224-.175.333a25.906,25.906,0,0,1-5.643,6.761c-.4.347-.776.666-1.128.952-.7.571-1.3,1.014-1.709,1.307-.377.27-.6.41-.6.41,0,.026,0,.051-.007.082-.022.2-.038.417-.056.643-.065.862-.124,1.891-.166,3.062-.037.944-.063,1.977-.088,3.088-.014.825-.03,1.686-.04,2.584-15.491-6.92-47.391-2.553-60.24-.389q.353-1.667.647-3.259a101.5,101.5,0,0,0,1.622-13.264,139.625,139.625,0,0,0-1.459-23.857c-.079-.594-.163-1.183-.249-1.776-.055-.387-.114-.771-.176-1.158-.438-2.867-.948-5.739-1.531-8.524-2.533-12.155-.754-24.913,11.569-26.422.894-.11,1.777-.21,2.632-.3,5.808-.62,10.587-.832,11.915-.883l.368-.014,23.824,6.92,2.267.657c1.3.419,2.506.824,3.619,1.22.475.173.936.34,1.379.506,1.155.433,2.2.857,3.154,1.277a26.357,26.357,0,0,1,4.613,2.515c5.227,3.71,4.416,7.9,4.283,16.182,0,.038,0,.075,0,.112,0,.105,0,.21,0,.32,0,.046,0,.095,0,.141,0,.339,0,.676,0,1.014q.01,1.6.109,3.2c.088,1.563.229,3.117.4,4.64q.1.916.212,1.819c.07.566.142,1.13.217,1.686C174.8,244.62,175.984,250.972,174.688,254.84Z" transform="translate(-102.304 -195.167)" fill="#0875f7"/></g><g transform="translate(64.889 29.953)"><path d="M176.427,226.153c0,.105,0,.21,0,.32,0,.046,0,.095,0,.141,0,.339,0,.676,0,1.014l-5.006,3.141a.7.7,0,1,1-.743-1.183l5.308-3.331A.7.7,0,0,1,176.427,226.153Z" transform="translate(-170.345 -226.149)" fill="#084fc7"/></g><g transform="translate(37.265 51.181)"><path d="M141.918,254.122a.7.7,0,0,1-.468-1.219l4.659-4.192a.7.7,0,0,1,.934,1.039l-4.658,4.192A.7.7,0,0,1,141.918,254.122Z" transform="translate(-141.219 -248.532)" fill="#084fc7"/></g><g transform="translate(67.542 41.087)"><path d="M177.5,239.575l-3.191,2.872a.7.7,0,1,1-.937-1.039l3.91-3.52C177.354,238.455,177.426,239.019,177.5,239.575Z" transform="translate(-173.143 -237.889)" fill="#084fc7"/></g><g transform="translate(28.392 38.818)"><path d="M131.989,236.593a.7.7,0,0,1,.734-1.078l6.1,1.437a.7.7,0,1,1-.322,1.36l-6.1-1.437A.7.7,0,0,1,131.989,236.593Z" transform="translate(-131.864 -235.496)" fill="#084fc7"/></g><g transform="translate(6.056 46.29)"><path d="M109.012,248.965a.7.7,0,0,1-.468-1.218l4.658-4.193a.7.7,0,1,1,.935,1.039l-4.659,4.192A.694.694,0,0,1,109.012,248.965Z" transform="translate(-108.313 -243.375)" fill="#084fc7"/></g><g transform="translate(60.935 50.405)"><path d="M166.212,248.191a.7.7,0,0,1,1.3-.058l2.5,5.746a.7.7,0,1,1-1.28.558l-2.5-5.746A.7.7,0,0,1,166.212,248.191Z" transform="translate(-166.176 -247.713)" fill="#084fc7"/></g><g transform="translate(68.281 59.088)"><path d="M178.382,258.022a6.48,6.48,0,0,1-.394.952c-.056.112-.114.224-.174.333l-3.4-1.074a.7.7,0,0,1-.457-.875.7.7,0,0,1,.876-.457Z" transform="translate(-173.922 -256.869)" fill="#084fc7"/></g><g transform="translate(48.668 60.739)"><path d="M158.082,258.613a.7.7,0,0,1,.588,1.165l-4.212,4.641a.7.7,0,1,1-1.035-.939l4.212-4.641A.7.7,0,0,1,158.082,258.613Z" transform="translate(-153.242 -258.609)" fill="#084fc7"/></g><g transform="translate(50.448 45.323)"><path d="M155.7,247.074a.7.7,0,0,1-.251-1.28l5.307-3.332a.7.7,0,1,1,.744,1.184l-5.308,3.332A.7.7,0,0,1,155.7,247.074Z" transform="translate(-155.119 -242.355)" fill="#084fc7"/></g><g transform="translate(46.96 28.949)"><path d="M158.891,226a.7.7,0,0,1-.6,1.16l-6.23-.678a.7.7,0,0,1,.152-1.389l6.229.679A.693.693,0,0,1,158.891,226Z" transform="translate(-151.441 -225.091)" fill="#084fc7"/></g><g transform="translate(45.331 15.814)"><path d="M149.744,211.775a.7.7,0,0,1,1.295-.165L154,217.131a.7.7,0,1,1-1.231.661l-2.966-5.521A.7.7,0,0,1,149.744,211.775Z" transform="translate(-149.724 -211.241)" fill="#084fc7"/></g><g transform="translate(64.533 66.199)"><path d="M171.966,266.455c-.4.347-.776.666-1.128.952l-.819-2.087a.7.7,0,0,1,1.3-.512Z" transform="translate(-169.97 -264.366)" fill="#084fc7"/></g><g transform="translate(9.163 56.642)"><path d="M111.672,255.319a.7.7,0,0,1,.852-.988l5.9,2.122a.7.7,0,0,1-.473,1.314l-5.9-2.122A.7.7,0,0,1,111.672,255.319Z" transform="translate(-111.589 -254.289)" fill="#084fc7"/></g><g transform="translate(6.737 65.641)"><path d="M114.429,263.778a.7.7,0,0,1,.457,1.223l-4.694,4.152a.7.7,0,0,1-.927-1.047l4.695-4.152A.7.7,0,0,1,114.429,263.778Z" transform="translate(-109.031 -263.778)" fill="#084fc7"/></g><g transform="translate(13.215 70.918)"><path d="M123.285,270.659a.7.7,0,0,1-.665,1.122l-6.178-1.052a.7.7,0,0,1,.235-1.378l6.177,1.053A.7.7,0,0,1,123.285,270.659Z" transform="translate(-115.861 -269.341)" fill="#084fc7"/></g><g transform="translate(25.781 12.684)"><path d="M129.136,208.823a.7.7,0,0,1,1.053-.77l5.267,3.4a.7.7,0,1,1-.758,1.174l-5.266-3.4A.7.7,0,0,1,129.136,208.823Z" transform="translate(-129.111 -207.941)" fill="#084fc7"/></g><g transform="translate(59.275 17.485)"><path d="M166.887,213.087a.7.7,0,0,1,.991.848l-2.1,5.906a.7.7,0,0,1-1.317-.467l2.1-5.906A.694.694,0,0,1,166.887,213.087Z" transform="translate(-164.425 -213.003)" fill="#084fc7"/></g><g transform="translate(54.436 9.365)"><path d="M163.811,204.948l-3.238,4.15a.7.7,0,1,1-1.1-.859l2.96-3.8C162.907,204.615,163.368,204.782,163.811,204.948Z" transform="translate(-159.324 -204.442)" fill="#084fc7"/></g><g transform="translate(27.244 65.18)"><path d="M130.682,265.3a.576.576,0,0,0,.722.361,32.914,32.914,0,0,1,20.905,1.1,35.672,35.672,0,0,0,14.133,3.026c.016-.227.033-.441.054-.643l.008-.081s.221-.141.6-.411a34.019,34.019,0,0,1-14.354-2.947,33.478,33.478,0,0,0-21.7-1.13A.571.571,0,0,0,130.682,265.3Z" transform="translate(-130.653 -263.292)" fill="#084fc7"/></g><g transform="translate(27.467 0.57)"><path d="M155.079,202.088c-1.333,2.069-4.09,4.414-9.666,4.009-7.693-.559-12.755-7.9-14.524-10.915.241-.009.367-.012.367-.012Z" transform="translate(-130.888 -195.169)" fill="#084fc7"/></g><g transform="translate(27.263)"><path d="M146.885,215.674a5.628,5.628,0,0,0,.681.1,5.931,5.931,0,0,0,5.121-1.833c3.7-4.042,2.18-13.255,2.114-13.646a.57.57,0,1,0-1.124.192c.015.09,1.492,9.056-1.832,12.685a4.791,4.791,0,0,1-4.186,1.466c-7.457-.6-15.807-19.535-15.892-19.725a.57.57,0,1,0-1.044.456C131.064,196.15,138.984,214.073,146.885,215.674Z" transform="translate(-130.674 -194.568)" fill="#fff"/></g><g transform="translate(66.594 13.663)"><path d="M172.241,208.973a41.574,41.574,0,0,0,4.381,20.967q-.125-2.1-.107-4.212c0-.046,0-.1,0-.142,0-.145.006-.287.009-.429C176.656,216.877,177.465,212.682,172.241,208.973Z" transform="translate(-172.143 -208.973)" fill="#ea9b7a"/></g><g transform="translate(0.356 1.466)"><path d="M124.815,217.927c-2.733,10.546-12.725,19.008-19.559,16.368-.082-.593-.165-1.183-.251-1.776-.056-.386-.115-.77-.175-1.158-.437-2.867-.95-5.738-1.532-8.524-2.533-12.154-.754-24.912,11.568-26.422.9-.109,1.777-.21,2.634-.3C123.669,198.742,127.963,205.783,124.815,217.927Z" transform="translate(-102.303 -196.113)" fill="#ea9b7a"/></g><g transform="translate(0 6.139)"><path d="M126.2,210.139l16.014,58.555-5.708-6.58a29.118,29.118,0,0,0,7.271,2.595,52.621,52.621,0,0,0,8.747,1.121c3.087.16,6.307.133,9.6,0s6.655-.384,10.069-.675h.018a9.152,9.152,0,0,1,2.218,18.157c-3.521.561-7.1,1.093-10.775,1.517s-7.439.744-11.339.832a73.087,73.087,0,0,1-12.113-.667,50.293,50.293,0,0,1-12.717-3.515,9.959,9.959,0,0,1-5.5-5.972l-.2-.608-19.212-57.585a12.355,12.355,0,0,1,23.44-7.82C126.075,209.692,126.148,209.934,126.2,210.139Z" transform="translate(-101.928 -201.04)" fill="#ea9b7a"/></g><g transform="translate(30.968 67.244)"><g transform="translate(0 1.441)"><path d="M135.055,270.221a.475.475,0,0,1-.236-.887,19.991,19.991,0,0,1,7.314-2.345.474.474,0,1,1,.073.946,19.379,19.379,0,0,0-6.918,2.224A.476.476,0,0,1,135.055,270.221Z" transform="translate(-134.58 -266.988)" fill="#d96c63"/></g><g transform="translate(0.699)"><path d="M140.911,268.029a.472.472,0,0,1-.245-.069,12.493,12.493,0,0,0-4.909-1.545.474.474,0,0,1,.067-.946,13.279,13.279,0,0,1,5.333,1.68.475.475,0,0,1-.247.88Z" transform="translate(-135.317 -265.468)" fill="#d96c63"/></g></g><g transform="translate(32.162 23.503)"><path d="M155.218,234.787c7.088,1.436,10.188-5.892,10.218-5.967a.571.571,0,0,0-1.056-.433c-.114.277-2.785,6.529-8.936,5.282-6.455-1.308-18.5-14.012-18.621-14.14a.57.57,0,0,0-.83.782C136.5,220.845,148.411,233.408,155.218,234.787Z" transform="translate(-135.839 -219.349)" fill="#084fc7"/></g></g><g transform="translate(23.255)"><g transform="translate(1.145 0.598)"><path d="M143.655,184.56s-11.373-2.141-14.578-13.618c-3.053-10.928-.7-16.6,2.472-22.5,2.392-4.445,9.976-10.453,20.613-8.3,10.74,2.177,18.767,7.688,19.953,16.518C174.335,173.187,161,193.345,143.655,184.56Z" transform="translate(-127.655 -139.693)" fill="#39393b"/></g><path d="M129.555,172.679a.593.593,0,0,1-.516-.3,25.75,25.75,0,0,1-1.02-20.291,18.566,18.566,0,0,1,11.037-11.648,19.943,19.943,0,0,1,7.439-1.373.593.593,0,1,1-.058,1.185h0a19.107,19.107,0,0,0-7,1.312,17.238,17.238,0,0,0-10.3,10.918,25.022,25.022,0,0,0,.93,19.31.593.593,0,0,1-.514.886Z" transform="translate(-126.448 -139.062)" fill="#faaf3a"/><g transform="translate(2.643 4.979)"><g transform="translate(35.154 27.767)"><path d="M167.706,174.646s3.7-2.923,4.674.947-1.773,10.749-6.079,8.659Z" transform="translate(-166.3 -173.588)" fill="#d96c63"/></g><g transform="translate(28.959 35.833)"><path d="M163.756,182.2a5.88,5.88,0,0,0-3.877,4.262,5.573,5.573,0,1,0,8.614-3.489,5.515,5.515,0,0,0-2.045-.866l-.055-.009a.913.913,0,0,0,.155.922,4.707,4.707,0,1,1-5.821,3.614,4.571,4.571,0,0,1,3.467-3.577Z" transform="translate(-159.767 -182.093)" fill="#faaf3a"/></g><g transform="translate(3.295 36.458)"><path d="M154.761,191.7l-1.551,9.688s-7.253,7.4-20.5-5.878c3.558-2.65,4.915-8.788,4.5-12.757a19.249,19.249,0,0,1,2.654,2.085,10.414,10.414,0,0,0,1.113.776C144.475,187.995,149.84,191.093,154.761,191.7Z" transform="translate(-132.708 -182.752)" fill="#ea9b7a"/><g transform="translate(7.153 2.085)"><path d="M155.15,191.813l-.735,4.593c-3.974-1.771-11-5.558-14.165-11.456q.518.37,1.113.776C144.864,188.108,150.229,191.207,155.15,191.813Z" transform="translate(-140.25 -184.95)" fill="#39393b"/></g></g><g transform="translate(7.783 4.631)"><path d="M169.8,171.053c-.207,1.025-.4,2-.595,2.928q-.31,1.511-.605,2.849c-1.466,6.706-2.676,10.3-4.632,11.642-9.89,6.8-25.988-6.971-26.506-7.415l-.013-.013c-.013-.789-.013-1.572,0-2.341a60.509,60.509,0,0,1,2.993-17.8,13.664,13.664,0,0,1,11.384-11.553c6.127-.922,10.735,2.624,13.618,4.193C169.8,155.912,171.506,162.5,169.8,171.053Z" transform="translate(-137.441 -149.195)" fill="#ea9b7a"/></g><g transform="translate(10.97)"><path d="M140.959,154.565s6.922-13.313,20.732-9.6S176.234,155.1,176.477,158.3s-7.151-2.474-7.151-2.474-.253,6.414-2.718,4.438c-3.023-2.423-6.406-7.654-6.406-7.654s-8.224,8.083-16.04,5.9C139.723,157.277,140.959,154.565,140.959,154.565Z" transform="translate(-140.801 -144.312)" fill="#39393b"/></g><g transform="translate(24.867 37.406)"><path d="M158.68,185.894a4.652,4.652,0,0,1-3.087-1.3.494.494,0,0,1,.708-.689,3.414,3.414,0,0,0,3.368.837.493.493,0,1,1,.32.933A4.024,4.024,0,0,1,158.68,185.894Z" transform="translate(-155.453 -183.752)" fill="#d96c63"/></g><g transform="translate(23.947 31.486)"><path d="M154.494,177.51s6.661,1.974,10.114,1.974c0,0-1.727,4.934-6.66,3.207A5.075,5.075,0,0,1,154.494,177.51Z" transform="translate(-154.484 -177.51)" fill="#fff"/></g><g transform="translate(34.84 17.618)"><path d="M167.449,162.894s-1.73-.176-1.449,1.5,4.032.652,5.886,4.01C171.885,168.4,173.677,164.883,167.449,162.894Z" transform="translate(-165.969 -162.888)" fill="#39393b"/></g><g transform="translate(22.399 16.005)"><path d="M159.084,161.248s1.663.512.752,1.946-3.967-.969-6.983,1.4C152.853,164.6,152.573,160.656,159.084,161.248Z" transform="translate(-152.851 -161.187)" fill="#39393b"/></g><g transform="translate(18.336 25.734)"><path d="M155.861,173.794c-.161.792-1.921,1.1-3.932.7s-3.511-1.38-3.351-2.171,1.921-1.1,3.932-.7S156.022,173,155.861,173.794Z" transform="translate(-148.567 -171.445)" fill="#d96c63"/></g><g transform="translate(9.104 17.224)"><g transform="translate(30.629 10.463)"><path d="M176.679,174.422l-5.379-.917a6.8,6.8,0,0,1-.135.675.571.571,0,0,1-.039.109l5.417.924a.4.4,0,0,0,.463-.328A.392.392,0,0,0,176.679,174.422Z" transform="translate(-171.127 -173.505)" fill="#fff"/></g><g transform="translate(8.271)"><path d="M161.106,169.259a6.019,6.019,0,0,0-.049-.818,6.785,6.785,0,0,0-1.812-3.851,6.711,6.711,0,0,0-3.475-1.96.42.42,0,0,0-.066-.016,6.786,6.786,0,0,0-7.531,3.813,5.842,5.842,0,0,0-.29.752,6.443,6.443,0,0,0-.186.7,6.776,6.776,0,0,0,13.27,2.744l0-.018A6.7,6.7,0,0,0,161.106,169.259Zm-7.984,5.839c-.033-.007-.064-.013-.1-.023a5.963,5.963,0,0,1-4.286-7.92.419.419,0,0,0,.02-.054,5.986,5.986,0,0,1,5.215-3.815,5.957,5.957,0,0,1,4.476,1.642,5.97,5.97,0,0,1-5.327,10.17Z" transform="translate(-147.554 -162.473)" fill="#fff"/></g><g transform="translate(23.943 3.239)"><path d="M174.005,166.666c-.183-.1-.37-.184-.564-.266a6.385,6.385,0,0,0-.707-.243c-.167-.05-.335-.091-.508-.128a6.744,6.744,0,0,0-.949-.127,6.529,6.529,0,0,0-1.132.025,6.789,6.789,0,0,0-5.186,3.4,6.094,6.094,0,0,0-.385.791.2.2,0,0,0-.015.044,6.6,6.6,0,0,0-.339,1.128,6.782,6.782,0,0,0,2.493,6.733,6.7,6.7,0,0,0,2.2,1.131c.124.037.249.071.377.1.062.019.126.032.191.046a6.7,6.7,0,0,0,1.941.115c.1-.006.2-.017.3-.03a6.828,6.828,0,0,0,2.274-.722,6.773,6.773,0,0,0,0-12Zm2.7,7.206c-.027.129-.055.256-.093.379a4.566,4.566,0,0,1-.173.527,5.95,5.95,0,0,1-2.444,2.962,6.079,6.079,0,0,1-1.287.6,6.014,6.014,0,0,1-.871.213c-.087.014-.171.027-.258.035a5.929,5.929,0,0,1-1.935-.078l-.178-.039c-.036-.009-.072-.019-.108-.026a5.931,5.931,0,0,1-2.5-1.353q-.155-.137-.3-.287A5.962,5.962,0,0,1,165,171.455a6.083,6.083,0,0,1,.419-1.28,6.006,6.006,0,0,1,5.434-3.486c.144,0,.287.009.435.018a5.891,5.891,0,0,1,.77.108c.186.04.369.084.546.139a5.71,5.71,0,0,1,.721.275,5.332,5.332,0,0,1,.538.278A5.982,5.982,0,0,1,176.7,173.872Z" transform="translate(-164.078 -165.887)" fill="#fff"/></g><g transform="translate(0 2.577)"><path d="M139.154,167.786a.39.39,0,0,1-.136-.055.4.4,0,0,1-.121-.554c2.693-4.209,9.167-.431,9.232-.392a.4.4,0,0,1-.41.69c-.059-.035-5.871-3.423-8.146.135A.4.4,0,0,1,139.154,167.786Z" transform="translate(-138.833 -165.189)" fill="#fff"/></g></g><g transform="translate(30.333 23.086)"><path d="M164.722,170.5a.4.4,0,0,1-.255-.175c-.861-1.33-2.7-.734-2.723-.727a.4.4,0,0,1-.254-.761,3.179,3.179,0,0,1,3.65,1.052.4.4,0,0,1-.418.611Z" transform="translate(-161.216 -168.653)" fill="#fff"/></g><g transform="translate(35.936 29.299)" opacity="0.8"><path d="M170.738,175.322q-.31,1.511-.605,2.849c-1.829-.442-3.147-1.348-3-2.093S168.869,175.012,170.738,175.322Z" transform="translate(-167.124 -175.204)" fill="#d96c63"/></g><g transform="translate(24.771 21.904)"><path d="M157.624,169.611c-.22,1.087-.892,1.868-1.5,1.745s-.923-1.1-.7-2.192.892-1.868,1.5-1.745S157.844,168.524,157.624,169.611Z" transform="translate(-155.352 -167.407)" fill="#39393b"/><g transform="translate(10.755 2.179)"><path d="M168.964,171.908c-.22,1.088-.892,1.869-1.5,1.746s-.923-1.1-.7-2.192.892-1.868,1.5-1.745S169.184,170.821,168.964,171.908Z" transform="translate(-166.692 -169.704)" fill="#39393b"/></g><g transform="translate(5.346 1.402)"><path d="M163.118,174.784a4,4,0,0,0,.922.088.455.455,0,0,0,.429-.518l-.693-5.076a.457.457,0,0,0-.9.124l.618,4.519a3.593,3.593,0,0,1-1.752-.765.456.456,0,1,0-.583.7A4.448,4.448,0,0,0,163.118,174.784Z" transform="translate(-160.989 -168.885)" fill="#39393b"/></g></g><g transform="translate(7.784 32.8)"><path d="M141.894,178.9c-.076.111-2.178,3.136-4.43,3.693h0l-.009-.013c-.015-.791-.013-1.572,0-2.343A8.489,8.489,0,0,0,141.894,178.9Z" transform="translate(-137.441 -178.895)" fill="#39393b"/></g><g transform="translate(3.068 20.83)"><path d="M141.176,170.291s-3.163-6.719-7.277-2.776c-3.39,3.249-.425,14.107,5.453,11.783Z" transform="translate(-132.469 -166.274)" fill="#ea9b7a"/></g><g transform="translate(0 30.537)"><path d="M133.222,176.611a5.88,5.88,0,0,0-3.876,4.261,5.57,5.57,0,1,0,6.568-4.355l-.054-.009a.913.913,0,0,0,.154.921,4.64,4.64,0,0,1,1.638.8,4.706,4.706,0,1,1-7.458,2.815,4.572,4.572,0,0,1,3.467-3.577Z" transform="translate(-129.234 -176.509)" fill="#faaf3a"/></g><g transform="translate(6.021 23.747)"><path d="M139.273,177.579a.463.463,0,0,0,.546-.406,8.539,8.539,0,0,0-3.531-7.749.456.456,0,0,0-.5.764h0a7.621,7.621,0,0,1,3.121,6.9A.458.458,0,0,0,139.273,177.579Z" transform="translate(-135.583 -169.35)" fill="#39393b"/></g><g transform="translate(5.722 26.927)"><path d="M135.633,174.194a.45.45,0,0,0,.3-.043,3.576,3.576,0,0,1,2.52-.418.456.456,0,0,0,.4-.821c-1.276-.616-3.134.322-3.341.432a.456.456,0,0,0,.121.851Z" transform="translate(-135.267 -172.704)" fill="#39393b"/></g></g><g transform="translate(11.847 15.318)"><path d="M145.591,158.328s-4.257,11.561-4.49,13.89c-.317,3.175-4.515-7.706-.289-17Z" transform="translate(-138.939 -155.213)" fill="#39393b"/></g></g></g><g transform="translate(0 156.026)"><path d="M214.819,410.65H197.288s-4.057-19.461-5.418-30.373-2.069-36.784-2.069-36.784-13.974,4.538-43.221,2.828c-64.806-3.786-40.233-51.4-40.233-51.4,2.19,3.025,18.613,7.192,27.78,8.637,28.136,2.7,49.526,7.478,64.17,13.8a72.968,72.968,0,0,1,9.407,4.824c3.532,2.177,5.74,8.779,7.072,17.463C218.775,365.745,214.819,410.65,214.819,410.65Z" transform="translate(-101.776 -294.923)" fill="#39393b"/><g transform="translate(4.595 0.749)"><path d="M199.711,401.314a.629.629,0,0,1-.615-.5c-2.528-12.519-3.377-28.1-4.06-40.621-.565-10.382-1.1-20.187-2.434-21.366-1.08-.954-5.565-.21-11.244.733-11.295,1.875-28.364,4.709-47.187.329-10.253-2.386-17.791-7.366-22.4-14.8-7.955-12.826-4.329-28.727-4.291-28.886a.628.628,0,0,1,1.222.288c-.036.155-3.541,15.568,4.141,27.945,4.431,7.139,11.7,11.927,21.616,14.234,18.581,4.323,35.5,1.514,46.7-.345,6.706-1.113,10.753-1.785,12.28-.434,1.65,1.458,2.115,8.628,2.857,22.238.68,12.479,1.527,28.011,4.037,40.441a.632.632,0,0,1-.617.752Z" transform="translate(-106.621 -295.713)" fill="#585859"/></g><g transform="translate(93.254 105.006)"><path d="M220.226,407.313h-.013l-19.5-.419a.628.628,0,1,1,.027-1.255l19.5.419a.627.627,0,0,1-.013,1.255Z" transform="translate(-200.101 -405.638)" fill="#585859"/></g></g><g transform="translate(95.634 271.754)"><g transform="translate(0.863)"><path d="M219.584,439.406H207.209l-2.384-14.519-1.305-7.944H218.9l.244,7.944Z" transform="translate(-203.52 -416.943)" fill="#ea9b7a"/></g><g transform="translate(2.168 7.944)"><path d="M219.655,439.838H207.28L205.5,429.03l-.608-3.71H219.21l.119,3.846Z" transform="translate(-204.896 -425.319)" fill="#faaf3a"/><path d="M219.329,429.165,205.5,429.03l-.608-3.71H219.21Z" transform="translate(-204.896 -425.319)" fill="#c77e2e"/></g><g transform="translate(0 19.024)"><path d="M250.076,459.986H203.268a6.559,6.559,0,0,1-.615-2.6c-.294-3.961.968-10.278,1.588-14.262.075-.466.14-.9.19-1.292a13.774,13.774,0,0,0,.14-1.628c0-3.251,2.878-2.694,2.878-2.694,4.736,4.646,10.1-2.319,13.231-.034,0,0,.128.093.414.317.263.207.662.528,1.217.995.8.666,1.918,1.635,3.433,3,3.715,3.343,10.035,5.55,15.417,7.8q1.029.43,1.913.858c.449.215.872.433,1.271.65,4.4,2.375,5.8,4.643,6.115,6.294A3.658,3.658,0,0,1,250.076,459.986Z" transform="translate(-202.61 -437.001)" fill="#0875f7"/><g transform="translate(13.66 0.791)"><path d="M245.087,451.136c-1.205.96-3.887,2.879-6.038,2.879-.095,0-.19,0-.283-.011-1.518-.127-7.1-2.868-11.635-5.362-2.6-1.43-4.975-2.836-6.685-3.964-2.8-1.847-3.287-2.551-3.4-3.042-.41-1.846,2.645-3.134,4.787-3.8.263.207.662.528,1.217.995-2.66.725-4.845,1.861-4.743,2.509.261.547,3.03,2.659,9.654,6.285,5.054,2.766,9.848,5,10.911,5.09,1.441.117,3.559-1.2,4.941-2.228C244.265,450.7,244.688,450.92,245.087,451.136Z" transform="translate(-217.013 -437.835)" fill="#084fc7"/></g><g transform="translate(0.044 20.386)"><path d="M250.077,461.095H203.272a6.542,6.542,0,0,1-.616-2.6h47.807A3.657,3.657,0,0,1,250.077,461.095Z" transform="translate(-202.656 -458.495)" fill="#084fc7"/></g><g transform="translate(1.631 4.83)"><path d="M208.133,460.249h-1.39a10.276,10.276,0,0,0,2.516-7.5,13.2,13.2,0,0,0-4.929-9.367c.075-.465.139-.9.19-1.293a14.345,14.345,0,0,1,5.854,10.6A11.36,11.36,0,0,1,208.133,460.249Z" transform="translate(-204.33 -442.094)" fill="#084fc7"/></g><g transform="translate(21.57 5.276)"><path d="M226.124,444.833a.772.772,0,0,1-.186-1.52l2.924-.726a.771.771,0,0,1,.372,1.5l-2.924.727A.791.791,0,0,1,226.124,444.833Z" transform="translate(-225.353 -442.564)" fill="#fff"/></g><g transform="translate(18.664 2.841)"><path d="M223.06,442.266a.771.771,0,0,1-.185-1.52l2.924-.726a.771.771,0,1,1,.371,1.5l-2.923.726A.791.791,0,0,1,223.06,442.266Z" transform="translate(-222.289 -439.997)" fill="#fff"/></g><g transform="translate(24.494 6.975)"><path d="M229.206,446.625a.772.772,0,0,1-.185-1.52l2.924-.726a.771.771,0,0,1,.372,1.5l-2.924.726A.748.748,0,0,1,229.206,446.625Z" transform="translate(-228.436 -444.356)" fill="#fff"/></g><g transform="translate(27.418 8.609)"><path d="M232.289,448.347a.771.771,0,0,1-.185-1.519l2.924-.727a.772.772,0,0,1,.372,1.5l-2.924.726A.793.793,0,0,1,232.289,448.347Z" transform="translate(-231.519 -446.078)" fill="#fff"/></g><g transform="translate(30.606 10.12)"><path d="M235.651,449.94a.771.771,0,0,1-.186-1.519l2.924-.726a.771.771,0,1,1,.372,1.5l-2.924.726A.739.739,0,0,1,235.651,449.94Z" transform="translate(-234.88 -447.672)" fill="#fff"/></g><g transform="translate(34.063 11.408)"><path d="M239.3,451.3a.771.771,0,0,1-.185-1.52l2.924-.726a.771.771,0,0,1,.372,1.5l-2.924.727A.793.793,0,0,1,239.3,451.3Z" transform="translate(-238.525 -449.03)" fill="#fff"/></g></g></g></g></g><g transform="translate(0 151.281)"><g transform="translate(0.402)"><path d="M277.316,293.967v3.887c0,2.236-1.352,4.049-3.02,4.049H64.255c-1.667,0-3.019-1.812-3.019-4.049v-3.887c0-2.235,1.352-4.047,3.019-4.047H274.3C275.964,289.92,277.316,291.732,277.316,293.967Z" transform="translate(-61.236 -289.92)" fill="#21b573"/></g><g transform="translate(0.402 5.278)"><rect width="216.08" height="1.778" fill="#217c58"/></g><g transform="translate(11.132 11.936)"><path d="M271.587,312.541H74.15a1.6,1.6,0,0,1-1.6-1.6v-8.436H273.188v8.436A1.6,1.6,0,0,1,271.587,312.541Z" transform="translate(-72.549 -302.505)" fill="#217c58"/></g><g transform="translate(24.737 71.523)"><rect width="176.566" height="6.881" fill="#217c58"/></g><g transform="translate(0 21.973)"><path d="M72.817,454.821,107,313.087H95L60.812,454.821Z" transform="translate(-60.812 -313.087)" fill="#21b573"/></g><g transform="translate(179.615 21.973)"><path d="M284.377,454.821,250.193,313.087H262.2l34.184,141.733Z" transform="translate(-250.193 -313.087)" fill="#21b573"/></g></g><g transform="translate(13.747 114.771)"><g transform="translate(2.133)"><g transform="translate(0 0.196)"><g transform="translate(0 3.728)"><rect width="3.75" height="28.271" transform="translate(0 0.568) rotate(-8.711)" fill="#faaf3a"/></g><g transform="translate(0)"><path d="M81.263,255.359l-3.707.568.816-2.831.423-1.465.842,1.271Z" transform="translate(-77.556 -251.631)" fill="#ea9b7a"/></g><g transform="translate(3.97 29.642)"><rect width="3.75" height="2.054" transform="translate(0 0.568) rotate(-8.711)" fill="#39393b"/></g><g transform="translate(4.281 31.673)"><path d="M85.777,286.682l-3.213.492a.25.25,0,0,1-.285-.209l-.21-1.372,3.706-.567.21,1.371A.249.249,0,0,1,85.777,286.682Z" transform="translate(-82.07 -285.026)" fill="#df615c"/></g><g transform="translate(0.816)"><path d="M79.681,252.9l-1.265.194.423-1.465Z" transform="translate(-78.416 -251.631)" fill="#39393b"/></g><g transform="translate(3.747 28.186)"><rect width="3.75" height="1.473" transform="translate(0 0.568) rotate(-8.708)" fill="#c77e2e"/></g><g transform="translate(1.129 5.202)"><path d="M78.75,257.445l3.17,20.695a.286.286,0,0,0,.327.239h0a.286.286,0,0,0,.24-.326l-3.171-20.695a.286.286,0,0,0-.326-.239h0A.286.286,0,0,0,78.75,257.445Z" transform="translate(-78.747 -257.115)" fill="#c77e2e"/></g><g transform="translate(2.579 4.978)"><path d="M80.279,257.209l3.17,20.695a.286.286,0,0,0,.326.24h0a.287.287,0,0,0,.24-.326l-3.17-20.695a.288.288,0,0,0-.327-.24h0A.286.286,0,0,0,80.279,257.209Z" transform="translate(-80.275 -256.88)" fill="#c77e2e"/></g></g><g transform="translate(6.659)"><g transform="translate(0 4.052)"><rect width="3.75" height="28.271" transform="translate(0 0.012) rotate(-0.188)" fill="#21b573"/></g><g transform="translate(0)"><path d="M88.327,255.477l-3.75.012,1.226-2.679.635-1.386.644,1.382Z" transform="translate(-84.576 -251.424)" fill="#ea9b7a"/></g><g transform="translate(0.086 30.269)"><rect width="3.75" height="2.054" transform="translate(0 0.012) rotate(-0.188)" fill="#39393b"/></g><g transform="translate(0.093 32.323)"><path d="M88.179,287.143l-3.25.01a.249.249,0,0,1-.25-.249l0-1.388,3.75-.012,0,1.388A.249.249,0,0,1,88.179,287.143Z" transform="translate(-84.674 -285.505)" fill="#df615c"/></g><g transform="translate(1.226)"><path d="M87.149,252.806l-1.28,0,.635-1.386Z" transform="translate(-85.87 -251.424)" fill="#39393b"/></g><g transform="translate(0.081 28.796)"><rect width="3.75" height="1.473" transform="translate(0 0.012) rotate(-0.188)" fill="#217c58"/></g><g transform="translate(0.937 5.167)"><path d="M85.564,257.16l.069,20.936a.287.287,0,0,0,.287.285h0a.287.287,0,0,0,.285-.288l-.068-20.935a.287.287,0,0,0-.287-.286h0A.288.288,0,0,0,85.564,257.16Z" transform="translate(-85.564 -256.872)" fill="#217c58"/></g><g transform="translate(2.404 5.161)"><path d="M87.111,257.153l.068,20.936a.286.286,0,0,0,.287.285h0a.286.286,0,0,0,.285-.287l-.068-20.936a.286.286,0,0,0-.287-.285h0A.286.286,0,0,0,87.111,257.153Z" transform="translate(-87.111 -256.866)" fill="#217c58"/></g></g><g transform="translate(8.992 0.169)"><g transform="translate(0.198 3.754)"><rect width="28.271" height="3.75" transform="translate(0 27.99) rotate(-81.915)" fill="#0875f7"/></g><g transform="translate(4.174)"><path d="M95.15,255.884l-3.713-.528,1.6-2.474.828-1.28.439,1.46Z" transform="translate(-91.437 -251.602)" fill="#ea9b7a"/></g><g transform="translate(0.198 29.711)"><rect width="3.75" height="2.054" transform="translate(0.289 0) rotate(8.085)" fill="#39393b"/></g><g transform="translate(0 31.745)"><path d="M90.469,287.186l-3.218-.457a.251.251,0,0,1-.212-.283l.2-1.373,3.713.527-.2,1.373A.251.251,0,0,1,90.469,287.186Z" transform="translate(-87.036 -285.073)" fill="#df615c"/></g><g transform="translate(5.773)"><path d="M94.391,253.063l-1.267-.18.828-1.28Z" transform="translate(-93.123 -251.602)" fill="#39393b"/></g><g transform="translate(0.487 28.252)"><rect width="1.473" height="3.75" transform="translate(0 1.458) rotate(-81.912)" fill="#084fc7"/></g><g transform="translate(1.953 5.019)"><path d="M92.044,257.14,89.1,277.868a.288.288,0,0,0,.244.324h0a.287.287,0,0,0,.323-.244l2.945-20.728a.285.285,0,0,0-.243-.323h0A.286.286,0,0,0,92.044,257.14Z" transform="translate(-89.096 -256.894)" fill="#084fc7"/></g><g transform="translate(3.406 5.224)"><path d="M93.576,257.356l-2.945,20.728a.287.287,0,0,0,.243.324h0a.287.287,0,0,0,.324-.244l2.945-20.728a.287.287,0,0,0-.244-.323h0A.285.285,0,0,0,93.576,257.356Z" transform="translate(-90.628 -257.11)" fill="#084fc7"/></g></g></g><g transform="translate(0 15.235)"><path d="M95.536,267.488l-.2,1.517-.178,1.376-.271,2.092-.175,1.361-.272,2.109-.175,1.344L94,279.414l-.171,1.325-.277,2.143-.168,1.31-.279,2.16-.168,1.293-.144,1.118H78.053l-.144-1.118-.168-1.293-.279-2.16-.168-1.31-.277-2.143-.171-1.325-.274-2.126-.175-1.344-.272-2.109-.175-1.361-.27-2.092L75.5,269l-.2-1.517Z" transform="translate(-75.307 -267.488)" fill="#df615c"/><g transform="translate(0.195 1.517)"><path d="M95.351,269.087l-.178,1.376H75.69l-.178-1.376Z" transform="translate(-75.512 -269.087)" fill="#b11722"/><g transform="translate(0.448 3.469)"><path d="M94.927,272.744l-.175,1.361H76.16l-.175-1.361Z" transform="translate(-75.985 -272.744)" fill="#b11722"/></g><g transform="translate(0.895 6.939)"><path d="M94.5,276.4l-.175,1.344h-17.7l-.175-1.344Z" transform="translate(-76.456 -276.403)" fill="#b11722"/></g><g transform="translate(1.344 10.409)"><path d="M94.08,280.062l-.171,1.325H77.1l-.171-1.325Z" transform="translate(-76.929 -280.062)" fill="#b11722"/></g><g transform="translate(1.793 13.878)"><path d="M93.656,283.719l-.168,1.31H77.57l-.168-1.31Z" transform="translate(-77.402 -283.719)" fill="#b11722"/></g><g transform="translate(2.239 17.348)"><path d="M93.234,287.378l-.168,1.293H78.041l-.168-1.293Z" transform="translate(-77.873 -287.378)" fill="#b11722"/></g></g></g></g><g transform="translate(91.416 71.895)"><g transform="translate(18.664)"><g transform="translate(0 0.001)"><path d="M282.056,210.439l-12.568,53.146-.331,1.4-.845,3.58a3.429,3.429,0,0,1-3.34,2.643H180.314a3.434,3.434,0,0,1-3.342-4.222l13.744-58.124a3.428,3.428,0,0,1,3.339-2.641h84.659A3.432,3.432,0,0,1,282.056,210.439Z" transform="translate(-176.878 -206.218)" fill="#39393b"/></g><g transform="translate(4.377 57.368)"><path d="M269.726,266.7l-.331,1.4h-87.9v-1.4Z" transform="translate(-181.493 -266.704)" fill="#585859"/></g><g transform="translate(23.793 6.332)"><path d="M215.725,219.713a8.6,8.6,0,0,1-8.093,6.821,5.5,5.5,0,0,1-5.548-6.821,8.6,8.6,0,0,1,8.094-6.82A5.5,5.5,0,0,1,215.725,219.713Z" transform="translate(-201.965 -212.893)" fill="#faaf3a"/><g transform="translate(4.818 4.151)"><path d="M208.283,218.634c-.14.754-.52,1.365-.847,1.365s-.48-.611-.339-1.365.52-1.364.847-1.364S208.424,217.881,208.283,218.634Z" transform="translate(-207.044 -217.27)" fill="#39393b"/><g transform="translate(3.559)"><path d="M212.036,218.634c-.141.754-.521,1.365-.848,1.365s-.479-.611-.339-1.365.52-1.364.848-1.364S212.176,217.881,212.036,218.634Z" transform="translate(-210.797 -217.27)" fill="#39393b"/></g></g><g transform="translate(3.321 6.82)"><path d="M208.525,223.405a3.025,3.025,0,0,1-3.059-2.962.37.37,0,0,1,.293-.353.243.243,0,0,1,.31.227,2.517,2.517,0,0,0,2.566,2.5,4.036,4.036,0,0,0,3.5-2.5.365.365,0,0,1,.4-.226.246.246,0,0,1,.16.352C212.677,220.474,211.458,223.405,208.525,223.405Z" transform="translate(-205.466 -220.084)" fill="#39393b"/></g></g><g transform="translate(76.687 41.276)"><path d="M257.736,253.458c.074,3.528,6.052,7.946,6.052,7.946s6.943-4.418,7.786-7.946c.915-3.824-3.453-5-6.688-2.114C262.281,248.46,257.655,249.634,257.736,253.458Z" transform="translate(-257.735 -249.737)" fill="#df615c"/></g><g transform="translate(50.753 28.143)"><path d="M243.68,242.514a7.587,7.587,0,0,1-7.354,6.624,5.819,5.819,0,0,1-5.894-6.624,7.587,7.587,0,0,1,7.354-6.624A5.82,5.82,0,0,1,243.68,242.514Z" transform="translate(-230.391 -235.89)" fill="#585859"/></g><g transform="translate(0)"><path d="M197.41,206.217l-14.631,64.988h-2.465a3.433,3.433,0,0,1-3.341-4.222l13.743-58.124a3.432,3.432,0,0,1,3.341-2.642Z" transform="translate(-176.878 -206.217)" fill="#585859"/></g><g transform="translate(42.486 64.988)"><path d="M224.242,274.738l-2.568,14.442h8.482l2.568-14.442Z" transform="translate(-221.674 -274.738)" fill="#fff"/></g><g transform="translate(29.497 73.114)"><path d="M208.273,287.138l1.737-2.441a3.306,3.306,0,0,1,2.693-1.389H235.96a3.306,3.306,0,0,1,2.929,1.774l1.17,2.24a1.573,1.573,0,0,1-1.393,2.3H209.554A1.573,1.573,0,0,1,208.273,287.138Z" transform="translate(-207.979 -283.307)" fill="#fff"/></g></g><g transform="translate(0 73.477)"><path d="M157.2,289.636H227.06l.759-2.636a2.594,2.594,0,0,0-2.493-3.311H160.863a2.593,2.593,0,0,0-2.492,1.876Z" transform="translate(-157.199 -283.689)" fill="#fff"/></g></g><g transform="translate(149.958 31.209)"><rect width="35.239" height="23.325" rx="2.288" fill="#df615c"/><g transform="translate(23.477 19.831)"><path d="M251.421,184.229l-2.82,10.64-4.924-10Z" transform="translate(-243.677 -184.229)" fill="#df615c"/></g><g transform="translate(9.756 5.724)"><path d="M244.877,173.57c-.631,3.987-8.071,8.975-8.071,8.975s-7.163-5-7.569-8.986c-.441-4.323,4.678-5.646,7.887-2.384C240.515,167.917,245.561,169.247,244.877,173.57Z" transform="translate(-229.21 -169.355)" fill="#fff"/></g></g></g></g><g transform="translate(201.811 66.655)"><g transform="translate(372.292 134.869)"><g transform="translate(1.738 235.553)"><ellipse cx="52.615" cy="5.199" rx="52.615" ry="5.199" fill="#ced3e6"/></g><g transform="translate(17.855 197.541)"><rect width="70.997" height="5.623" rx="2.411" fill="#39393b"/></g><g transform="translate(19.022 135.232)"><path d="M2.06,0H66.745A2.059,2.059,0,0,1,68.8,2.059V9.82a2.06,2.06,0,0,1-2.06,2.06H2.06A2.06,2.06,0,0,1,0,9.82V2.06A2.06,2.06,0,0,1,2.06,0Z" fill="#585859"/></g><g transform="translate(0 33.611)"><path d="M639.344,296.265s-27.364-5.41-35-24.5,20.285-33.41,35-23.159C655.089,259.572,639.344,296.265,639.344,296.265Z" transform="translate(-603.045 -245.189)" fill="#21b573"/><g transform="translate(12.634 2.75)"><path d="M656.3,346.571a.5.5,0,0,1-.489-.423c-2.621-17.733-13.188-43.247-21.59-61.527-9.113-19.823-17.712-35.644-17.8-35.8a.5.5,0,0,1,.87-.473c.086.157,8.7,16.008,17.827,35.861,8.43,18.339,19.032,43.946,21.671,61.795a.5.5,0,0,1-.417.562A.484.484,0,0,1,656.3,346.571Z" transform="translate(-616.366 -248.088)" fill="#39393b"/></g><g transform="translate(3.231 9.677)"><path d="M638.493,294.943a.5.5,0,0,1-.436-.261c-11.9-22.17-31.231-38.253-31.424-38.413a.495.495,0,1,1,.63-.764c.2.161,19.669,16.362,31.667,38.708a.495.495,0,0,1-.436.729Z" transform="translate(-606.452 -255.392)" fill="#39393b"/></g><g transform="translate(0.69 24.309)"><path d="M638.9,297.326a.5.5,0,0,1-.378-.174,95.028,95.028,0,0,0-23.5-20.1,58.871,58.871,0,0,0-10.9-5.266.5.5,0,1,1,.3-.945,58.7,58.7,0,0,1,11.075,5.34,96,96,0,0,1,23.78,20.328.5.5,0,0,1-.057.7A.489.489,0,0,1,638.9,297.326Z" transform="translate(-603.773 -270.819)" fill="#39393b"/></g><g transform="translate(28.282 0.609)"><path d="M637.987,290.226a.5.5,0,0,1-.469-.336c-6.672-19.581-4.218-43.379-4.192-43.617a.5.5,0,0,1,.984.105c-.026.236-2.455,23.823,4.145,43.192a.495.495,0,0,1-.469.655Z" transform="translate(-632.865 -245.831)" fill="#39393b"/></g><g transform="translate(33.627 8.564)"><path d="M639.957,294.535a.5.5,0,0,1-.488-.415,68.924,68.924,0,0,1,1.2-28.806,45.735,45.735,0,0,1,4.189-10.854.5.5,0,0,1,.851.507,45.806,45.806,0,0,0-4.094,10.641,67.953,67.953,0,0,0-1.171,28.35.5.5,0,0,1-.409.569A.59.59,0,0,1,639.957,294.535Z" transform="translate(-638.5 -254.218)" fill="#39393b"/></g></g><g transform="translate(54.188 39.336)"><g transform="translate(5.715)"><path d="M671.469,301.564s27.636-3.78,36.39-22.387-18.273-34.552-33.57-25.19C657.923,264,671.469,301.564,671.469,301.564Z" transform="translate(-666.205 -251.225)" fill="#21b573"/></g><g transform="translate(0 3.469)"><path d="M660.674,345.3h-.006a.5.5,0,0,1-.489-.5c.109-9.132,2.1-19.535,5.92-30.92a203.538,203.538,0,0,1,12.535-28.945,266.474,266.474,0,0,1,18.083-29.847.5.5,0,0,1,.8.581A265.475,265.475,0,0,0,679.506,285.4c-8.23,15.807-18.093,38.943-18.337,59.406A.494.494,0,0,1,660.674,345.3Z" transform="translate(-660.179 -254.882)" fill="#39393b"/></g><g transform="translate(11.648 10.94)"><path d="M672.955,300.376a.495.495,0,0,1-.421-.755c13.3-21.6,33.7-36.617,33.9-36.766a.5.5,0,0,1,.584.8c-.2.148-20.449,15.059-33.643,36.485A.5.5,0,0,1,672.955,300.376Z" transform="translate(-672.46 -262.76)" fill="#39393b"/></g><g transform="translate(11.014 25.697)"><path d="M672.287,302.731a.5.5,0,0,1-.358-.837,96.014,96.014,0,0,1,24.941-18.885,58.6,58.6,0,0,1,11.373-4.674.5.5,0,1,1,.243.96,59,59,0,0,0-11.194,4.611,95.043,95.043,0,0,0-24.647,18.673A.492.492,0,0,1,672.287,302.731Z" transform="translate(-671.792 -278.319)" fill="#39393b"/></g><g transform="translate(13.762 0.377)"><path d="M675.184,295.7a.5.5,0,0,1-.458-.683c7.734-18.946,6.7-42.635,6.694-42.872a.5.5,0,1,1,.989-.046c.011.239,1.053,24.14-6.766,43.293A.5.5,0,0,1,675.184,295.7Z" transform="translate(-674.689 -251.622)" fill="#39393b"/></g><g transform="translate(8.864 7.658)"><path d="M673.013,299.861a.548.548,0,0,1-.11-.012.5.5,0,0,1-.374-.593,67.963,67.963,0,0,0,.508-28.369,45.809,45.809,0,0,0-3.457-10.866.5.5,0,0,1,.879-.456A45.768,45.768,0,0,1,674,270.648a68.925,68.925,0,0,1-.5,28.828A.5.5,0,0,1,673.013,299.861Z" transform="translate(-669.525 -259.299)" fill="#39393b"/></g></g><g transform="translate(31.084)"><path d="M659.259,263.422s-23.416-15.158-23.44-35.721,31.215-23.524,41.089-8.552C687.472,235.168,659.259,263.422,659.259,263.422Z" transform="translate(-635.819 -209.75)" fill="#21b573"/><g transform="translate(19.134 0.166)"><path d="M657.027,316.083a.523.523,0,0,1-.114-.013.5.5,0,0,1-.368-.6c4.131-17.443,3.763-45.055,2.727-65.148-1.123-21.788-3.253-39.668-3.275-39.846a.5.5,0,0,1,.984-.118c.021.178,2.155,18.091,3.281,39.913,1.039,20.157,1.406,47.871-2.752,65.427A.5.5,0,0,1,657.027,316.083Z" transform="translate(-655.993 -209.925)" fill="#39393b"/></g><g transform="translate(7.834 3.119)"><path d="M659.6,261.529a.5.5,0,0,1-.491-.439c-2.847-25-14.846-47.1-14.966-47.318a.495.495,0,1,1,.868-.476c.122.222,12.213,22.483,15.083,47.682a.5.5,0,0,1-.436.548Z" transform="translate(-644.079 -213.038)" fill="#39393b"/></g><g transform="translate(0.056 15.77)"><path d="M659.091,263.892a.5.5,0,0,1-.469-.338,95.018,95.018,0,0,0-14.386-27.371,59.009,59.009,0,0,0-8.176-8.929.5.5,0,0,1,.628-.766A58.757,58.757,0,0,1,645,235.55a96.038,96.038,0,0,1,14.562,27.688.5.5,0,0,1-.312.628A.505.505,0,0,1,659.091,263.892Z" transform="translate(-635.878 -226.377)" fill="#39393b"/></g><g transform="translate(22.689 4.141)"><path d="M660.237,256.97h-.026a.5.5,0,0,1-.469-.52c1.053-20.66,12.146-41.858,12.258-42.07a.5.5,0,0,1,.875.463c-.111.21-11.1,21.22-12.144,41.657A.5.5,0,0,1,660.237,256.97Z" transform="translate(-659.741 -214.116)" fill="#39393b"/></g><g transform="translate(22.812 15.414)"><path d="M660.368,261.805a.466.466,0,0,1-.107-.012.5.5,0,0,1-.377-.59A69.867,69.867,0,0,1,671.7,234.765a47.052,47.052,0,0,1,7.94-8.657.495.495,0,0,1,.609.781,47.109,47.109,0,0,0-7.776,8.5,68.876,68.876,0,0,0-11.62,26.031A.5.5,0,0,1,660.368,261.805Z" transform="translate(-659.872 -226.003)" fill="#39393b"/></g></g><g transform="translate(23.567 100.591)"><path d="M687.461,318.881l-.817,2.166-.516,1.372-1.481,3.93-.518,1.373-1.521,4.037-.515,1.37-6.523,17.321H639.932l-6.523-17.321-.515-1.37-1.521-4.037-.518-1.373-1.48-3.93-.515-1.372-.818-2.166a2.269,2.269,0,0,1,2.124-3.07h55.172A2.271,2.271,0,0,1,687.461,318.881Z" transform="translate(-627.894 -315.811)" fill="#0875f7"/></g><g transform="translate(24.533 105.827)"><path d="M686.7,321.332l-.516,1.373H629.427l-.515-1.373Z" transform="translate(-628.912 -321.332)" fill="#084fc7"/><g transform="translate(1.996 5.304)"><path d="M684.809,326.923l-.518,1.373H631.534l-.518-1.373Z" transform="translate(-631.016 -326.923)" fill="#084fc7"/></g><g transform="translate(4.035 10.713)"><path d="M682.881,332.627l-.516,1.37H633.681l-.515-1.37Z" transform="translate(-633.166 -332.627)" fill="#084fc7"/></g></g><g transform="translate(9.014 147.112)"><path d="M647.414,364.862l-1.977,6.372-27.511,88.678h-5.377L630,373.044l1.644-8.182Z" transform="translate(-612.549 -364.862)" fill="#39393b"/></g><g transform="translate(63.132 147.112)"><path d="M704.474,459.911H699.1l-28.325-91.3-1.163-3.747h15.772l.4,1.987h0Z" transform="translate(-669.61 -364.862)" fill="#39393b"/></g><g transform="translate(17.855 185.314)"><rect width="70.997" height="5.623" rx="2.411" fill="#585859"/></g></g><g transform="translate(0 3.306)"><ellipse cx="25.717" cy="25.398" rx="25.717" ry="25.398" fill="#ced3e6"/></g><ellipse cx="25.717" cy="25.398" rx="25.717" ry="25.398" fill="#0875f7"/><g transform="translate(4.81 4.75)"><ellipse cx="20.907" cy="20.647" rx="20.907" ry="20.647" fill="#fff"/></g><g transform="translate(4.811 4.75)"><path d="M257.4,93.2q0,.825-.064,1.632a20.93,20.93,0,0,0-41.684,0q-.064-.807-.064-1.632a20.908,20.908,0,0,1,41.813,0Z" transform="translate(-215.582 -72.556)" fill="#ced3e6"/></g><g transform="translate(14.938 12.876)"><path d="M237.04,95.793a.523.523,0,0,1-.42-.209L226.363,81.948a.512.512,0,0,1,.108-.723.527.527,0,0,1,.731.107l10.008,13.306,11.374-4.93a.527.527,0,0,1,.689.266.514.514,0,0,1-.269.681L237.249,95.75A.529.529,0,0,1,237.04,95.793Z" transform="translate(-226.26 -81.124)" fill="#39393b"/></g></g></g></g></svg>