<svg xmlns="http://www.w3.org/2000/svg" width="50" height="50" viewBox="0 0 50 50">
  <g id="business" transform="translate(-1 -1)">
    <path id="Path_2007" data-name="Path 2007" d="M41.558,20.6a5.342,5.342,0,0,0-4.268-3.412V12.052l12.8-4.573L37.44,2.613H35.677V17.206A5.3,5.3,0,0,0,31.5,20.854L27.437,33.766a4.031,4.031,0,0,0-1.513-2.13l-3.86-2.757,1.357-6.1H25.74a6.417,6.417,0,0,0,5.768-3.56L34.576,13.1a2.8,2.8,0,0,0-5-2.492l-2.594,5.189a2.4,2.4,0,0,1-2.164,1.337H24.3a5.64,5.64,0,0,0-3.944-9.677c-.094,0-.185.01-.279.015a4.828,4.828,0,0,0-4.56-3.24,4.213,4.213,0,0,0-.527.034A5.646,5.646,0,0,0,4.226,6.645c0,.027.006.054.006.081a4.032,4.032,0,0,0,.8,7.984h9.915a5.642,5.642,0,0,0,1.465,2.419h-.421a8.928,8.928,0,0,0-7.555,4.222l-3.81,6.192a2.67,2.67,0,0,0-.17,2.49H1v11.29H11.215L9.969,46.469a3.5,3.5,0,0,0-.1.818v.235a3.478,3.478,0,0,0,6.881.717l2.633-12.507,1.777,1.184v7.633a3.229,3.229,0,0,0,3.226,3.226H51V46.016ZM37.29,4.283l8.165,3.14L37.29,10.34ZM33.034,21.338a3.708,3.708,0,0,1,7.013-.179l3.092,8.323c-.27.752-.83,2.163-1.415,2.163-.725,0-1.378-2.009-1.856-3.475-.734-2.256-1.493-4.59-3.39-4.59s-2.655,2.333-3.388,4.59c-.477,1.466-1.129,3.475-1.853,3.475-.318,0-.677-.435-1.048-1.254Zm-28-8.241a2.419,2.419,0,1,1,2.419-2.419H9.065a4.04,4.04,0,0,0-3.219-3.95c0-.027-.006-.055-.006-.082a4.032,4.032,0,0,1,7.876-1.219l.232.734.744-.2a3.141,3.141,0,0,1,3.777,1.821A5.65,5.65,0,0,0,14.71,13.1Zm11.29,0a4.032,4.032,0,1,1,4.032,4.032A4.037,4.037,0,0,1,16.323,13.1ZM13.134,30.032H9.727l3.99-6.271a2.128,2.128,0,0,1,.77-.724Zm.271,1.613-.032.065a5.718,5.718,0,0,1-10.228,0l-.033-.065H13.4ZM2.613,33.808a7.293,7.293,0,0,0,11.29,0v5.9H2.613Zm20.161,10.74V36.915a1.61,1.61,0,0,0-.719-1.342l-2.263-1.509h-1.7L15.174,47.906a1.865,1.865,0,0,1-3.69-.384v-.235a1.871,1.871,0,0,1,.052-.439l1.338-5.526h2.642V30.032h-.74l1.717-8.871h-.977A3.726,3.726,0,0,0,12.357,22.9L8.134,29.532a1.075,1.075,0,0,1-.911.5h-.3A1.079,1.079,0,0,1,6,28.388L9.809,22.2a7.306,7.306,0,0,1,6.181-3.454h8.823a4.01,4.01,0,0,0,3.606-2.229l2.594-5.189a1.183,1.183,0,1,1,2.12,1.048l-3.068,6.119a4.812,4.812,0,0,1-4.325,2.67H22.127l-1.869,8.41,4.729,3.377A2.426,2.426,0,0,1,26,34.919v9.63a1.613,1.613,0,0,1-3.226,0Zm4.39,1.613a3.193,3.193,0,0,0,.448-1.613V38.587l1.94-6.173a2.218,2.218,0,0,0,1.684.844c1.9,0,2.655-2.333,3.388-4.59.477-1.466,1.129-3.475,1.853-3.475s1.378,2.009,1.856,3.475c.734,2.256,1.492,4.59,3.39,4.59a2.652,2.652,0,0,0,2.223-1.6l5.387,14.5Z"/>
    <path id="Path_2008" data-name="Path 2008" d="M56,53h1.613v1.613H56Z" transform="translate(-10.645 -10.065)"/>
    <path id="Path_2009" data-name="Path 2009" d="M52,53h1.613v1.613H52Z" transform="translate(-9.871 -10.065)"/>
    <path id="Path_2010" data-name="Path 2010" d="M48,53h1.613v1.613H48Z" transform="translate(-9.097 -10.065)"/>
  </g>
</svg>
