<svg xmlns="http://www.w3.org/2000/svg" width="60" height="60" viewBox="0 0 60 60"><g transform="translate(-16 -16)"><path d="M71,20H65V19a3,3,0,0,0-6,0v1H49V19a3,3,0,1,0-6,0v1H33V19a3,3,0,0,0-6,0v1H21a5.006,5.006,0,0,0-5,5V71a5.006,5.006,0,0,0,5,5H71a5.006,5.006,0,0,0,5-5V25A5.006,5.006,0,0,0,71,20ZM61,19a1,1,0,0,1,2,0v6a1,1,0,1,1-2,0ZM45,19a1,1,0,1,1,2,0v6a1,1,0,1,1-2,0ZM29,19a1,1,0,1,1,2,0v6a1,1,0,1,1-2,0Zm-8,3h6v3a3,3,0,0,0,6,0V22H43v3a3,3,0,1,0,6,0V22H59v3a3,3,0,0,0,6,0V22h6a3,3,0,0,1,3,3v7H18V25A3,3,0,0,1,21,22ZM71,74H21a3,3,0,0,1-3-3V34H74V71A3,3,0,0,1,71,74Z" fill="#a63ad6"/><path d="M405,216h-4a1,1,0,0,0-1,1v4a1,1,0,0,0,1,1h4a1,1,0,0,0,1-1v-4A1,1,0,0,0,405,216Zm-1,4h-2v-2h2Z" transform="translate(-336 -175)" fill="#a63ad6"/><path d="M245,376h-4a1,1,0,0,0-1,1v4a1,1,0,0,0,1,1h4a1,1,0,0,0,1-1v-4A1,1,0,0,0,245,376Zm-1,4h-2v-2h2Z" transform="translate(-196 -315)" fill="#a63ad6"/><path d="M165,216h-4a1,1,0,0,0-1,1v4a1,1,0,0,0,1,1h4a1,1,0,0,0,1-1v-4A1,1,0,0,0,165,216Zm-1,4h-2v-2h2Z" transform="translate(-126 -175)" fill="#a63ad6"/><path d="M85,296H81a1,1,0,0,0-1,1v4a1,1,0,0,0,1,1h4a1,1,0,0,0,1-1v-4A1,1,0,0,0,85,296Zm-1,4H82v-2h2Z" transform="translate(-56 -245)" fill="#a63ad6"/><path d="M165,296h-4a1,1,0,0,0-1,1v4a1,1,0,0,0,1,1h4a1,1,0,0,0,1-1v-4A1,1,0,0,0,165,296Zm-1,4h-2v-2h2Z" transform="translate(-126 -245)" fill="#a63ad6"/><path d="M85,376H81a1,1,0,0,0-1,1v4a1,1,0,0,0,1,1h4a1,1,0,0,0,1-1v-4A1,1,0,0,0,85,376Zm-1,4H82v-2h2Z" transform="translate(-56 -315)" fill="#a63ad6"/><path d="M165,376h-4a1,1,0,0,0-1,1v4a1,1,0,0,0,1,1h4a1,1,0,0,0,1-1v-4A1,1,0,0,0,165,376Zm-1,4h-2v-2h2Z" transform="translate(-126 -315)" fill="#a63ad6"/><path d="M249.154,206.122l-5-.764-2.246-4.784a1,1,0,0,0-1.811,0l-2.245,4.784-5,.764a1,1,0,0,0-.565,1.687l3.648,3.738-.863,5.291a1,1,0,0,0,1.469,1.036l4.46-2.465,4.461,2.465a1,1,0,0,0,1.471-1.036l-.863-5.291,3.648-3.738a1,1,0,0,0-.565-1.687Zm-4.867,4.39a1,1,0,0,0-.271.859l.613,3.756-3.142-1.738a1,1,0,0,0-.967,0l-3.142,1.738.612-3.756a1,1,0,0,0-.271-.859l-2.64-2.706,3.6-.55a1,1,0,0,0,.754-.564L241,203.353l1.567,3.338a1,1,0,0,0,.754.564l3.6.55Z" transform="translate(-189.003 -160.999)" fill="#a63ad6"/><path d="M405,296h-4a1,1,0,0,0-1,1v4a1,1,0,0,0,1,1h4a1,1,0,0,0,1-1v-4A1,1,0,0,0,405,296Zm-1,4h-2v-2h2Z" transform="translate(-336 -245)" fill="#a63ad6"/><path d="M405,376h-4a1,1,0,0,0-1,1v4a1,1,0,0,0,1,1h4a1,1,0,0,0,1-1v-4A1,1,0,0,0,405,376Zm-1,4h-2v-2h2Z" transform="translate(-336 -315)" fill="#a63ad6"/><path d="M325,376h-4a1,1,0,0,0-1,1v4a1,1,0,0,0,1,1h4a1,1,0,0,0,1-1v-4A1,1,0,0,0,325,376Zm-1,4h-2v-2h2Z" transform="translate(-266 -315)" fill="#a63ad6"/></g></svg>