<svg xmlns="http://www.w3.org/2000/svg" xmlns:xlink="http://www.w3.org/1999/xlink" width="83" height="95" viewBox="0 0 83 95"><defs><filter id="a" x="0" y="0" width="83" height="95" filterUnits="userSpaceOnUse"><feOffset dy="3" input="SourceAlpha"/><feGaussianBlur stdDeviation="7.5" result="b"/><feFlood flood-opacity="0.161"/><feComposite operator="in" in2="b"/><feComposite in="SourceGraphic"/></filter><filter id="c" x="3" y="4" width="77" height="89" filterUnits="userSpaceOnUse"><feOffset dy="3" input="SourceAlpha"/><feGaussianBlur stdDeviation="7.5" result="d"/><feFlood flood-opacity="0.161"/><feComposite operator="in" in2="d"/><feComposite in="SourceGraphic"/></filter></defs><g transform="translate(-883.5 -653.5)"><g transform="matrix(1, 0, 0, 1, 883.5, 653.5)" filter="url(#a)"><g transform="translate(22.5 19.5)" fill="rgba(255,255,255,0)" stroke="#fff" stroke-width="1"><rect width="38" height="50" rx="19" stroke="none"/><rect x="0.5" y="0.5" width="37" height="49" rx="18.5" fill="none"/></g></g><g transform="matrix(1, 0, 0, 1, 883.5, 653.5)" filter="url(#c)"><rect width="32" height="44" rx="16" transform="translate(25.5 23.5)" fill="#fff"/></g><g transform="translate(973.916 688) rotate(90)"><path d="M18.634,47.8l-5.622-5.622a.878.878,0,1,0-1.242,1.242l4.122,4.122H.878a.878.878,0,0,0,0,1.757H15.892L11.77,53.417a.878.878,0,0,0,1.242,1.242l5.621-5.622A.878.878,0,0,0,18.634,47.8Z" transform="translate(0)" fill="#ff7a17"/></g></g></svg>