<svg xmlns="http://www.w3.org/2000/svg" width="55.039" height="50" viewBox="0 0 55.039 50">
  <g id="economy" transform="translate(-5 -28)">
    <path id="Path_1997" data-name="Path 1997" d="M117.056,197h-3.4a.658.658,0,0,0-.658.658v8.99a.658.658,0,0,0,.658.658h3.4a.658.658,0,0,0,.658-.658v-8.99A.658.658,0,0,0,117.056,197Zm-.658,8.88h-2.083v-7.564H116.4Z" transform="translate(-96.16 -150.473)"/>
    <path id="Path_1998" data-name="Path 1998" d="M184.337,141.317a8.674,8.674,0,0,0,0-12.231h0a8.973,8.973,0,0,0-3.224-1.978v-7.454a.658.658,0,0,0-.662-.654h-3.366a.68.68,0,0,0-.686.654v7.152a9.032,9.032,0,0,0-.987.282v-5.1a.682.682,0,0,0-.657-.686h-3.366a.713.713,0,0,0-.692.686v9.019a9.343,9.343,0,0,0-.987,2.983v-8.636a.649.649,0,0,0-.651-.654H165.7a.689.689,0,0,0-.7.654v11.781a.655.655,0,0,0,.7.612h3.366a.614.614,0,0,0,.651-.612v-.673a8.3,8.3,0,0,0,2.438,4.855,8.617,8.617,0,0,0,12.185,0ZM168.4,136.431h-2.083V126.016H168.4Zm9.319-16.116H179.8v6.441a8.59,8.59,0,0,0-2.083-.13Zm-5.7,2.3H174.1v5.054a9.98,9.98,0,0,0-1.962,1.464c-.036.036-.012.074-.121.111Zm-1.068,12.608A7.3,7.3,0,0,1,177.183,128a7.472,7.472,0,0,1,1.085-.08,7.3,7.3,0,1,1-7.32,7.3Z" transform="translate(-142.459 -81.023)"/>
    <path id="Path_1999" data-name="Path 1999" d="M238.17,230.261a.659.659,0,0,0-.8-.474,4.67,4.67,0,0,1-4.723-7.555.636.636,0,1,0,1.271-.011v-1.6A.595.595,0,0,0,233.3,220h-1.6a.658.658,0,0,0,0,1.316h.025a5.97,5.97,0,0,0,5.969,9.752A.66.66,0,0,0,238.17,230.261Z" transform="translate(-200.522 -170.948)"/>
    <path id="Path_2000" data-name="Path 2000" d="M273.277,212.882a4.67,4.67,0,0,1,4.9,6.848.684.684,0,0,0-.66-.5.677.677,0,0,0-.68.658v1.6a.745.745,0,0,0,.7.711h1.6a.658.658,0,1,0,0-1.316h-.093a6.011,6.011,0,0,0-6-9.286.653.653,0,0,0,.227,1.286Z" transform="translate(-238.183 -163.391)"/>
    <path id="Path_2001" data-name="Path 2001" d="M270.949,238.585h-.011a.548.548,0,0,1-.542-.547.658.658,0,0,0-.658-.658.665.665,0,0,0-.666.658,1.926,1.926,0,0,0,1.2,1.742v.182a.658.658,0,1,0,1.316,0v-.182a1.787,1.787,0,0,0,1.214-1.742,1.862,1.862,0,0,0-1.86-1.864.548.548,0,1,1,.552-.548.658.658,0,0,0,.658.658.651.651,0,0,0,.65-.658,1.786,1.786,0,0,0-1.214-1.742v-.127a.658.658,0,0,0-1.316,0v.127a1.926,1.926,0,0,0-1.2,1.742,1.869,1.869,0,0,0,1.868,1.864.548.548,0,0,1,.009,1.1Z" transform="translate(-235.123 -182.615)"/>
    <circle id="Ellipse_529" data-name="Ellipse 529" cx="0.885" cy="0.885" r="0.885" transform="translate(9.6 31.193)"/>
    <path id="Path_2002" data-name="Path 2002" d="M78.917,57.122a.885.885,0,1,0,.885.885A.885.885,0,0,0,78.917,57.122Z" transform="translate(-65.025 -25.929)"/>
    <path id="Path_2003" data-name="Path 2003" d="M110,57.122a.885.885,0,1,0,.885.885.885.885,0,0,0-.885-.885Z" transform="translate(-92.697 -25.929)"/>
    <path id="Path_2004" data-name="Path 2004" d="M56.307,65.36V32.808A4.833,4.833,0,0,0,51.465,28H9.822A4.816,4.816,0,0,0,5,32.808V66.5a4.811,4.811,0,0,0,4.822,4.8H34.643a23.818,23.818,0,0,0,2.7,2.652C40.459,76.6,43.7,78,46.718,78s6.259-1.394,9.376-4.037a25.673,25.673,0,0,0,3.814-4,.657.657,0,0,0,.01-.775,26.272,26.272,0,0,0-3.611-3.832ZM22.76,32.672V29.315h28.7a3.516,3.516,0,0,1,3.527,3.493v2.1H22.017a3.74,3.74,0,0,0,.744-2.235Zm-16.445.137a3.5,3.5,0,0,1,3.506-3.493H21.445v3.356a2.211,2.211,0,0,1-2.158,2.235H6.316Zm27.214,37.15c0,.005.013.03.028.03H9.822A3.494,3.494,0,0,1,6.316,66.5V36.222H54.991V64.3a14.029,14.029,0,0,0-8.263-3.145c-3.016,0-6.264,1.4-9.381,4.039a25.748,25.748,0,0,0-3.816,4,.643.643,0,0,0,0,.766Zm1.364-.379a23.292,23.292,0,0,1,6.763-5.747,7.654,7.654,0,0,0-.008,11.489A23.385,23.385,0,0,1,34.893,69.58Zm11.825,6.351a6.351,6.351,0,1,1,6.346-6.351A6.351,6.351,0,0,1,46.718,75.931Zm5.069-.61a7.654,7.654,0,0,0,0-11.482,23.379,23.379,0,0,1,6.755,5.741A23.379,23.379,0,0,1,51.787,75.321Z" transform="translate(0 0)"/>
    <path id="Path_2005" data-name="Path 2005" d="M31.658,120.093a.658.658,0,0,0-.658.658v.471a.658.658,0,1,0,1.316,0v-.471A.658.658,0,0,0,31.658,120.093Z" transform="translate(-23.15 -81.997)"/>
    <path id="Path_2006" data-name="Path 2006" d="M31.658,145.388a.658.658,0,0,0-.658.658v10.086a.658.658,0,1,0,1.316,0V146.046A.658.658,0,0,0,31.658,145.388Z" transform="translate(-23.15 -104.519)"/>
  </g>
</svg>
