<svg xmlns="http://www.w3.org/2000/svg" xmlns:xlink="http://www.w3.org/1999/xlink" width="235" height="104" viewBox="0 0 235 104"><defs><filter id="a" x="0" y="0" width="235" height="104" filterUnits="userSpaceOnUse"><feOffset dy="3" input="SourceAlpha"/><feGaussianBlur stdDeviation="5" result="b"/><feFlood flood-opacity="0.078"/><feComposite operator="in" in2="b"/><feComposite in="SourceGraphic"/></filter></defs><g transform="translate(-344 -603)"><g transform="matrix(1, 0, 0, 1, 344, 603)" filter="url(#a)"><rect width="205" height="74" rx="10" transform="translate(15 12)" fill="#fff"/></g><path d="M4.056-4.308l-.12.936H5.928v2.256a4.64,4.64,0,0,1-1.656.3c-1.884,0-2.556-1.224-2.556-3.108,0-1.776.72-3.036,2.616-3.036a3.7,3.7,0,0,1,2.028.588l.48-.84A4.725,4.725,0,0,0,4.248-7.92C2.316-7.92.54-6.8.54-3.876.54-1.584,1.584.144,4.248.144a5.924,5.924,0,0,0,2.784-.66V-4.308Zm8.808,1.092A2.028,2.028,0,0,0,10.68-5.4,2.565,2.565,0,0,0,8.136-2.532,2.342,2.342,0,0,0,10.668.144a3.759,3.759,0,0,0,2.064-.636l-.4-.732a2.846,2.846,0,0,1-1.62.492c-.828,0-1.512-.444-1.536-1.716h3.66C12.852-2.736,12.864-3.036,12.864-3.216ZM10.68-4.6c.732,0,1.176.42,1.176,1.344V-3.2H9.24C9.372-4.008,9.8-4.6,10.68-4.6ZM17.028-.924a2.068,2.068,0,0,1-.864.2c-.492,0-.744-.324-.744-1.008V-4.44h1.668l.108-.816H15.42V-6.612l-1.032.168v1.188H13.332v.816h1.056v2.88A1.5,1.5,0,0,0,16,.144a2.719,2.719,0,0,0,1.32-.336Zm4.692-5.4a.745.745,0,0,0,.744-.732A.748.748,0,0,0,21.72-7.8a.745.745,0,0,0-.732.744A.743.743,0,0,0,21.72-6.324ZM21.216,0h1.032V-5.376l-1.032.12Zm5.748-.924a2.068,2.068,0,0,1-.864.2c-.492,0-.744-.324-.744-1.008V-4.44h1.668l.108-.816H25.356V-6.612l-1.032.168v1.188H23.268v.816h1.056v2.88a1.5,1.5,0,0,0,1.608,1.7,2.719,2.719,0,0,0,1.32-.336Zm6.48-6.54a2.669,2.669,0,0,1,.9.156l.264-.816a3.444,3.444,0,0,0-1.212-.2,1.82,1.82,0,0,0-1.884,2.016v1.056h-.96v.816h.96V0h1.032V-4.44h1.524l.108-.816H32.544v-1.08C32.544-7.032,32.82-7.464,33.444-7.464ZM37.476-5.4a1.926,1.926,0,0,0-1.536.78v-.756l-1.032.108V0H35.94V-3.576a1.443,1.443,0,0,1,1.332-.8,2.2,2.2,0,0,1,.744.144L38.208-5.3A2.5,2.5,0,0,0,37.476-5.4ZM41.088.144a2.5,2.5,0,0,0,2.724-2.772c0-1.536-.78-2.772-2.52-2.772a2.487,2.487,0,0,0-2.724,2.76C38.568-1.116,39.348.144,41.088.144Zm.1-.84c-1.068,0-1.536-.816-1.536-1.944s.384-1.92,1.572-1.92c1.056,0,1.512.8,1.512,1.92S42.348-.7,41.184-.7ZM51.2-5.4a4.394,4.394,0,0,0-2.052.588A1.354,1.354,0,0,0,47.9-5.4a3.692,3.692,0,0,0-1.8.528v-.5l-1.032.12V0H46.1V-4.14A3.435,3.435,0,0,1,47.52-4.5c.624,0,.84.276.84,1.152V0h1.032V-3.768a3.4,3.4,0,0,0-.024-.36A3.428,3.428,0,0,1,50.82-4.5c.624,0,.852.276.852,1.152V0H52.7V-3.768C52.7-4.992,52.044-5.4,51.2-5.4Z" transform="translate(428 643)" fill="#868686"/><path d="M12.344-1.846A4.724,4.724,0,0,1,10.205-.322,8.726,8.726,0,0,1,7.1.2,6.119,6.119,0,0,1,3.936-.615,5.4,5.4,0,0,1,1.812-2.935a8.114,8.114,0,0,1-.776-3.521V-7.568A7.525,7.525,0,0,1,2.578-12.6a5.351,5.351,0,0,1,4.307-1.812,5.662,5.662,0,0,1,3.77,1.177,5.071,5.071,0,0,1,1.68,3.384H9.912a2.725,2.725,0,0,0-2.979-2.568,2.92,2.92,0,0,0-2.524,1.2,6.089,6.089,0,0,0-.894,3.508v1.093a5.783,5.783,0,0,0,.972,3.576,3.205,3.205,0,0,0,2.7,1.273,3.56,3.56,0,0,0,2.7-.859V-5.42H6.953V-7.295h5.391Zm2.041-3.535A6.231,6.231,0,0,1,15-8.179a4.493,4.493,0,0,1,1.729-1.914,4.87,4.87,0,0,1,2.559-.669,4.615,4.615,0,0,1,3.472,1.377A5.416,5.416,0,0,1,24.2-5.732l.01.557a6.286,6.286,0,0,1-.6,2.793,4.439,4.439,0,0,1-1.719,1.9A4.906,4.906,0,0,1,19.307.2a4.584,4.584,0,0,1-3.579-1.489,5.7,5.7,0,0,1-1.343-3.97Zm2.373.205a4.258,4.258,0,0,0,.674,2.554,2.191,2.191,0,0,0,1.875.923,2.167,2.167,0,0,0,1.87-.937,4.7,4.7,0,0,0,.669-2.744,4.2,4.2,0,0,0-.688-2.539,2.2,2.2,0,0,0-1.87-.937,2.178,2.178,0,0,0-1.846.923A4.614,4.614,0,0,0,16.758-5.176Zm9.014-.205a6.231,6.231,0,0,1,.615-2.8,4.493,4.493,0,0,1,1.729-1.914,4.87,4.87,0,0,1,2.559-.669,4.615,4.615,0,0,1,3.472,1.377,5.416,5.416,0,0,1,1.44,3.652l.01.557A6.286,6.286,0,0,1,35-2.383a4.439,4.439,0,0,1-1.719,1.9A4.906,4.906,0,0,1,30.693.2a4.584,4.584,0,0,1-3.579-1.489,5.7,5.7,0,0,1-1.343-3.97Zm2.373.205a4.258,4.258,0,0,0,.674,2.554,2.191,2.191,0,0,0,1.875.923,2.167,2.167,0,0,0,1.87-.937,4.7,4.7,0,0,0,.669-2.744,4.2,4.2,0,0,0-.688-2.539,2.2,2.2,0,0,0-1.87-.937,2.178,2.178,0,0,0-1.846.923A4.614,4.614,0,0,0,28.145-5.176Zm9.043-.186a6.18,6.18,0,0,1,1.157-3.931,3.714,3.714,0,0,1,3.071-1.47A3.48,3.48,0,0,1,44.258-9.5l.107-1.064H46.5V-.322A4.258,4.258,0,0,1,45.21,2.959a4.928,4.928,0,0,1-3.491,1.2,5.627,5.627,0,0,1-2.271-.483,4.034,4.034,0,0,1-1.685-1.265L38.887.986a3.392,3.392,0,0,0,2.7,1.3,2.621,2.621,0,0,0,1.865-.64,2.451,2.451,0,0,0,.684-1.88V-.947A3.494,3.494,0,0,1,41.4.2a3.705,3.705,0,0,1-3.032-1.475A6.38,6.38,0,0,1,37.188-5.361Zm2.363.205a4.254,4.254,0,0,0,.649,2.5,2.088,2.088,0,0,0,1.8.913,2.284,2.284,0,0,0,2.129-1.23V-7.617a2.251,2.251,0,0,0-2.109-1.2,2.1,2.1,0,0,0-1.821.928A4.763,4.763,0,0,0,39.551-5.156ZM51.465,0H49.092V-15h2.373ZM58.7.2a4.91,4.91,0,0,1-3.657-1.421,5.154,5.154,0,0,1-1.4-3.784V-5.3a6.34,6.34,0,0,1,.61-2.827,4.646,4.646,0,0,1,1.714-1.938,4.531,4.531,0,0,1,2.461-.693,4.147,4.147,0,0,1,3.335,1.377,5.823,5.823,0,0,1,1.177,3.9v.957h-6.9a3.173,3.173,0,0,0,.874,2.07,2.624,2.624,0,0,0,1.929.762,3.213,3.213,0,0,0,2.656-1.318L62.773-1.8a4.272,4.272,0,0,1-1.694,1.47A5.3,5.3,0,0,1,58.7.2Zm-.283-9.053a2,2,0,0,0-1.577.684,3.543,3.543,0,0,0-.767,1.9H60.6v-.176a2.884,2.884,0,0,0-.635-1.8A1.983,1.983,0,0,0,58.418-8.857ZM72.461-5.273V0H69.99V-14.219H75.43a5.5,5.5,0,0,1,3.784,1.242,4.175,4.175,0,0,1,1.4,3.285,4.036,4.036,0,0,1-1.372,3.256A5.766,5.766,0,0,1,75.4-5.273Zm0-1.992H75.43a2.924,2.924,0,0,0,2.012-.62,2.279,2.279,0,0,0,.693-1.792,2.459,2.459,0,0,0-.7-1.841,2.71,2.71,0,0,0-1.934-.708H72.461ZM85.068,0H82.7V-15h2.373Zm8.9,0a3.662,3.662,0,0,1-.273-.986A3.694,3.694,0,0,1,90.918.2a3.728,3.728,0,0,1-2.6-.908,2.906,2.906,0,0,1-1.006-2.246,3,3,0,0,1,1.255-2.593,6.081,6.081,0,0,1,3.589-.9h1.455v-.693a1.851,1.851,0,0,0-.459-1.313,1.819,1.819,0,0,0-1.4-.493,2.09,2.09,0,0,0-1.328.405,1.254,1.254,0,0,0-.518,1.03H87.539a2.634,2.634,0,0,1,.576-1.626,3.839,3.839,0,0,1,1.567-1.187,5.506,5.506,0,0,1,2.212-.43,4.434,4.434,0,0,1,2.959.933,3.326,3.326,0,0,1,1.133,2.622v4.766a5.4,5.4,0,0,0,.4,2.275V0ZM91.357-1.709a2.7,2.7,0,0,0,1.323-.342,2.284,2.284,0,0,0,.933-.918V-4.961H92.334a3.5,3.5,0,0,0-1.982.459,1.487,1.487,0,0,0-.664,1.3,1.387,1.387,0,0,0,.454,1.089A1.758,1.758,0,0,0,91.357-1.709ZM102.021-3.4l2.148-7.168H106.7L102.5,1.6q-.967,2.666-3.281,2.666a4.231,4.231,0,0,1-1.143-.177V2.246l.449.029a2.31,2.31,0,0,0,1.353-.327,2.167,2.167,0,0,0,.718-1.1l.342-.907-3.711-10.51h2.559Z" transform="translate(428 667)"/><g transform="translate(364.957 636)"><path d="M32.66,32.244,17.183,47.721a3.669,3.669,0,0,1-1.14-2.7V20.746a3.719,3.719,0,0,1,1.18-2.74Z" transform="translate(0 -16.881)" fill="#2196f3"/><path d="M295.341,159.785a3.8,3.8,0,0,1-2.02,3.339l-4.4,2.44-5.459-5.039-1.5-1.38,5.779-5.779,5.579,3.079A3.8,3.8,0,0,1,295.341,159.785Z" transform="translate(-249.303 -143.783)" fill="#ffc107"/><path d="M50.36,15.362,34.923,1.125a3.981,3.981,0,0,1,.72-.54,4.026,4.026,0,0,1,4.079-.06L56.139,9.583Z" transform="translate(-17.7)" fill="#4caf50"/><path d="M56.719,252.265l-17.6,9.7a3.982,3.982,0,0,1-2,.52,3.9,3.9,0,0,1-2.08-.58,3.639,3.639,0,0,1-.76-.58L49.76,245.846l1.5,1.38Z" transform="translate(-17.1 -230.484)" fill="#f44336"/></g></g></svg>