<svg xmlns="http://www.w3.org/2000/svg" width="50" height="50" viewBox="0 0 50 50"><defs><style>.a{fill:#9f9f9f;}</style></defs><path class="a" d="M25,0A25,25,0,1,0,50,25,25,25,0,0,0,25,0Zm0,46.875A21.875,21.875,0,1,1,46.875,25,21.875,21.875,0,0,1,25,46.875Z"/><g transform="translate(14.063 14.063)"><circle class="a" cx="3.125" cy="3.125" r="3.125"/></g><g transform="translate(29.688 14.063)"><circle class="a" cx="3.125" cy="3.125" r="3.125"/></g><g transform="translate(10.938 25)"><path class="a" d="M137,256a10.938,10.938,0,0,1-21.875,0H112a14.063,14.063,0,0,0,28.125,0Z" transform="translate(-112 -256)"/></g></svg>