<svg xmlns="http://www.w3.org/2000/svg" width="24" height="18.065" viewBox="0 0 24 18.065"><defs><style>.a{fill:#ff7a17;}</style></defs><g transform="translate(0 -7.434)"><path class="a" d="M31.166,48.288H15.118a1.2,1.2,0,0,1,0-2.4H31.166a1.2,1.2,0,0,1,0,2.4Z" transform="translate(-8.363 -23.107)"/><path class="a" d="M31.166,29.457H15.118a1.2,1.2,0,1,1,0-2.4H31.166a1.2,1.2,0,0,1,0,2.4Z" transform="translate(-8.363 -11.793)"/><path class="a" d="M31.166,10.626H15.118a1.2,1.2,0,0,1,0-2.4H31.166a1.2,1.2,0,0,1,0,2.4Z" transform="translate(-8.363 -0.479)"/><circle class="a" cx="1.608" cy="1.608" r="1.608" transform="translate(0 7.434)"/><circle class="a" cx="1.608" cy="1.608" r="1.608" transform="translate(0 14.858)"/><circle class="a" cx="1.608" cy="1.608" r="1.608" transform="translate(0 22.283)"/></g></svg>