<svg xmlns="http://www.w3.org/2000/svg" width="158.38" height="35.63" viewBox="0 0 158.38 35.63">
  <g id="logo" transform="translate(1991.178 -1073.057)">
    <g id="Group_2134" data-name="Group 2134" transform="translate(-1991.178 1080.222)">
      <path id="Path_150" data-name="Path 150" d="M-1989.254,1094.573c-1.522-5.131,1.123-10.009,6.458-11.592s10.179,1.072,11.7,6.2l.02.068-17.235,5.115a8.121,8.121,0,0,0,10.548,5.577,8.17,8.17,0,0,0,6.087-6.57l.958-.284a9.019,9.019,0,0,1-6.8,7.675C-1982.853,1102.347-1987.731,1099.7-1989.254,1094.573Zm17.012-5.869a8.1,8.1,0,0,0-10.311-4.9,8.135,8.135,0,0,0-6,9.745Z" transform="translate(1991.026 -1081.177)" fill="#1a1818"/>
      <path id="Path_151" data-name="Path 151" d="M-1980.729,1102.42a10.228,10.228,0,0,1-9.968-7.615h0a10.545,10.545,0,0,1,.77-8.162,10.966,10.966,0,0,1,6.6-5.107c6-1.779,11.627,1.211,13.378,7.111l.384,1.293-1.273.453-15.83,4.7c1.532,3.123,4.747,4.486,8.375,3.407a6.817,6.817,0,0,0,5.139-5.484l.131-.844,3.708-1.1-.207,2.006a10.425,10.425,0,0,1-7.76,8.83A12.109,12.109,0,0,1-1980.729,1102.42Zm.747-17.828a8.242,8.242,0,0,0-2.338.351,6.815,6.815,0,0,0-5.233,6.7l13.243-3.931A6.542,6.542,0,0,0-1979.982,1084.592Z" transform="translate(1991.178 -1081.026)" fill="#1a1818"/>
    </g>
    <g id="Group_2135" data-name="Group 2135" transform="translate(-1970.155 1073.057)">
      <path id="Path_152" data-name="Path 152" d="M-1966.3,1091.074a9.042,9.042,0,0,1,9.454-9.275c4,0,7.205,2,8.561,5.315v-12.557h.927V1091c0,5.495-3.888,9.347-9.453,9.347S-1966.3,1096.424-1966.3,1091.074Zm18.015,0a8.139,8.139,0,0,0-8.526-8.419,8.139,8.139,0,0,0-8.526,8.419,8.139,8.139,0,0,0,8.526,8.419A8.139,8.139,0,0,0-1948.282,1091.074Z" transform="translate(1967.646 -1073.208)" fill="#1a1818"/>
      <path id="Path_153" data-name="Path 153" d="M-1956.959,1101.546c-6.28,0-10.837-4.468-10.837-10.624s4.542-10.624,10.8-10.624a10.846,10.846,0,0,1,7.212,2.509v-9.75h3.625v17.793A10.4,10.4,0,0,1-1956.959,1101.546Zm0-17.694a6.816,6.816,0,0,0-7.177,7.07,6.816,6.816,0,0,0,7.177,7.07,6.816,6.816,0,0,0,7.177-7.07A6.816,6.816,0,0,0-1956.959,1083.852Z" transform="translate(1967.797 -1073.057)" fill="#1a1818"/>
    </g>
    <g id="Group_2137" data-name="Group 2137" transform="translate(-1948.585 1074.141)">
      <g id="Group_2136" data-name="Group 2136">
        <path id="Path_154" data-name="Path 154" d="M-1917.426,1074.263a9.848,9.848,0,0,0-8.261,4.48,9.845,9.845,0,0,0-8.261-4.48,9.859,9.859,0,0,0-9.859,9.859c0,9.961,18.121,16.478,18.121,16.478s18.122-6.581,18.122-16.478A9.859,9.859,0,0,0-1917.426,1074.263Zm.143,15.115c0,5.052-3.41,8.446-8.487,8.446-5.2,0-8.552-3.315-8.552-8.446v-7.32h-1.728v-3.964h2.886v.005h4.95v11.279c0,1.728.685,2.4,2.444,2.4,1.7,0,2.4-.7,2.4-2.4V1078.1h6.086Z" transform="translate(1943.808 -1074.263)" fill="#93ae3c"/>
      </g>
    </g>
    <g id="Group_2142" data-name="Group 2142" transform="translate(-1913.694 1080.152)">
      <g id="Group_2138" data-name="Group 2138">
        <path id="Path_155" data-name="Path 155" d="M-1903.5,1091.723c0-5.351,3.924-9.275,9.489-9.275,4.423,0,7.812,2.461,8.99,6.171h-.964a8.11,8.11,0,0,0-8.026-5.315,8.139,8.139,0,0,0-8.526,8.419,8.139,8.139,0,0,0,8.526,8.419,8.11,8.11,0,0,0,8.026-5.316h.964c-1.178,3.71-4.567,6.172-8.99,6.172C-1899.58,1101-1903.5,1097.073-1903.5,1091.723Z" transform="translate(1904.853 -1081.099)" fill="#2176a0"/>
        <path id="Path_156" data-name="Path 156" d="M-1894.167,1102.195c-6.28,0-10.838-4.468-10.838-10.623s4.558-10.624,10.838-10.624c4.945,0,8.883,2.724,10.275,7.111l.557,1.757h-3.758l-.319-.9a6.772,6.772,0,0,0-6.755-4.418,6.816,6.816,0,0,0-7.177,7.07,6.816,6.816,0,0,0,7.177,7.07,6.771,6.771,0,0,0,6.755-4.419l.319-.9h3.758l-.557,1.757C-1885.284,1099.47-1889.221,1102.195-1894.167,1102.195Z" transform="translate(1905.004 -1080.948)" fill="#2176a0"/>
      </g>
      <g id="Group_2139" data-name="Group 2139" transform="translate(20.692)">
        <path id="Path_157" data-name="Path 157" d="M-1880.492,1091.723c0-5.351,3.924-9.275,9.489-9.275a9.019,9.019,0,0,1,9.453,9.346v8.74h-.891v-4.995a8.828,8.828,0,0,1-8.6,5.459A9.042,9.042,0,0,1-1880.492,1091.723Zm18.015,0A8.139,8.139,0,0,0-1871,1083.3a8.139,8.139,0,0,0-8.526,8.419,8.139,8.139,0,0,0,8.526,8.419A8.139,8.139,0,0,0-1862.477,1091.723Z" transform="translate(1881.841 -1081.099)" fill="#2176a0"/>
        <path id="Path_158" data-name="Path 158" d="M-1871.19,1102.195c-6.259,0-10.8-4.468-10.8-10.623s4.558-10.624,10.838-10.624a10.4,10.4,0,0,1,10.8,10.695v10.089h-3.589v-2.119A10.63,10.63,0,0,1-1871.19,1102.195Zm.036-17.693a6.816,6.816,0,0,0-7.177,7.07,6.816,6.816,0,0,0,7.177,7.07,6.817,6.817,0,0,0,7.177-7.07A6.816,6.816,0,0,0-1871.154,1084.5Z" transform="translate(1881.992 -1080.948)" fill="#2176a0"/>
      </g>
      <g id="Group_2140" data-name="Group 2140" transform="translate(43.132)">
        <path id="Path_159" data-name="Path 159" d="M-1855.535,1089.689c0-4.851,2.925-7.241,7.17-7.241s7.135,2.39,7.135,7.241v.322h-.893v-.322c0-4.316-2.5-6.385-6.242-6.385s-6.243,2.069-6.243,6.385v10.845h-.927Z" transform="translate(1856.884 -1081.099)" fill="#2176a0"/>
        <path id="Path_160" data-name="Path 160" d="M-1853.41,1101.731h-3.625v-12.193c0-5.3,3.264-8.59,8.519-8.59,5.232,0,8.484,3.292,8.484,8.59v1.671h-3.59v-1.671c0-3.341-1.645-5.036-4.893-5.036s-4.894,1.695-4.894,5.036Z" transform="translate(1857.035 -1080.948)" fill="#2176a0"/>
      </g>
      <g id="Group_2141" data-name="Group 2141" transform="translate(59.256)">
        <path id="Path_161" data-name="Path 161" d="M-1837.6,1091.723c0-5.351,3.924-9.275,9.489-9.275s9.453,3.924,9.453,9.275v.071h-17.979a8.122,8.122,0,0,0,8.526,8.348,8.17,8.17,0,0,0,7.7-4.567h1a9.018,9.018,0,0,1-8.7,5.423C-1833.678,1101-1837.6,1097.073-1837.6,1091.723Zm17.979-.785a8.1,8.1,0,0,0-8.49-7.634,8.135,8.135,0,0,0-8.526,7.634Z" transform="translate(1838.951 -1081.099)" fill="#2176a0"/>
        <path id="Path_162" data-name="Path 162" d="M-1828.264,1102.195c-6.28,0-10.838-4.468-10.838-10.623s4.558-10.624,10.838-10.624c6.259,0,10.8,4.467,10.8,10.624v1.349l-1.349.071h-16.514c.581,3.431,3.278,5.65,7.061,5.65a6.817,6.817,0,0,0,6.487-3.8l.365-.772h3.869l-.771,1.864A10.42,10.42,0,0,1-1828.264,1102.195Zm-6.925-12.757h13.814a6.785,6.785,0,0,0-6.889-4.936A6.815,6.815,0,0,0-1835.189,1089.438Z" transform="translate(1839.102 -1080.948)" fill="#2176a0"/>
      </g>
    </g>
    <g id="Group_2148" data-name="Group 2148" transform="translate(-1944.237 1097.803)">
      <g id="Group_2143" data-name="Group 2143" transform="translate(13.893 8.249)">
        <path id="Path_163" data-name="Path 163" d="M-1923.521,1109.753" transform="translate(1923.521 -1109.753)" fill="#0c5d84"/>
      </g>
      <g id="Group_2144" data-name="Group 2144" transform="translate(0 3.221)">
        <path id="Path_164" data-name="Path 164" d="M-1925.043,1110.016l.031.016-.034-.015-.033.015.031-.016-13.183-5.855s-1.67.585,0,1.526,10.931,6.2,11.512,6.09,1.639-1.22,1.639-1.22.933,1.267,1.549,1.267,10.8-5.787,11.6-6.137,0-1.5,0-1.5Z" transform="translate(1938.972 -1104.161)" fill="#0c5d84"/>
      </g>
      <g id="Group_2145" data-name="Group 2145" transform="translate(13.544)">
        <path id="Path_165" data-name="Path 165" d="M-1919.415,1105.635l-4.494,3.545s13.338-8.036,12.238-8.566S-1919.415,1105.635-1919.415,1105.635Z" transform="translate(1923.909 -1100.579)" fill="#0c5d84"/>
      </g>
      <g id="Group_2146" data-name="Group 2146" transform="translate(1.839 0.396)">
        <path id="Path_166" data-name="Path 166" d="M-1928.672,1106.02l4.135,3.2s-13.68-8.039-12.291-8.2S-1928.672,1106.02-1928.672,1106.02Z" transform="translate(1936.927 -1101.019)" fill="#0c5d84"/>
      </g>
      <g id="Group_2147" data-name="Group 2147" transform="translate(1.091 1.783)">
        <path id="Path_167" data-name="Path 167" d="M-1912.1,1102.562l-12.854,6.466-12.8-6.2,12.835,7.024Z" transform="translate(1937.758 -1102.562)" fill="#0c5d84"/>
      </g>
    </g>
  </g>
</svg>
