<svg xmlns="http://www.w3.org/2000/svg" width="75" height="75" viewBox="0 0 75 75">
  <g id="marts" transform="translate(8332 -3135)">
    <g id="_10lak" data-name="10lak" transform="translate(-9372 1206)">
      <circle id="Ellipse_532" data-name="Ellipse 532" cx="37.5" cy="37.5" r="37.5" transform="translate(1040 1929)" fill="#0573ac"/>
      <g id="cinema" transform="translate(1055 1910)">
        <g id="Group_1729" data-name="Group 1729" transform="translate(0 38)">
          <g id="Group_1728" data-name="Group 1728">
            <path id="Path_2037" data-name="Path 2037" d="M43.752,65.691v-.23a2.534,2.534,0,0,0-1.143-2.117,4.127,4.127,0,0,0,1.143-2.857,4.878,4.878,0,0,0-1.177-3.107,4.05,4.05,0,0,0-2.309-1.406v-14.7A3.272,3.272,0,0,0,37,38H7.626a3.272,3.272,0,0,0-3.268,3.268v14.7a4.05,4.05,0,0,0-2.309,1.406A4.878,4.878,0,0,0,.872,60.486a4.126,4.126,0,0,0,1.143,2.857A2.534,2.534,0,0,0,.872,65.46v.23A1.526,1.526,0,0,0,0,67.066v4.358a.654.654,0,0,0,1.307,0V67.066a.218.218,0,0,1,.218-.218H8.5a.218.218,0,0,1,.218.218v2.4H7.278a1.527,1.527,0,0,0-1.525,1.525v4.358a.654.654,0,1,0,1.307,0v-4.36a.218.218,0,0,1,.218-.218H14.25a.218.218,0,0,1,.218.218v4.358a.654.654,0,1,0,1.307,0V70.989a1.527,1.527,0,0,0-1.525-1.525H12.841v-2.4a.218.218,0,0,1,.218-.218h6.972a.218.218,0,0,1,.218.218v2.4h-1.38a1.527,1.527,0,0,0-1.525,1.525v4.358a.654.654,0,1,0,1.307,0V70.989a.218.218,0,0,1,.218-.218h6.972a.218.218,0,0,1,.218.218v4.358a.654.654,0,1,0,1.307,0V70.989a1.527,1.527,0,0,0-1.525-1.525H24.375v-2.4a.218.218,0,0,1,.218-.218h6.972a.218.218,0,0,1,.218.218v2.4H30.461a1.527,1.527,0,0,0-1.525,1.525v4.358a.654.654,0,1,0,1.307,0V70.989a.218.218,0,0,1,.218-.218h6.972a.218.218,0,0,1,.218.218v4.358a.654.654,0,1,0,1.307,0V70.989a1.527,1.527,0,0,0-1.525-1.525H35.908v-2.4a.218.218,0,0,1,.218-.218H43.1a.218.218,0,0,1,.218.218v4.358a.654.654,0,0,0,1.307,0V67.067a1.526,1.526,0,0,0-.873-1.376ZM5.982,63.736a.654.654,0,0,0,.635.5A1.228,1.228,0,0,1,7.844,65.46v.081H2.179V65.46a1.228,1.228,0,0,1,1.227-1.227A.654.654,0,0,0,3.707,63a2.826,2.826,0,0,1-1.528-2.514c0-1.511,1.237-3.268,2.833-3.268,1.572,0,2.813,1.738,2.832,3.232v.036A2.826,2.826,0,0,1,6.316,63a.654.654,0,0,0-.334.736ZM12.4,65.461v.23a1.526,1.526,0,0,0-.872,1.376v2.4h-1.51v-2.4a1.526,1.526,0,0,0-.872-1.376v-.23a2.534,2.534,0,0,0-1.143-2.117,4.12,4.12,0,0,0,1.1-2.247H12.45a4.121,4.121,0,0,0,1.1,2.247A2.534,2.534,0,0,0,12.4,65.461Zm5.111-1.725a.654.654,0,0,0,.635.5,1.228,1.228,0,0,1,1.227,1.227v.081H13.713V65.46a1.228,1.228,0,0,1,1.227-1.227A.654.654,0,0,0,15.24,63a2.826,2.826,0,0,1-1.528-2.516v-.034c.018-1.495,1.259-3.233,2.832-3.233s2.813,1.738,2.832,3.232v.036A2.826,2.826,0,0,1,17.849,63a.654.654,0,0,0-.333.736Zm6.423,1.725v.23a1.526,1.526,0,0,0-.872,1.376v2.4h-1.51v-2.4a1.526,1.526,0,0,0-.872-1.376v-.23a2.534,2.534,0,0,0-1.143-2.117,4.12,4.12,0,0,0,1.1-2.247h3.344a4.121,4.121,0,0,0,1.1,2.247A2.534,2.534,0,0,0,23.939,65.461Zm5.111-1.725a.654.654,0,0,0,.635.5,1.228,1.228,0,0,1,1.227,1.227v.081H25.246V65.46a1.228,1.228,0,0,1,1.227-1.227.654.654,0,0,0,.3-1.234,2.826,2.826,0,0,1-1.528-2.515v-.035c.018-1.495,1.259-3.233,2.832-3.233s2.813,1.738,2.832,3.232v.036A2.826,2.826,0,0,1,29.383,63a.653.653,0,0,0-.333.736Zm6.423,1.725v.23a1.526,1.526,0,0,0-.872,1.376v2.4H33.09v-2.4a1.526,1.526,0,0,0-.872-1.376v-.23a2.534,2.534,0,0,0-1.143-2.117,4.12,4.12,0,0,0,1.1-2.247h3.344a4.121,4.121,0,0,0,1.1,2.247,2.534,2.534,0,0,0-1.147,2.117Zm.058-5.672h-3.37a4.972,4.972,0,0,0-1.136-2.429,3.718,3.718,0,0,0-5.891,0A4.971,4.971,0,0,0,24,59.789H20.63a4.972,4.972,0,0,0-1.136-2.429,3.9,3.9,0,0,0-2.946-1.449A3.9,3.9,0,0,0,13.6,57.36a4.97,4.97,0,0,0-1.136,2.429H9.094A4.972,4.972,0,0,0,7.957,57.36a4.045,4.045,0,0,0-2.292-1.386V41.268a1.963,1.963,0,0,1,1.961-1.961H37a1.963,1.963,0,0,1,1.961,1.961v14.7a4.045,4.045,0,0,0-2.292,1.386,4.971,4.971,0,0,0-1.138,2.43Zm5.053,3.947a.654.654,0,0,0,.635.5,1.228,1.228,0,0,1,1.227,1.227v.081H36.78V65.46a1.228,1.228,0,0,1,1.227-1.227.654.654,0,0,0,.3-1.234,2.826,2.826,0,0,1-1.528-2.515v-.035c.018-1.495,1.259-3.233,2.832-3.233,1.6,0,2.833,1.757,2.833,3.268A2.826,2.826,0,0,1,40.917,63a.654.654,0,0,0-.334.736Z" transform="translate(0 -38)" fill="#0573ac"/>
          </g>
        </g>
        <g id="Group_1731" data-name="Group 1731" transform="translate(17.735 44.974)">
          <g id="Group_1730" data-name="Group 1730">
            <path id="Path_2038" data-name="Path 2038" d="M212.28,122l-7.844-3.922a.661.661,0,0,0-.635.029.65.65,0,0,0-.31.556V123.9a.654.654,0,1,0,1.307,0v-4.171l5.729,2.864c-6.963,3.482-6.729,3.368-6.729,3.368a.646.646,0,0,0-.215.221h0a.653.653,0,0,0,.26.908h0a.619.619,0,0,0,.2.067h0a.627.627,0,0,0,.255-.011c.06,0,7.927-3.945,7.98-3.972a.654.654,0,0,0,0-1.17Z" transform="translate(-203.49 -118.014)" fill="#0573ac"/>
          </g>
        </g>
      </g>
    </g>
    <g id="surface1" transform="translate(-8314 3153)">
      <path id="Path_2083" data-name="Path 2083" d="M403.382,89.084a.586.586,0,0,0,.806.192l3.176-1.954a.586.586,0,1,0-.614-1l-3.176,1.954A.586.586,0,0,0,403.382,89.084Zm0,0" transform="translate(-371.788 -79.5)" fill="#fff"/>
      <path id="Path_2084" data-name="Path 2084" d="M442.7,167.138l-4.656-.452a.586.586,0,1,0-.113,1.166l4.656.452.057,0a.586.586,0,0,0,.056-1.169Zm0,0" transform="translate(-403.227 -153.66)" fill="#fff"/>
      <path id="Path_2085" data-name="Path 2085" d="M369.565,5.492a.584.584,0,0,0,.758-.334L372.02.8a.586.586,0,0,0-1.092-.425l-1.7,4.36A.586.586,0,0,0,369.565,5.492Zm0,0" transform="translate(-340.348 0)" fill="#fff"/>
      <path id="Path_2086" data-name="Path 2086" d="M25.078,21.35a1.361,1.361,0,0,0-1.87-.443l-.7.432a1.359,1.359,0,0,0-.443,1.87l.4.653L13.254,35.269l-1.946,1.2a.586.586,0,0,0,.616,1l1.532-.945,2.986,4.84a2.394,2.394,0,0,0-1.253.262l-.021.011c-.052.028-.1.057-.156.088l-1.752,1.086a3.143,3.143,0,0,0-1.034,1.059l-.432.652L11.476,45l-.008,0-.014-.007c-.025-.011-.049-.023-.073-.036l-.015-.008a.875.875,0,0,1-.075-.05l-.015-.012c-.022-.017-.044-.035-.064-.055L11.2,44.82a.9.9,0,0,1-.063-.068l-.012-.016a.887.887,0,0,1-.055-.078l-2.532-4.1a.852.852,0,0,1,.277-1.172l.758-.467a.586.586,0,0,0-.615-1l-.758.468a2.024,2.024,0,0,0-.886,2.269L6.754,41a1.609,1.609,0,0,0-.524,2.212l1.43,2.318a1.6,1.6,0,0,0,1,.72,1.623,1.623,0,0,0,.374.044,1.6,1.6,0,0,0,.841-.24l.565-.348a2.023,2.023,0,0,0,.385.276L9.2,48.434l-.384.262a.708.708,0,0,0-.776.089l-1.009.85a.713.713,0,0,0-.786.012l-.033.024L.524,54.157A1.369,1.369,0,0,0,0,55.238v1.825A1.378,1.378,0,0,0,1.377,58.44h9.3a1.37,1.37,0,0,0,1.073-.515l.771-.959a.711.711,0,0,0,.172-.544l1.037-.873a.7.7,0,0,0,.215-.317l2.391.49a.575.575,0,0,0,.107.012l.209,0a3.116,3.116,0,0,0,1.721-.415l2.409-1.435c.04,0,.081,0,.121,0a1.9,1.9,0,0,0,.994-.282l1.935-1.183a1.911,1.911,0,0,0-.132-3.337,1.931,1.931,0,0,0-1.241-2.771A1.927,1.927,0,0,0,21.1,44.051a1.928,1.928,0,0,0-.219-1.495,1.959,1.959,0,0,0-.256-.331L32.238,39.7l.4.653a1.36,1.36,0,0,0,1.87.443l.7-.432a1.359,1.359,0,0,0,.443-1.87ZM9.257,45.058a.436.436,0,0,1-.6-.142L7.228,42.6A.436.436,0,0,1,7.37,42l.5-.307,1.887,3.059Zm1.577,12.133a.2.2,0,0,1-.16.077h-9.3a.205.205,0,0,1-.2-.2V55.238a.2.2,0,0,1,.078-.161l5.331-4.208,4.8,5.636Zm1.191-1.742L7.811,50.506l.624-.525,4.183,4.971Zm5.743-1.133a2.135,2.135,0,0,1-1.253.247l-3-.616a.585.585,0,0,0-.212,0L9.616,49.565l.334-.228h0l.016-.013L10,49.295l.017-.016c.012-.011.023-.022.034-.034l.013-.014c.013-.016.026-.032.037-.049l0,0,0,0,0,0,3.1-4.667.019-.031a1.917,1.917,0,0,1,.647-.666l1.752-1.086c.032-.02.065-.038.1-.055l.045-.021.053-.023.062-.023.033-.011L16,42.564h0a1.244,1.244,0,0,1,.286-.035h.006c.028,0,.056,0,.084,0l.027,0,.074.009.044.008a1.132,1.132,0,0,1,.11.027l.042.012.055.021.043.017.054.025.039.02.053.03.035.023c.017.012.035.023.052.036l.03.024c.017.014.034.028.051.042a1.123,1.123,0,0,1,.207.249l.043.07.625,1.019.784,1.279.2.326a.513.513,0,0,1,.046.1.547.547,0,0,1,.016.317.6.6,0,0,1-.276.374l-.352.215h0a.619.619,0,0,1-.075.038l-.016.007a.606.606,0,0,1-.077.026l-.01,0a.614.614,0,0,1-.073.013l-.014,0a.678.678,0,0,1-.078,0h-.015a.6.6,0,0,1-.079-.01h0a.575.575,0,0,1-.081-.023l-.007,0a.55.55,0,0,1-.152-.088h0a.566.566,0,0,1-.063-.06l0-.006a.512.512,0,0,1-.05-.068L17,45.651a1.549,1.549,0,0,0-.972-.7,1.6,1.6,0,0,0-1.223.2.586.586,0,0,0-.272.419c-.007.05-.015.1-.024.148s-.014.07-.022.105l-.008.035c-.01.044-.022.087-.034.13l0,.005a2.482,2.482,0,0,1-.276.623h0a2.751,2.751,0,0,1-.93.891.586.586,0,1,0,.609,1,4.288,4.288,0,0,0,.76-.583l2.447,3.859a2.428,2.428,0,0,0,2.036,1.1c.043,0,.085,0,.128,0,.017.031.034.061.052.091a1.932,1.932,0,0,0,.236.311Zm.5-4.308h0c.01.027.02.054.032.081l0,.01c.01.024.021.049.032.073l.008.016c.011.023.023.045.034.067l.01.02c.016.029.032.057.049.085.029.048.061.094.094.139l.036.047c.022.027.044.054.067.08s.032.037.049.055.026.026.039.039a1.93,1.93,0,0,0,.149.134l.016.013a1.9,1.9,0,0,0,.324.208,1.929,1.929,0,0,0-.207.638,1.244,1.244,0,0,1-.967-.562L15.341,46.9a3.771,3.771,0,0,0,.286-.826.437.437,0,0,1,.125.011.387.387,0,0,1,.243.174l.584.955,0,0a1.628,1.628,0,0,0,.093.136c.024.032.051.062.077.092l.027.032,0,.016q.014.061.031.121l.01.035c.014.045.03.09.047.134,0,0,0,.009.005.013.016.04.034.08.053.119l.017.034c.022.043.045.085.07.126a1.92,1.92,0,0,0,1.177.866A1.926,1.926,0,0,0,18.266,50.009Zm.374-6.974.2-.12a.762.762,0,1,1,.794,1.3l-.2.12-.579-.945Zm4.367,7.038a.741.741,0,0,1,.212,1.353L21.284,52.61a.736.736,0,0,1-.514.1l-.031-.006-.016,0a.737.737,0,0,1-.552-.573.045.045,0,0,0,0-.007.746.746,0,0,1,.2-.658l.013-.014.026-.024.028-.023.021-.017c.017-.013.035-.025.053-.037h0l.385-.235a1.994,1.994,0,0,0,.2-.105l1.48-.905A.738.738,0,0,1,23.006,50.073ZM21.658,47.5a.761.761,0,0,1,.725,1.337l-.349.213a1.958,1.958,0,0,0-.2.106l-1.473.9a.764.764,0,0,1-.795-.15h0c-.016-.015-.032-.031-.047-.048l-.012-.014c-.011-.013-.022-.026-.032-.039s-.028-.039-.041-.06-.024-.043-.035-.065l-.009-.021c-.007-.015-.013-.03-.019-.046l-.008-.024c0-.015-.009-.03-.013-.045l-.006-.025q-.005-.022-.009-.046l0-.024c0-.016,0-.032,0-.048s0-.015,0-.023,0-.033,0-.049,0-.014,0-.021,0-.033,0-.05,0-.014,0-.021.005-.029.008-.044a.76.76,0,0,1,.244-.416l.015-.015.022-.019.055-.031,1.9-1.162Q21.619,47.532,21.658,47.5Zm-.91-2.338a.762.762,0,0,1,.288,1.342l-.058.033-1.468.9.014-.012c.028-.022.056-.045.082-.069l.048-.045c.024-.023.048-.047.07-.071s.03-.034.045-.051.042-.05.061-.076.028-.036.041-.055.036-.054.054-.081.024-.038.035-.058.032-.06.047-.09.02-.038.028-.057.029-.069.042-.1c.006-.017.013-.033.019-.05.018-.053.034-.106.047-.161s.022-.1.03-.157c0-.017,0-.034.006-.05,0-.036.008-.072.01-.108,0-.02,0-.039,0-.059s0-.067,0-.1,0-.04,0-.06-.006-.067-.011-.1,0-.037-.008-.056c-.006-.038-.014-.075-.024-.112,0-.013-.005-.027-.009-.041-.013-.05-.029-.1-.047-.149l-.012-.029c-.013-.033-.025-.066-.04-.1l.135-.082A.757.757,0,0,1,20.748,45.167Zm13.933-5.918a.187.187,0,0,1-.084.116l-.7.433a.188.188,0,0,1-.258-.061l-7.38-11.961a.586.586,0,1,0-1,.615l6.325,10.251L17.97,41.605,14.363,35.76,23.12,24.92l.707,1.147a.586.586,0,1,0,1-.616l-1.763-2.857a.187.187,0,0,1,.061-.258l.7-.432a.187.187,0,0,1,.258.061L34.658,39.108A.186.186,0,0,1,34.681,39.249Zm0,0" transform="translate(0 -19.087)" fill="#fff"/>
    </g>
  </g>
</svg>
