<svg xmlns="http://www.w3.org/2000/svg" width="15" height="15" viewBox="0 0 15 15"><g transform="translate(3.608 4.845)"><path d="M130.8,165.554a.608.608,0,0,0-.86-.023l-3.882,3.682-1.852-1.9a.608.608,0,0,0-.871.849l2.27,2.331a.608.608,0,0,0,.854.017l4.318-4.095A.608.608,0,0,0,130.8,165.554Z" transform="translate(-123.158 -165.364)" fill="#ff7a17"/></g><path d="M7.5,0A7.5,7.5,0,1,0,15,7.5,7.508,7.508,0,0,0,7.5,0Zm0,13.784A6.284,6.284,0,1,1,13.784,7.5,6.291,6.291,0,0,1,7.5,13.784Z" fill="#ff7a17"/></svg>