<svg xmlns="http://www.w3.org/2000/svg" width="43.333" height="50" viewBox="0 0 43.333 50">
  <g id="organization" transform="translate(-48 -16)">
    <path id="Path_1942" data-name="Path 1942" d="M184,288h2.5v1.667H184Z" transform="translate(-121.833 -243.667)" fill="#fff"/>
    <path id="Path_1943" data-name="Path 1943" d="M224,288h2.5v1.667H224Z" transform="translate(-157.667 -243.667)" fill="#fff"/>
    <path id="Path_1944" data-name="Path 1944" d="M264,288h2.5v1.667H264Z" transform="translate(-193.5 -243.667)" fill="#fff"/>
    <path id="Path_1945" data-name="Path 1945" d="M304,288h2.5v1.667H304Z" transform="translate(-229.333 -243.667)" fill="#fff"/>
    <path id="Path_1946" data-name="Path 1946" d="M184,256h2.5v1.667H184Z" transform="translate(-121.833 -215)" fill="#fff"/>
    <path id="Path_1947" data-name="Path 1947" d="M224,256h2.5v1.667H224Z" transform="translate(-157.667 -215)" fill="#fff"/>
    <path id="Path_1948" data-name="Path 1948" d="M264,256h2.5v1.667H264Z" transform="translate(-193.5 -215)" fill="#fff"/>
    <path id="Path_1949" data-name="Path 1949" d="M304,256h2.5v1.667H304Z" transform="translate(-229.333 -215)" fill="#fff"/>
    <path id="Path_1950" data-name="Path 1950" d="M184,224h2.5v1.667H184Z" transform="translate(-121.833 -186.333)" fill="#fff"/>
    <path id="Path_1951" data-name="Path 1951" d="M224,224h2.5v1.667H224Z" transform="translate(-157.667 -186.333)" fill="#fff"/>
    <path id="Path_1952" data-name="Path 1952" d="M264,224h2.5v1.667H264Z" transform="translate(-193.5 -186.333)" fill="#fff"/>
    <path id="Path_1953" data-name="Path 1953" d="M304,224h2.5v1.667H304Z" transform="translate(-229.333 -186.333)" fill="#fff"/>
    <path id="Path_1954" data-name="Path 1954" d="M184,320h2.5v1.667H184Z" transform="translate(-121.833 -272.333)" fill="#fff"/>
    <path id="Path_1955" data-name="Path 1955" d="M224,320h2.5v1.667H224Z" transform="translate(-157.667 -272.333)" fill="#fff"/>
    <path id="Path_1956" data-name="Path 1956" d="M264,320h2.5v1.667H264Z" transform="translate(-193.5 -272.333)" fill="#fff"/>
    <path id="Path_1957" data-name="Path 1957" d="M304,320h2.5v1.667H304Z" transform="translate(-229.333 -272.333)" fill="#fff"/>
    <path id="Path_1958" data-name="Path 1958" d="M184,352h2.5v1.667H184Z" transform="translate(-121.833 -301)" fill="#fff"/>
    <path id="Path_1959" data-name="Path 1959" d="M224,352h2.5v1.667H224Z" transform="translate(-157.667 -301)" fill="#fff"/>
    <path id="Path_1960" data-name="Path 1960" d="M264,352h2.5v1.667H264Z" transform="translate(-193.5 -301)" fill="#fff"/>
    <path id="Path_1961" data-name="Path 1961" d="M304,352h2.5v1.667H304Z" transform="translate(-229.333 -301)" fill="#fff"/>
    <path id="Path_1962" data-name="Path 1962" d="M184,384h2.5v1.667H184Z" transform="translate(-121.833 -329.667)" fill="#fff"/>
    <path id="Path_1963" data-name="Path 1963" d="M224,384h2.5v1.667H224Z" transform="translate(-157.667 -329.667)" fill="#fff"/>
    <path id="Path_1964" data-name="Path 1964" d="M264,384h2.5v1.667H264Z" transform="translate(-193.5 -329.667)" fill="#fff"/>
    <path id="Path_1965" data-name="Path 1965" d="M304,384h2.5v1.667H304Z" transform="translate(-229.333 -329.667)" fill="#fff"/>
    <path id="Path_1966" data-name="Path 1966" d="M184,416h2.5v1.667H184Z" transform="translate(-121.833 -358.333)" fill="#fff"/>
    <path id="Path_1967" data-name="Path 1967" d="M304,416h2.5v1.667H304Z" transform="translate(-229.333 -358.333)" fill="#fff"/>
    <path id="Path_1968" data-name="Path 1968" d="M80,384h1.667v1.667H80Z" transform="translate(-28.667 -329.667)" fill="#fff"/>
    <path id="Path_1969" data-name="Path 1969" d="M112,384h1.667v1.667H112Z" transform="translate(-57.333 -329.667)" fill="#fff"/>
    <path id="Path_1970" data-name="Path 1970" d="M80,352h1.667v1.667H80Z" transform="translate(-28.667 -301)" fill="#fff"/>
    <path id="Path_1971" data-name="Path 1971" d="M112,352h1.667v1.667H112Z" transform="translate(-57.333 -301)" fill="#fff"/>
    <path id="Path_1972" data-name="Path 1972" d="M80,320h1.667v1.667H80Z" transform="translate(-28.667 -272.333)" fill="#fff"/>
    <path id="Path_1973" data-name="Path 1973" d="M112,320h1.667v1.667H112Z" transform="translate(-57.333 -272.333)" fill="#fff"/>
    <path id="Path_1974" data-name="Path 1974" d="M200,128h1.667v1.667H200Z" transform="translate(-136.167 -100.333)" fill="#fff"/>
    <path id="Path_1975" data-name="Path 1975" d="M232,128h1.667v1.667H232Z" transform="translate(-164.833 -100.333)" fill="#fff"/>
    <path id="Path_1976" data-name="Path 1976" d="M264,128h1.667v1.667H264Z" transform="translate(-193.5 -100.333)" fill="#fff"/>
    <path id="Path_1977" data-name="Path 1977" d="M296,128h1.667v1.667H296Z" transform="translate(-222.167 -100.333)" fill="#fff"/>
    <path id="Path_1978" data-name="Path 1978" d="M200,160h1.667v1.667H200Z" transform="translate(-136.167 -129)" fill="#fff"/>
    <path id="Path_1979" data-name="Path 1979" d="M232,160h1.667v1.667H232Z" transform="translate(-164.833 -129)" fill="#fff"/>
    <path id="Path_1980" data-name="Path 1980" d="M264,160h1.667v1.667H264Z" transform="translate(-193.5 -129)" fill="#fff"/>
    <path id="Path_1981" data-name="Path 1981" d="M296,160h1.667v1.667H296Z" transform="translate(-222.167 -129)" fill="#fff"/>
    <path id="Path_1982" data-name="Path 1982" d="M80,416h1.667v1.667H80Z" transform="translate(-28.667 -358.333)" fill="#fff"/>
    <path id="Path_1983" data-name="Path 1983" d="M112,416h1.667v1.667H112Z" transform="translate(-57.333 -358.333)" fill="#fff"/>
    <path id="Path_1984" data-name="Path 1984" d="M80,448h1.667v1.667H80Z" transform="translate(-28.667 -387)" fill="#fff"/>
    <path id="Path_1985" data-name="Path 1985" d="M112,448h1.667v1.667H112Z" transform="translate(-57.333 -387)" fill="#fff"/>
    <path id="Path_1986" data-name="Path 1986" d="M416,384h1.667v1.667H416Z" transform="translate(-329.667 -329.667)" fill="#fff"/>
    <path id="Path_1987" data-name="Path 1987" d="M384,384h1.667v1.667H384Z" transform="translate(-301 -329.667)" fill="#fff"/>
    <path id="Path_1988" data-name="Path 1988" d="M416,352h1.667v1.667H416Z" transform="translate(-329.667 -301)" fill="#fff"/>
    <path id="Path_1989" data-name="Path 1989" d="M384,352h1.667v1.667H384Z" transform="translate(-301 -301)" fill="#fff"/>
    <path id="Path_1990" data-name="Path 1990" d="M416,320h1.667v1.667H416Z" transform="translate(-329.667 -272.333)" fill="#fff"/>
    <path id="Path_1991" data-name="Path 1991" d="M384,320h1.667v1.667H384Z" transform="translate(-301 -272.333)" fill="#fff"/>
    <path id="Path_1992" data-name="Path 1992" d="M416,416h1.667v1.667H416Z" transform="translate(-329.667 -358.333)" fill="#fff"/>
    <path id="Path_1993" data-name="Path 1993" d="M384,416h1.667v1.667H384Z" transform="translate(-301 -358.333)" fill="#fff"/>
    <path id="Path_1994" data-name="Path 1994" d="M416,448h1.667v1.667H416Z" transform="translate(-329.667 -387)" fill="#fff"/>
    <path id="Path_1995" data-name="Path 1995" d="M384,448h1.667v1.667H384Z" transform="translate(-301 -387)" fill="#fff"/>
    <path id="Path_1996" data-name="Path 1996" d="M75.5,16H71.333a.833.833,0,0,0-.512.176l-7.5,5.833a.833.833,0,0,0-.322.658v1.667H61.333a.833.833,0,0,0-.833.833v9.167H58.833a.833.833,0,0,0-.833.833v9.167H48.833a.833.833,0,0,0-.833.833v20a.833.833,0,0,0,.833.833H90.5a.833.833,0,0,0,.833-.833v-20a.833.833,0,0,0-.833-.833H81.333V35.167a.833.833,0,0,0-.833-.833H78.833V25.167A.833.833,0,0,0,78,24.333H76.333v-7.5A.833.833,0,0,0,75.5,16ZM49.667,46H58V64.333H49.667Zm40,0V64.333H81.333V46Zm-25-22.926,6.953-5.408h3.047v6.667h-10ZM68,64.333v-5h3.333v5Zm11.667,0H73V58.5a.833.833,0,0,0-.833-.833h-5a.833.833,0,0,0-.833.833v5.833H59.667V36h20Zm-2.5-30h-15V26h15Z" fill="#fff"/>
  </g>
</svg>
