<svg xmlns="http://www.w3.org/2000/svg" width="25" height="25" viewBox="0 0 25 25"><defs><style>.a{fill:#ff7a17;}</style></defs><path class="a" d="M21.339,3.661A12.5,12.5,0,0,0,3.661,21.339,12.5,12.5,0,0,0,21.339,3.661ZM12.5,23.535A11.035,11.035,0,1,1,23.535,12.5,11.048,11.048,0,0,1,12.5,23.535Z"/><g transform="translate(14.121 6.725)"><path class="a" d="M289.931,137.723a.732.732,0,0,0-.732.732v10.086a.732.732,0,0,0,1.465,0V138.455A.732.732,0,0,0,289.931,137.723Z" transform="translate(-289.199 -137.723)"/></g><g transform="translate(9.414 6.725)"><path class="a" d="M193.531,137.723a.732.732,0,0,0-.732.732v10.086a.732.732,0,0,0,1.465,0V138.455A.732.732,0,0,0,193.531,137.723Z" transform="translate(-192.799 -137.723)"/></g></svg>