<svg id="phone-receiver" xmlns="http://www.w3.org/2000/svg" width="57.783" height="62" viewBox="0 0 57.783 62">
  <path id="Path_2083" data-name="Path 2083" d="M7.343,43.153c3.745-3.2,7.546-5.144,11.246-1.945L20.8,43.141c1.616,1.4,4.621,7.96,16.24-5.405,11.616-13.349,4.7-15.427,3.085-16.818L37.9,18.982c-3.68-3.206-2.291-7.242.363-11.4l1.6-2.516C42.533.924,45.436-1.8,49.126,1.4L51.12,3.146a18.715,18.715,0,0,1,7.295,12.386c1.331,8.8-2.867,18.882-12.485,29.942S26.92,62.1,18.011,62A18.765,18.765,0,0,1,4.738,56.5l-2-1.744c-3.68-3.2-1.394-6.455,2.354-9.666Z" transform="translate(-0.872 0)" fill="#1fffe7"/>
</svg>
