<svg xmlns="http://www.w3.org/2000/svg" width="22.107" height="18" viewBox="0 0 22.107 18">
  <g id="photo-camera-interface-symbol-for-button" transform="translate(0 -3.36)">
    <path id="Path_1213" data-name="Path 1213" d="M14.619,13.852a3.565,3.565,0,1,1-3.565-3.565A3.569,3.569,0,0,1,14.619,13.852Zm7.488-5.063V18.916a2.445,2.445,0,0,1-2.444,2.444H2.444A2.445,2.445,0,0,1,0,18.916V8.789A2.445,2.445,0,0,1,2.444,6.345H5.451V5.5A2.139,2.139,0,0,1,7.59,3.36h6.926A2.139,2.139,0,0,1,16.656,5.5v.845h3.007A2.446,2.446,0,0,1,22.107,8.789Zm-5.655,5.063a5.4,5.4,0,1,0-5.4,5.4A5.4,5.4,0,0,0,16.452,13.852Z" transform="translate(0 0)" fill="#787878"/>
  </g>
</svg>
