<svg xmlns="http://www.w3.org/2000/svg" width="60" height="60" viewBox="0 0 60 60"><g transform="translate(-1 -1)"><path d="M60.032,51.774h-.968v-30a2.907,2.907,0,0,0-2.9-2.9H34.871v-2.9A.967.967,0,0,0,33.9,15H28.1a.967.967,0,0,0-.968.968v2.9H5.839a2.907,2.907,0,0,0-2.9,2.9v30H1.968A.967.967,0,0,0,1,52.742v3.871a4.844,4.844,0,0,0,4.839,4.839H56.161A4.844,4.844,0,0,0,61,56.613V52.742A.967.967,0,0,0,60.032,51.774Zm-32.9-11.613H23.258V27.581a.967.967,0,0,0-.968-.968H16.484a.967.967,0,0,0-.968.968V40.161H11.645V42.1h38.71V40.161H46.484V27.581a.967.967,0,0,0-.968-.968H39.71a.967.967,0,0,0-.968.968V40.161H34.871V24.677H53.258V47.9H8.742V24.677H27.129Zm-5.806,0H17.452V28.548h3.871Zm23.226,0H40.677V28.548h3.871ZM32.935,16.935V40.161H29.065V16.935ZM4.871,21.774a.969.969,0,0,1,.968-.968h21.29v1.935H7.774a.967.967,0,0,0-.968.968V48.871a.967.967,0,0,0,.968.968H54.226a.967.967,0,0,0,.968-.968V23.71a.967.967,0,0,0-.968-.968H34.871V20.806h21.29a.969.969,0,0,1,.968.968v30H4.871ZM23.258,53.71H38.742v.968a.968.968,0,0,1-.968.968H24.226a.968.968,0,0,1-.968-.968Zm35.806,2.9a2.907,2.907,0,0,1-2.9,2.9H5.839a2.907,2.907,0,0,1-2.9-2.9v-2.9H21.323v.968a2.907,2.907,0,0,0,2.9,2.9H37.774a2.907,2.907,0,0,0,2.9-2.9V53.71H59.065Z" transform="translate(0 -0.452)" fill="#a63ad6"/><path d="M28.968,12.613h5.806a.967.967,0,0,0,.968-.968v-2.9A3.854,3.854,0,0,0,34.175,5.65a2.876,2.876,0,0,0,.6-1.747,2.9,2.9,0,0,0-5.806,0,2.876,2.876,0,0,0,.6,1.747A3.854,3.854,0,0,0,28,8.742v2.9A.967.967,0,0,0,28.968,12.613Zm4.839-1.935H29.935V8.742a1.935,1.935,0,0,1,3.871,0ZM30.9,3.9a.968.968,0,1,1,.968.968A.969.969,0,0,1,30.9,3.9Z" transform="translate(-0.871)" fill="#a63ad6"/><path d="M40.968,16.613h5.806a.967.967,0,0,0,.968-.968v-2.9A3.854,3.854,0,0,0,46.175,9.65a2.876,2.876,0,0,0,.6-1.747,2.9,2.9,0,0,0-5.806,0,2.876,2.876,0,0,0,.6,1.747A3.854,3.854,0,0,0,40,12.742v2.9A.967.967,0,0,0,40.968,16.613Zm4.839-1.935H41.935V12.742a1.935,1.935,0,1,1,3.871,0ZM42.9,7.9a.968.968,0,1,1,.968.968A.969.969,0,0,1,42.9,7.9Z" transform="translate(-1.258 -0.129)" fill="#a63ad6"/><path d="M16.968,17.613h5.806a.967.967,0,0,0,.968-.968v-2.9a3.854,3.854,0,0,0-1.567-3.092,2.876,2.876,0,0,0,.6-1.747,2.9,2.9,0,0,0-5.806,0,2.876,2.876,0,0,0,.6,1.747A3.854,3.854,0,0,0,16,13.742v2.9A.967.967,0,0,0,16.968,17.613Zm4.839-1.935H17.935V13.742a1.935,1.935,0,1,1,3.871,0ZM18.9,8.9a.968.968,0,1,1,.968.968A.969.969,0,0,1,18.9,8.9Z" transform="translate(-0.484 -0.161)" fill="#a63ad6"/></g></svg>