<svg xmlns="http://www.w3.org/2000/svg" width="50" height="50" viewBox="0 0 50 50">
  <g id="process" transform="translate(-2 -2)">
    <path id="Path_2011" data-name="Path 2011" d="M25.833,59.667a5.838,5.838,0,0,0,5.767-5h8.888l-1.077,1.077,1.178,1.178,2.5-2.5a.833.833,0,0,0,0-1.178l-2.5-2.5-1.178,1.178L40.488,53H31.6a5.83,5.83,0,1,0-5.767,6.667Zm0-10a4.167,4.167,0,1,1-4.167,4.167A4.172,4.172,0,0,1,25.833,49.667Z" transform="translate(-3 -7.667)"/>
    <path id="Path_2012" data-name="Path 2012" d="M53.833,59.667A5.833,5.833,0,1,0,48,53.833,5.84,5.84,0,0,0,53.833,59.667Zm0-10a4.167,4.167,0,1,1-4.167,4.167A4.172,4.172,0,0,1,53.833,49.667Z" transform="translate(-7.667 -7.667)"/>
    <path id="Path_2013" data-name="Path 2013" d="M19.5,25a5.838,5.838,0,0,0-5.767,5H12.417a10.417,10.417,0,1,0,0,20.833h1.738l-1.077,1.077,1.178,1.178,2.5-2.5a.833.833,0,0,0,0-1.178l-2.5-2.5-1.178,1.178,1.077,1.077H12.417a8.75,8.75,0,1,1,0-17.5h1.317A5.83,5.83,0,1,0,19.5,25Zm0,10a4.167,4.167,0,1,1,4.167-4.167A4.172,4.172,0,0,1,19.5,35Z" transform="translate(0 -3.833)"/>
    <path id="Path_2014" data-name="Path 2014" d="M22.589,4.744,21.411,5.923,22.488,7H13.6a5.833,5.833,0,1,0,0,1.667h8.888L21.411,9.744l1.178,1.178,2.5-2.5a.833.833,0,0,0,0-1.178ZM7.833,12A4.167,4.167,0,1,1,12,7.833,4.172,4.172,0,0,1,7.833,12Z"/>
    <path id="Path_2015" data-name="Path 2015" d="M56.667,17.417A10.428,10.428,0,0,0,46.25,7H41.6a5.833,5.833,0,1,0,0,1.667h4.65a8.75,8.75,0,0,1,0,17.5h-13.4l1.077-1.077-1.178-1.178-2.5,2.5a.833.833,0,0,0,0,1.178l2.5,2.5,1.178-1.178-1.077-1.077h13.4A10.428,10.428,0,0,0,56.667,17.417ZM35.833,12A4.167,4.167,0,1,1,40,7.833,4.172,4.172,0,0,1,35.833,12Z" transform="translate(-4.667)"/>
  </g>
</svg>
