<svg xmlns="http://www.w3.org/2000/svg" width="39.999" height="26" viewBox="0 0 39.999 26"><path d="M37.734,2.85c.882.078.872,1.1-.377,2.3-.39.381-.145,1.194-.918,1.693a15.313,15.313,0,0,0-1.553,1.4c-.761.908-.834,1.736-2.153,4.668-1.051,2.382.132,1.639,1.063,1.928.675.21.705.226.963.317C37.9,16.263,41.382,19,39.438,22.8c-.488.955-1.671,1.275-2.723,1.816A26.237,26.237,0,0,1,33.7,25.791c-2.974.786-7.53-.769-9.437-2.594-1.419-1.359-.667-5.376-.264-5.89a11.45,11.45,0,0,1,.1-1.306c.663-2.868,2.825-5.8,5.05-8.56A12.137,12.137,0,0,1,31.456,5.7c1.2-.971,3.433-2.641,4.347-2.585.768.046,1.505-.306,1.931-.268ZM15.614.1c.681.18-1.048,2.521-3.388,4.663a11.166,11.166,0,0,0-2.07,2.686C11.2,8.7,9.679,9.484,9.688,11.97a9.632,9.632,0,0,1,4.282,1.786c.865.337,5.634,3.375,2.1,7.084-1.451,4.306-8.136,5.724-12.82,3.3a4.739,4.739,0,0,1-2.6-4.307S-1,16.411.954,14.543a30.781,30.781,0,0,0,1.539-3.789,8.984,8.984,0,0,1,3.12-4.286s1.823-2.426,2.774-3.6C10.013.89,13.809-.376,15.614.1Zm21.04,22.707c-3.487,1-4.44-.614-5.15,1.245a10.446,10.446,0,0,0,5.17-1.251l-.02.006ZM8.849,21.814a2.231,2.231,0,0,1-3.62.4,3.879,3.879,0,0,1-2.309-.336c3.062,3.259,8.857,1.951,10.658.1A7.2,7.2,0,0,1,8.849,21.814ZM36.91,19.845c-.169-.109-.805,1.349-.817,1.586S38.064,20.6,36.91,19.845ZM29.021,17.61c-1.2,3.3,1.751,3.823,1.951,3.76-1.634-.856-2.01-2.379-1.3-3.469ZM3.066,17.4a7.156,7.156,0,0,0-.75,1.959,5.272,5.272,0,0,0,1.743,1.212C4.544,19.776,4.378,17.848,3.066,17.4Zm23.89,2.063a15.093,15.093,0,0,0,.419-1.937A1.44,1.44,0,0,0,26.956,19.461Zm7.2-2.207c-.876.035.274,1.048-.313,2.572a8.234,8.234,0,0,1,1.647-1.154,1.286,1.286,0,0,0-1.334-1.418ZM11.3,14.658c.927.234,3.57,1.278,2.316,4.086,1.632-1.422.713-3.785-2.316-4.086Z" transform="translate(0 0)" fill="#2957a4"/></svg>