<svg xmlns="http://www.w3.org/2000/svg" width="75" height="75" viewBox="0 0 75 75">
  <g id="rated" transform="translate(-735 -1929)">
    <circle id="Ellipse_531" data-name="Ellipse 531" cx="37.5" cy="37.5" r="37.5" transform="translate(735 1929)" fill="#18d39e"/>
    <g id="_1st-place" data-name="1st-place" transform="translate(745 1944)">
      <path id="Path_2030" data-name="Path 2030" d="M21,3h2.759V14.034H21Z" transform="translate(-1.552)" fill="#fff"/>
      <path id="Path_2031" data-name="Path 2031" d="M27,3h6.9V14.034H27Z" transform="translate(-3.414)" fill="#fff"/>
      <path id="Path_2032" data-name="Path 2032" d="M19,21H36.931v1.379H19Z" transform="translate(-0.931 -5.586)" fill="#fff"/>
      <path id="Path_2033" data-name="Path 2033" d="M37.127,41.672a1.9,1.9,0,0,0,0-3.277.69.69,0,0,1-.172-1.039,1.892,1.892,0,0,0-.981-3.079.69.69,0,0,1-.519-.7c0-.023.008-.086.011-.108a1.912,1.912,0,0,0-1.919-1.866c.014,0-.021.007-.059.008a.7.7,0,0,1-.7-.519,1.892,1.892,0,0,0-3.079-.981.69.69,0,0,1-1.039-.172,1.9,1.9,0,0,0-3.277,0,.69.69,0,0,1-1.039.172,1.892,1.892,0,0,0-3.079.981.694.694,0,0,1-.7.519c-.023,0-.086-.008-.108-.011a1.912,1.912,0,0,0-1.866,1.919c0-.019.007.023.008.059a.69.69,0,0,1-.519.7,1.892,1.892,0,0,0-.981,3.079.69.69,0,0,1-.172,1.039,1.9,1.9,0,0,0,0,3.277.69.69,0,0,1,.172,1.039A1.892,1.892,0,0,0,18.1,45.79a.69.69,0,0,1,.519.7c0,.023-.008.086-.011.108a1.912,1.912,0,0,0,1.919,1.866c-.014,0,.021-.007.059-.008a.7.7,0,0,1,.7.519,1.892,1.892,0,0,0,3.079.981.69.69,0,0,1,1.039.172,1.9,1.9,0,0,0,3.277,0,.69.69,0,0,1,1.039-.172,1.892,1.892,0,0,0,3.079-.981.706.706,0,0,1,.7-.519c.023,0,.086.008.108.011a1.912,1.912,0,0,0,1.866-1.919c0,.018-.007-.023-.008-.059a.69.69,0,0,1,.519-.7,1.892,1.892,0,0,0,.981-3.079.69.69,0,0,1,.172-1.039ZM27.035,48.31a8.276,8.276,0,1,1,8.276-8.276A8.276,8.276,0,0,1,27.035,48.31Z" transform="translate(0 -8.069)" fill="#fff"/>
      <path id="Path_2034" data-name="Path 2034" d="M31.379,26.379a3.257,3.257,0,0,1,1.379.31V25H30v1.69A3.257,3.257,0,0,1,31.379,26.379Z" transform="translate(-4.345 -6.828)" fill="#fff"/>
      <path id="Path_2035" data-name="Path 2035" d="M39,3h2.759V14.034H39Z" transform="translate(-7.138)" fill="#fff"/>
      <path id="Path_2036" data-name="Path 2036" d="M31.539,38.69a.69.69,0,0,0-1.177-.488l-2.069,2.069.975.975.892-.892v5.921H28.781v1.379h4.138V46.276H31.539Z" transform="translate(-3.815 -10.862)" fill="#fff"/>
    </g>
  </g>
</svg>
