<svg xmlns="http://www.w3.org/2000/svg" width="50" height="50" viewBox="0 0 50 50"><defs><style>.a{fill:#ff7a17;}</style></defs><path class="a" d="M25,0A25,25,0,1,0,50,25,25,25,0,0,0,25,0Zm0,46.875A21.875,21.875,0,1,1,46.875,25,21.875,21.875,0,0,1,25,46.875Z"/><circle class="a" cx="3.125" cy="3.125" r="3.125" transform="translate(14.063 14.063)"/><circle class="a" cx="3.125" cy="3.125" r="3.125" transform="translate(29.688 14.063)"/><path class="a" d="M126.063,240A14.062,14.062,0,0,0,112,254.063h3.125a10.938,10.938,0,0,1,21.875,0h3.125A14.062,14.062,0,0,0,126.063,240Z" transform="translate(-101.063 -216.563)"/></svg>