<svg xmlns="http://www.w3.org/2000/svg" width="75" height="75" viewBox="0 0 75 75">
  <g id="semiwork" transform="translate(-1346 -1929)">
    <circle id="Ellipse_533" data-name="Ellipse 533" cx="37.5" cy="37.5" r="37.5" transform="translate(1346 1929)" fill="#40b6ff"/>
    <g id="seminar" transform="translate(1363 1943)">
      <g id="Group_1733" data-name="Group 1733" transform="translate(0 4)">
        <g id="Group_1732" data-name="Group 1732" transform="translate(0 0)">
          <path id="Path_2039" data-name="Path 2039" d="M38.147,23.195a3.312,3.312,0,0,0,1.186-2.528,3.273,3.273,0,0,0-.06-.6c-.007-.041-.013-.081-.022-.121a3.354,3.354,0,0,0-.157-.5c-.022-.056-.047-.11-.072-.165a3.337,3.337,0,0,0-.217-.4c-.043-.067-.09-.129-.137-.193-.066-.089-.136-.173-.211-.255-.055-.061-.109-.121-.168-.178a3.423,3.423,0,0,0-.3-.249A3.306,3.306,0,0,1,40,17.333V16a2,2,0,0,1-2-2,1.968,1.968,0,0,1,.036-.357c.009-.046.021-.091.033-.135a1.9,1.9,0,0,1,.06-.193c.021-.055.042-.111.068-.164s.043-.081.065-.12a2.009,2.009,0,0,1,1.076-.907s0,0,.007,0A1.979,1.979,0,0,1,40,12V10.667a3.336,3.336,0,0,0-.673.069,4.655,4.655,0,0,0-1.181-.873,3.333,3.333,0,1,0-4.293,0,4.655,4.655,0,0,0-1.181.873,3.329,3.329,0,0,0-1.345,0,4.655,4.655,0,0,0-1.181-.873,3.333,3.333,0,1,0-4.293,0,4.655,4.655,0,0,0-1.181.873,3.329,3.329,0,0,0-1.345,0,4.655,4.655,0,0,0-1.181-.873,3.333,3.333,0,1,0-4.293,0,4.655,4.655,0,0,0-1.181.873,3.329,3.329,0,0,0-1.345,0,4.655,4.655,0,0,0-1.181-.873,3.333,3.333,0,1,0-4.293,0,4.655,4.655,0,0,0-1.181.873,3.329,3.329,0,0,0-1.345,0,4.655,4.655,0,0,0-1.181-.873A3.327,3.327,0,1,0,.667,7.333,3.313,3.313,0,0,0,1.853,9.862a4.655,4.655,0,0,0-1.181.873A3.336,3.336,0,0,0,0,10.667V12a1.979,1.979,0,0,1,.655.119s0,0,.007,0a2.006,2.006,0,0,1,1.076.907c.022.039.045.079.065.12s.047.109.068.165a1.886,1.886,0,0,1,.06.192c.012.045.024.09.033.136A1.954,1.954,0,0,1,2,14a2,2,0,0,1-2,2v1.333a3.313,3.313,0,0,1,2.007.673,3.216,3.216,0,0,0-.3.249c-.059.057-.113.117-.168.178a3.22,3.22,0,0,0-.211.255c-.047.063-.095.125-.137.193a3.337,3.337,0,0,0-.217.4c-.025.055-.05.109-.072.165a3.279,3.279,0,0,0-.157.5c-.009.04-.015.081-.022.121a3.16,3.16,0,0,0-.061.6,3.34,3.34,0,0,0,2.667,3.266v5.4H.667v1.333H6v8.667A.666.666,0,0,0,6.667,40h6.667A.666.666,0,0,0,14,39.333V30.667H40.667V27.333A4.668,4.668,0,0,0,38.147,23.195ZM38,20.667a2,2,0,0,1-4,0,1.967,1.967,0,0,1,.036-.357c.009-.046.021-.091.033-.135a1.9,1.9,0,0,1,.06-.193c.021-.055.042-.111.068-.164s.043-.081.065-.12a2.009,2.009,0,0,1,1.076-.907s0,0,.007,0a1.859,1.859,0,0,1,1.311,0s0,0,.007,0a2.006,2.006,0,0,1,1.076.907c.022.039.045.079.065.12s.047.109.068.165a1.886,1.886,0,0,1,.06.192c.012.045.024.09.033.136A1.954,1.954,0,0,1,38,20.667ZM36,5.333a2,2,0,1,1-2,2A2,2,0,0,1,36,5.333Zm2.007,6.007a3.216,3.216,0,0,0-.3.249c-.059.057-.113.117-.168.178a3.22,3.22,0,0,0-.211.255c-.047.063-.095.125-.137.193a3.337,3.337,0,0,0-.217.4c-.025.055-.05.109-.072.165a3.279,3.279,0,0,0-.157.5c-.009.04-.015.081-.022.121a3.215,3.215,0,0,0-.061.6,3.313,3.313,0,0,0,1.187,2.529,4.655,4.655,0,0,0-1.181.873,3.329,3.329,0,0,0-1.345,0,4.655,4.655,0,0,0-1.181-.873A3.313,3.313,0,0,0,35.333,14a3.273,3.273,0,0,0-.06-.6c-.007-.041-.013-.081-.022-.121a3.354,3.354,0,0,0-.157-.5c-.022-.056-.047-.11-.072-.165a3.337,3.337,0,0,0-.217-.4c-.043-.067-.09-.129-.137-.193-.066-.089-.136-.173-.211-.255-.055-.061-.109-.121-.168-.178a3.421,3.421,0,0,0-.3-.249A3.419,3.419,0,0,1,38.007,11.34Zm-7.938,2.167a1.9,1.9,0,0,1,.06-.193c.021-.055.042-.111.068-.164s.043-.081.065-.12a2.009,2.009,0,0,1,1.076-.907s0,0,.007,0a1.859,1.859,0,0,1,1.311,0s0,0,.007,0a2.006,2.006,0,0,1,1.076.907c.022.039.045.079.065.12s.047.109.068.165a1.886,1.886,0,0,1,.06.192c.012.045.024.09.033.136A1.954,1.954,0,0,1,34,14a2,2,0,0,1-4,0,1.968,1.968,0,0,1,.036-.357C30.045,13.6,30.057,13.552,30.069,13.507ZM28,5.333a2,2,0,1,1-2,2A2,2,0,0,1,28,5.333Zm2.007,6.007a3.216,3.216,0,0,0-.3.249c-.059.057-.113.117-.168.178a3.22,3.22,0,0,0-.211.255c-.047.063-.095.125-.137.193a3.337,3.337,0,0,0-.217.4c-.025.055-.05.109-.072.165a3.279,3.279,0,0,0-.157.5c-.009.04-.015.081-.022.121a3.215,3.215,0,0,0-.061.6,3.313,3.313,0,0,0,1.187,2.529,4.655,4.655,0,0,0-1.181.873,3.329,3.329,0,0,0-1.345,0,4.655,4.655,0,0,0-1.181-.873A3.313,3.313,0,0,0,27.333,14a3.273,3.273,0,0,0-.06-.6c-.007-.041-.013-.081-.022-.121a3.354,3.354,0,0,0-.157-.5c-.022-.056-.047-.11-.072-.165a3.337,3.337,0,0,0-.217-.4c-.043-.067-.09-.129-.137-.193-.066-.089-.136-.173-.211-.255-.055-.061-.109-.121-.168-.178a3.421,3.421,0,0,0-.3-.249A3.419,3.419,0,0,1,30.007,11.34Zm-.043,8.97a1.954,1.954,0,0,1,.036.357,2,2,0,0,1-4,0,1.968,1.968,0,0,1,.036-.357c.009-.046.021-.091.033-.135a1.9,1.9,0,0,1,.06-.193c.021-.055.042-.111.068-.164s.043-.081.065-.12a2.009,2.009,0,0,1,1.076-.907s0,0,.007,0a1.859,1.859,0,0,1,1.311,0s0,0,.007,0a2.006,2.006,0,0,1,1.076.907c.022.039.045.079.065.12s.047.109.068.165a1.886,1.886,0,0,1,.06.192C29.943,20.219,29.955,20.264,29.964,20.31Zm-7.9-6.8a1.9,1.9,0,0,1,.06-.193c.021-.055.042-.111.068-.164s.043-.081.065-.12a2.009,2.009,0,0,1,1.076-.907s0,0,.007,0a1.859,1.859,0,0,1,1.311,0s0,0,.007,0a2.006,2.006,0,0,1,1.076.907c.022.039.045.079.065.12s.047.109.068.165a1.886,1.886,0,0,1,.06.192c.012.045.024.09.033.136A1.954,1.954,0,0,1,26,14a2,2,0,0,1-4,0,1.968,1.968,0,0,1,.036-.357C22.045,13.6,22.057,13.552,22.069,13.507ZM20,5.333a2,2,0,1,1-2,2A2,2,0,0,1,20,5.333Zm2.007,6.007a3.216,3.216,0,0,0-.3.249c-.059.057-.113.117-.168.178a3.219,3.219,0,0,0-.211.255c-.047.063-.095.125-.137.193a3.337,3.337,0,0,0-.217.4c-.025.055-.05.109-.072.165a3.279,3.279,0,0,0-.157.5c-.009.04-.015.081-.022.121a3.215,3.215,0,0,0-.061.6,3.312,3.312,0,0,0,1.189,2.53c-.083.043-.161.093-.241.141l-.476-.476a.666.666,0,0,0-.943,0l-1.042,1.042a4.648,4.648,0,0,0-1.007-.709A3.311,3.311,0,0,0,19.333,14a3.273,3.273,0,0,0-.06-.6c-.007-.041-.013-.081-.022-.121a3.354,3.354,0,0,0-.157-.5c-.022-.056-.047-.11-.072-.165a3.337,3.337,0,0,0-.217-.4c-.043-.067-.09-.129-.137-.193-.066-.089-.136-.173-.211-.255-.055-.061-.109-.121-.168-.178a3.422,3.422,0,0,0-.3-.249A3.419,3.419,0,0,1,22.007,11.34ZM22,20.667a2,2,0,0,1-2.358,1.967l2.322-2.322c0,.008,0,.016.006.024A2.026,2.026,0,0,1,22,20.667Zm-3.79-2.486L16.391,20H15.261a3.289,3.289,0,0,0-1.267-1.988,3.3,3.3,0,0,1,4.215.169Zm-4.141-4.673a1.9,1.9,0,0,1,.06-.193c.021-.055.042-.111.068-.164s.043-.081.065-.12a2.009,2.009,0,0,1,1.076-.907s0,0,.007,0a1.859,1.859,0,0,1,1.311,0s0,0,.007,0a2.006,2.006,0,0,1,1.076.907c.022.039.045.079.065.12s.047.109.068.165a1.886,1.886,0,0,1,.06.192c.012.045.024.09.033.136A1.954,1.954,0,0,1,18,14a2,2,0,0,1-4,0,1.968,1.968,0,0,1,.036-.357C14.045,13.6,14.057,13.552,14.069,13.507ZM12,5.333a2,2,0,1,1-2,2A2,2,0,0,1,12,5.333Zm2.007,6.007a3.216,3.216,0,0,0-.3.249c-.059.057-.113.117-.168.178a3.22,3.22,0,0,0-.211.255c-.047.063-.095.125-.137.193a3.337,3.337,0,0,0-.217.4c-.025.055-.05.109-.072.165a3.279,3.279,0,0,0-.157.5c-.009.04-.015.081-.022.121a3.215,3.215,0,0,0-.061.6,3.236,3.236,0,0,0,.04.4,4,4,0,0,0-1.407-.842c-.007-.051-.018-.1-.027-.151s-.013-.081-.022-.121a3.354,3.354,0,0,0-.157-.5c-.022-.056-.047-.11-.072-.165a3.337,3.337,0,0,0-.217-.4c-.043-.067-.09-.129-.137-.193-.066-.089-.136-.173-.211-.255-.055-.061-.109-.121-.168-.178a3.316,3.316,0,0,0-.3-.249A3.419,3.419,0,0,1,14.007,11.34ZM13.879,20h-.905a4.017,4.017,0,0,0,.491-.675A1.956,1.956,0,0,1,13.879,20Zm-3.869-5.333a2.562,2.562,0,0,1,2.627,2.969c0,.006,0,.011-.005.017a2.481,2.481,0,0,1-.092.445s0,.008,0,.012a2.659,2.659,0,0,1-5.2-.777,2.631,2.631,0,0,1,.121-.749s.005-.007.007-.012a2.706,2.706,0,0,1,.438-.861c.015-.019.031-.037.046-.056a2.707,2.707,0,0,1,.263-.283c.042-.039.088-.073.133-.109a2.807,2.807,0,0,1,.239-.178c.072-.045.149-.083.225-.122s.135-.073.205-.1a2.732,2.732,0,0,1,.312-.1c.057-.015.111-.036.169-.047a2.614,2.614,0,0,1,.411-.041C9.937,14.675,9.973,14.667,10.009,14.667ZM6.069,13.507a1.9,1.9,0,0,1,.06-.193c.021-.055.042-.111.068-.164s.043-.081.065-.12a2.009,2.009,0,0,1,1.076-.907s0,0,.007,0A1.979,1.979,0,0,1,8,12a2,2,0,0,1,.626.1c.013.006.022.019.036.023A2.006,2.006,0,0,1,9.88,13.336c-.027,0-.052.006-.079.007-.116.006-.231.015-.344.031-.053.007-.107.015-.159.025-.111.019-.219.045-.326.073-.045.012-.091.021-.136.035a3.967,3.967,0,0,0-.413.151c-.048.021-.093.045-.14.068-.092.044-.182.09-.27.141-.05.029-.1.059-.147.089-.095.06-.186.124-.275.191-.029.023-.06.043-.089.066a4.023,4.023,0,0,0-.969,1.132,2.009,2.009,0,0,1-.239-.313c-.024-.039-.041-.081-.062-.121a1.959,1.959,0,0,1-.133-.321c-.013-.041-.027-.083-.037-.125A2,2,0,0,1,6,14a1.968,1.968,0,0,1,.036-.357C6.045,13.6,6.057,13.552,6.069,13.507ZM4,5.333a2,2,0,1,1-2,2A2,2,0,0,1,4,5.333ZM1.994,11.34a3.419,3.419,0,0,1,4.014,0,3.216,3.216,0,0,0-.3.249c-.059.057-.113.117-.168.178a3.219,3.219,0,0,0-.211.255c-.047.063-.095.125-.137.193a3.337,3.337,0,0,0-.217.4c-.025.055-.05.109-.072.165a3.279,3.279,0,0,0-.157.5c-.009.04-.015.081-.022.121a3.106,3.106,0,0,0-.062.6,3.374,3.374,0,0,0,.031.451c.011.077.03.15.045.225s.025.141.045.209.053.159.081.238c.022.061.041.123.067.182s.064.132.1.2.07.141.111.208c.027.046.059.089.089.133.058.087.118.172.183.253.017.021.035.04.053.061a3.305,3.305,0,0,0,.585.543,3.786,3.786,0,0,0,.017,1.376A3.3,3.3,0,0,0,4,17.333a3.336,3.336,0,0,0-.673.069,4.639,4.639,0,0,0-1.181-.873A3.313,3.313,0,0,0,3.333,14a3.273,3.273,0,0,0-.06-.6c-.007-.041-.013-.081-.022-.121a3.354,3.354,0,0,0-.157-.5c-.022-.056-.047-.11-.072-.165a3.337,3.337,0,0,0-.217-.4c-.043-.067-.09-.129-.137-.193-.066-.089-.136-.173-.211-.255-.055-.061-.109-.121-.168-.178A3.422,3.422,0,0,0,1.994,11.34ZM3.947,21.418c-.031.044-.059.089-.089.135a3.358,3.358,0,0,0-.216.4c-.019.042-.041.083-.059.125a3.283,3.283,0,0,0-.161.5c-.042-.013-.085-.023-.125-.039s-.079-.029-.117-.046a1.934,1.934,0,0,1-.231-.126c-.027-.017-.055-.03-.081-.047a2.014,2.014,0,0,1-.27-.223c-.021-.021-.039-.045-.059-.067a2.06,2.06,0,0,1-.169-.2c-.025-.034-.046-.071-.068-.107a2.1,2.1,0,0,1-.112-.205q-.028-.059-.052-.12a1.908,1.908,0,0,1-.073-.237c-.009-.038-.021-.075-.029-.113A2.137,2.137,0,0,1,2,20.667a1.968,1.968,0,0,1,.036-.357c.009-.046.021-.091.033-.135a1.9,1.9,0,0,1,.06-.193c.021-.055.042-.111.068-.164s.043-.081.065-.12a2.009,2.009,0,0,1,1.076-.907s0,0,.007,0A1.979,1.979,0,0,1,4,18.667a2,2,0,0,1,1.914,1.419,3.278,3.278,0,0,0-.506.165c-.041.017-.081.039-.121.057a3.434,3.434,0,0,0-.4.218c-.045.029-.09.057-.133.087A3.342,3.342,0,0,0,3.947,21.418Zm9.387,1.249a.666.666,0,0,0-.667.667V38.667h-2V30H9.333v8.667h-2V23.333H6v6H4.667v-6a2,2,0,0,1,2-2h10a.664.664,0,0,0,.471-.2l3.529-3.529.389.389.669.669-.009.009,0,0-3.7,3.7-.284.284Zm2,4.667v2H14V24h2.741A4.649,4.649,0,0,0,15.333,27.333Zm8,2H16.667v-2a3.333,3.333,0,1,1,6.667,0Zm-1.186-6.139a3.312,3.312,0,0,0,1.186-2.528,3.357,3.357,0,0,0-.034-.45c-.006-.044-.014-.087-.022-.131a3.25,3.25,0,0,0-.077-.328c-.012-.041-.021-.083-.035-.123a3.359,3.359,0,0,0-.148-.376l.121-.121a.666.666,0,0,0,0-.943l-.549-.549a3.4,3.4,0,0,1,3.418.36,3.216,3.216,0,0,0-.3.249c-.059.057-.113.117-.168.178a3.22,3.22,0,0,0-.211.255c-.047.063-.095.125-.137.193a3.337,3.337,0,0,0-.217.4c-.025.055-.05.109-.072.165a3.279,3.279,0,0,0-.157.5c-.009.04-.015.081-.022.121a3.106,3.106,0,0,0-.062.6,3.312,3.312,0,0,0,1.186,2.528A4.691,4.691,0,0,0,24,24.942,4.691,4.691,0,0,0,22.147,23.195Zm9.186,6.139H24.667v-2a3.333,3.333,0,1,1,6.667,0Zm-1.186-6.139a3.312,3.312,0,0,0,1.186-2.528,3.273,3.273,0,0,0-.06-.6c-.007-.041-.013-.081-.022-.121a3.354,3.354,0,0,0-.157-.5c-.022-.056-.047-.11-.072-.165a3.337,3.337,0,0,0-.217-.4c-.043-.067-.09-.129-.137-.193-.066-.089-.136-.173-.211-.255-.055-.061-.109-.121-.168-.178a3.423,3.423,0,0,0-.3-.249,3.419,3.419,0,0,1,4.014,0,3.216,3.216,0,0,0-.3.249c-.059.057-.113.117-.168.178a3.22,3.22,0,0,0-.211.255c-.047.063-.095.125-.137.193a3.337,3.337,0,0,0-.217.4c-.025.055-.05.109-.072.165a3.28,3.28,0,0,0-.157.5c-.009.04-.015.081-.022.121a3.106,3.106,0,0,0-.062.6,3.312,3.312,0,0,0,1.186,2.528A4.691,4.691,0,0,0,32,24.942,4.691,4.691,0,0,0,30.147,23.195Zm9.186,6.139H32.667v-2a3.333,3.333,0,1,1,6.667,0Z" transform="translate(0 -4)" fill="#fff"/>
        </g>
      </g>
      <g id="Group_1735" data-name="Group 1735" transform="translate(28 32.195)">
        <g id="Group_1734" data-name="Group 1734" transform="translate(0 0)">
          <path id="Path_2040" data-name="Path 2040" d="M348,346.149h-2v-2a.665.665,0,0,0-.2-.471l-1.333-1.333-.943.943,1.138,1.138v1.724h-8a.666.666,0,0,0-.667.667v6.667a.666.666,0,0,0,.667.667H348a.666.666,0,0,0,.667-.667v-6.667A.666.666,0,0,0,348,346.149Zm-.667,6.667h-10v-5.333h10Z" transform="translate(-336 -342.344)" fill="#fff"/>
        </g>
      </g>
      <g id="Group_1737" data-name="Group 1737" transform="translate(0.667 42.667)">
        <g id="Group_1736" data-name="Group 1736">
          <rect id="Rectangle_102" data-name="Rectangle 102" width="1.333" height="1.333" fill="#fff"/>
        </g>
      </g>
      <g id="Group_1739" data-name="Group 1739" transform="translate(3.333 42.667)">
        <g id="Group_1738" data-name="Group 1738">
          <rect id="Rectangle_103" data-name="Rectangle 103" width="1.333" height="1.333" fill="#fff"/>
        </g>
      </g>
      <g id="Group_1741" data-name="Group 1741" transform="translate(6 42.667)">
        <g id="Group_1740" data-name="Group 1740">
          <rect id="Rectangle_104" data-name="Rectangle 104" width="1.333" height="1.333" fill="#fff"/>
        </g>
      </g>
      <g id="Group_1743" data-name="Group 1743" transform="translate(9.333 22.667)">
        <g id="Group_1742" data-name="Group 1742">
          <rect id="Rectangle_105" data-name="Rectangle 105" width="1.333" height="4" fill="#fff"/>
        </g>
      </g>
    </g>
  </g>
</svg>
