<svg xmlns="http://www.w3.org/2000/svg" width="13.75" height="15" viewBox="0 0 13.75 15">
  <g id="share" transform="translate(0 0)">
    <path id="Path_1214" data-name="Path 1214" d="M318.73,18.031A2.031,2.031,0,1,1,316.7,16,2.031,2.031,0,0,1,318.73,18.031Zm0,0" transform="translate(-305.449 -15.531)"/>
    <path id="Path_1215" data-name="Path 1215" d="M301.168,5a2.5,2.5,0,1,1,2.5-2.5A2.5,2.5,0,0,1,301.168,5Zm0-4.063A1.563,1.563,0,1,0,302.73,2.5,1.564,1.564,0,0,0,301.168.938Zm0,0" transform="translate(-289.918)"/>
    <path id="Path_1216" data-name="Path 1216" d="M318.73,359.363a2.031,2.031,0,1,1-2.031-2.031A2.031,2.031,0,0,1,318.73,359.363Zm0,0" transform="translate(-305.449 -346.863)"/>
    <path id="Path_1217" data-name="Path 1217" d="M301.168,346.332a2.5,2.5,0,1,1,2.5-2.5A2.5,2.5,0,0,1,301.168,346.332Zm0-4.063a1.563,1.563,0,1,0,1.562,1.563A1.564,1.564,0,0,0,301.168,342.27Zm0,0" transform="translate(-289.918 -331.332)"/>
    <path id="Path_1218" data-name="Path 1218" d="M20.063,188.7a2.031,2.031,0,1,1-2.031-2.031A2.031,2.031,0,0,1,20.063,188.7Zm0,0" transform="translate(-15.531 -181.199)"/>
    <path id="Path_1219" data-name="Path 1219" d="M2.5,175.668a2.5,2.5,0,1,1,2.5-2.5,2.5,2.5,0,0,1-2.5,2.5Zm0-4.062a1.562,1.562,0,1,0,1.563,1.562A1.564,1.564,0,0,0,2.5,171.605Zm0,0" transform="translate(0 -165.668)"/>
    <path id="Path_1220" data-name="Path 1220" d="M114.974,94.771a.625.625,0,0,1-.31-1.168l5.8-3.306a.625.625,0,1,1,.619,1.086l-5.8,3.306a.621.621,0,0,1-.309.082Zm0,0" transform="translate(-110.998 -87.571)"/>
    <path id="Path_1221" data-name="Path 1221" d="M120.795,270.776a.621.621,0,0,1-.309-.082l-5.8-3.306a.625.625,0,0,1,.619-1.086l5.8,3.306a.625.625,0,0,1-.31,1.168Zm0,0" transform="translate(-111.021 -258.419)"/>
  </g>
</svg>
