<svg xmlns="http://www.w3.org/2000/svg" xmlns:xlink="http://www.w3.org/1999/xlink" width="496.009" height="450.5" viewBox="0 0 496.009 450.5"><defs><clipPath id="a"><path d="M431.369,196.59l-3.087,20.581s-17.049,7.491-20.611,13.507l-.841.119-4.007.554s-.822-.247-2.167-.634a120.318,120.318,0,0,0-16.129-3.532,25.113,25.113,0,0,0-5.7-.217l-11.538-17.979s17.842-2.464,30.181,1.761l5.9-.415.219-.188C405.345,208.712,417.773,198.836,431.369,196.59Z" transform="translate(-367.288 -196.59)" fill="#92e3a9" stroke="#263238" stroke-linecap="round" stroke-linejoin="round" stroke-width="1"/></clipPath><clipPath id="b"><path d="M261.021,423.232h-27.1l-14.67-4.646-4.612-1.453L213.3,430.944l-160.453.3S55.3,425.063,59.292,416c8.617-19.556,24.408-52.581,38.22-66.072,11.214-10.951,39.227-11.26,39.227-11.26a17.452,17.452,0,0,1,9.646-2.906c5.149.252,44.078,4.474,46.493,5.687a13.063,13.063,0,0,1,4.222,3.913s13.64-6.03,27.04-.6S261.021,423.232,261.021,423.232Z" transform="translate(-52.85 -335.748)" fill="#bfbfbf" stroke="#263238" stroke-linecap="round" stroke-linejoin="round" stroke-width="1"/></clipPath><clipPath id="c"><path d="M224.081,398.2s4.166-2.584,7.817-1.744,6.669,4.46,6.669,4.46,30.307-2.516,37.184-2.315,22.269,4.729,22.269,4.729,7.457-1.509,8.255-1.207-1.616,25.7-1.616,25.7H206.275c-4.829,0-8.409-6.991-12.03-12.489a246.55,246.55,0,0,0,9.5-67.206" transform="translate(-194.245 -348.136)" fill="#bfbfbf" stroke="#263238" stroke-linecap="round" stroke-linejoin="round" stroke-width="1"/></clipPath><clipPath id="d"><path d="M181.979,413.867h183.3a6.1,6.1,0,0,1-6.1,6.1H196.659a6.12,6.12,0,0,1-1.872-.294l-13.059-4.212A.817.817,0,0,1,181.979,413.867Z" transform="translate(-181.161 -413.867)" fill="#92e3a9" stroke="#263238" stroke-linecap="round" stroke-linejoin="round" stroke-width="1"/></clipPath><clipPath id="e"><path d="M388.337,348.527c-.011.046-.023.1-.034.149l-21.3,74.208a4.949,4.949,0,0,1-4.5,3.376H251.4a2.515,2.515,0,0,1-2.563-3.376l21.307-74.208a4.937,4.937,0,0,1,4.5-3.376H385.751A2.488,2.488,0,0,1,388.337,348.527Z" transform="translate(-248.708 -345.3)" fill="#92e3a9" stroke="#263238" stroke-linecap="round" stroke-linejoin="round" stroke-width="1"/></clipPath><clipPath id="f"><path d="M226.42,420.248H73.13l1.854-3.868s14.441,1.327,25.918-2.231c5.069-1.579,12.873-2.311,20.7-2.2,4.932.069,16.936.114,24.385.08H146c2.655-.011,4.737-.034,5.7-.069.378-.023.755-.023,1.121-.023a30.072,30.072,0,0,1,6.328.6,47.745,47.745,0,0,1,6.053-.3c3.536.046,18.744-.057,22.886,0,5.458.069,11.763,1.121,17.748,1.968.057-.023.114-.034.16-.057l.034.08c7.232,1.007,14.006,1.694,18.274-.08Z" transform="translate(-73.13 -411.939)" fill="#fff" stroke="#263238" stroke-linecap="round" stroke-linejoin="round" stroke-width="1"/></clipPath></defs><g transform="translate(-34.815 -43.727)"><g transform="translate(38.3 43.727)"><path d="M234.566,484.51C97.706,460.58,116.019,389.771,72.945,308.045s-48.159-114.994-5.5-185.011S202.379,13.543,288.372,72.143s148.814,40.428,200.778,86.073,59.006,109.365-2.663,166.129S403.322,514.017,234.566,484.51Z" transform="translate(-37.923 -43.727)" fill="#92e3a9"/><path d="M234.566,484.51C97.706,460.58,116.019,389.771,72.945,308.045s-48.159-114.994-5.5-185.011S202.379,13.543,288.372,72.143s148.814,40.428,200.778,86.073,59.006,109.365-2.663,166.129S403.322,514.017,234.566,484.51Z" transform="translate(-37.923 -43.727)" fill="#fff" opacity="0.7"/></g><g transform="translate(68.466 99.508)"><g transform="translate(0 0)"><path d="M64.285,292.091V92.474h16.97" transform="translate(-64.285 -92.474)" fill="none" stroke="#263238" stroke-linecap="round" stroke-linejoin="round" stroke-width="1"/><line y1="7.282" transform="translate(0 224.971)" fill="none" stroke="#263238" stroke-linecap="round" stroke-linejoin="round" stroke-width="1"/><path d="M124.914,92.474H300.062v257.8H64.285" transform="translate(-64.285 -92.474)" fill="none" stroke="#263238" stroke-linecap="round" stroke-linejoin="round" stroke-width="1"/><line x2="15.391" transform="translate(39.152)" fill="none" stroke="#263238" stroke-linecap="round" stroke-linejoin="round" stroke-width="1"/><rect width="218.045" height="240.108" transform="translate(8.866 8.847)" fill="none" stroke="#263238" stroke-linecap="round" stroke-linejoin="round" stroke-width="1"/><path d="M278.659,114.934v93.387H80.9V199.8" transform="translate(-61.888 -89.234)" fill="none" stroke="#263238" stroke-linecap="round" stroke-linejoin="round" stroke-width="1"/><path d="M80.9,180.777V108.313H278.659" transform="translate(-61.888 -90.189)" fill="none" stroke="#263238" stroke-linecap="round" stroke-linejoin="round" stroke-width="1"/><line y1="8.284" transform="translate(19.007 95.732)" fill="none" stroke="#263238" stroke-linecap="round" stroke-linejoin="round" stroke-width="1"/><line x2="43.534" transform="translate(183.376 128.901)" fill="none" stroke="#263238" stroke-linecap="round" stroke-linejoin="round" stroke-width="1"/><line x2="6.161" transform="translate(167.893 128.901)" fill="none" stroke="#263238" stroke-linecap="round" stroke-linejoin="round" stroke-width="1"/><line x2="151.672" transform="translate(8.866 128.901)" fill="none" stroke="#263238" stroke-linecap="round" stroke-linejoin="round" stroke-width="1"/><path d="M157.731,197.112v-4.5h18.233v2.557H168.69v1.94" transform="translate(-50.801 -78.024)" fill="none" stroke="#263238" stroke-linecap="round" stroke-linejoin="round" stroke-width="1"/><path d="M72.362,276.245s3.023,2.287,5.149,16.141c0,0,3.662-22.123,8.1-22.468s3.534,14.394,3.534,14.394.739-7.262,4.218-6.926,0,15,0,15,4.168-11.43,8.123-11.237-2.626,20.716-2.626,20.716S109,294.527,113.1,298.12s-2.283,12.647-2.283,12.647,14.537-3.151,16.8,5.378" transform="translate(-63.12 -66.871)" fill="none" stroke="#263238" stroke-linecap="round" stroke-linejoin="round" stroke-width="1"/><path d="M120.654,308.6s6.337-4.152,11.317-2.215c0,0-3.169-4.831,0-7.786s7.243,7.786,7.243,7.786S139.667,288.4,146,289.3s0,17.076,0,17.076,11.317-10.033,14.034-6.538-1.811,8.754-1.811,8.754,6.788-2.17,11.769,2.889c0,0,7.588-7.74,16.017-8.849,0,0-5.6-16.276-2.888-19.557s7.652,14.2,7.652,14.2,2.155-11.372,9.236-12.252c0,0-5.893-3.206-4.147-8.067s9.895,1.141,9.895,1.141-3.346-8.55,1.949-10.9,7.505,7.158,7.505,7.158,1.475-9.958,7.7-9.408c6.177.545,4.208,12.008,4.208,12.008s5.874-9.109,9.018-8.181c6.286,1.854,4.376,16.248,4.376,16.248s8.772-6.1,11.031-3.288c2.436,3.027-9.121,10.817-9.121,10.817s8.7.967,14.117,6.035" transform="translate(-56.151 -67.589)" fill="none" stroke="#263238" stroke-linecap="round" stroke-linejoin="round" stroke-width="1"/><path d="M267.706,279.531s-1-9.133-10.141-9.613,2.513,20.03,2.513,20.03-7.532-6.232-10.239-4.315,7.726,12.488,7.726,12.488-5.006-4.631-10.287-3.2,3.014,16.136,3.014,16.136a37.706,37.706,0,0,0-23.22,2.715" transform="translate(-40.795 -66.871)" fill="none" stroke="#263238" stroke-linecap="round" stroke-linejoin="round" stroke-width="1"/></g></g><g transform="translate(386.326 320.896)"><path d="M342.063,400V285.944H470.5" transform="translate(-342.063 -285.944)" fill="none" stroke="#263238" stroke-linecap="round" stroke-linejoin="round" stroke-width="1"/><path d="M464.529,296.254H351.09V402.5" transform="translate(-340.761 -284.457)" fill="none" stroke="#263238" stroke-linecap="round" stroke-linejoin="round" stroke-width="1"/><path d="M370.927,352.846V305.615h7.431v9.746h9.911v-4.368h8.856v5.3h11.957V305.615h12.227v7.174H427.9v-4.167h11.815v27.812" transform="translate(-337.898 -283.106)" fill="none" stroke="#263238" stroke-linecap="round" stroke-linejoin="round" stroke-width="1"/><line y2="40.057" transform="translate(90.005 29.683)" fill="none" stroke="#263238" stroke-linecap="round" stroke-linejoin="round" stroke-width="1"/><line y2="7.157" transform="translate(84.363 35.669)" fill="none" stroke="#263238" stroke-linecap="round" stroke-linejoin="round" stroke-width="1"/><line y2="29.367" transform="translate(84.363 47.956)" fill="none" stroke="#263238" stroke-linecap="round" stroke-linejoin="round" stroke-width="1"/><line y2="26.392" transform="translate(71.184 33.186)" fill="none" stroke="#263238" stroke-linecap="round" stroke-linejoin="round" stroke-width="1"/><line y2="8.216" transform="translate(71.645 68.272)" fill="none" stroke="#263238" stroke-linecap="round" stroke-linejoin="round" stroke-width="1"/><line y2="14.77" transform="translate(59.227 33.186)" fill="none" stroke="#263238" stroke-linecap="round" stroke-linejoin="round" stroke-width="1"/><line y2="31.097" transform="translate(59.227 57.03)" fill="none" stroke="#263238" stroke-linecap="round" stroke-linejoin="round" stroke-width="1"/><line y2="36.658" transform="translate(50.371 32.255)" fill="none" stroke="#263238" stroke-linecap="round" stroke-linejoin="round" stroke-width="1"/><line y2="13.87" transform="translate(40.459 32.255)" fill="none" stroke="#263238" stroke-linecap="round" stroke-linejoin="round" stroke-width="1"/><line y2="32.969" transform="translate(40.459 53.328)" fill="none" stroke="#263238" stroke-linecap="round" stroke-linejoin="round" stroke-width="1"/><line y2="14.889" transform="translate(33.029 76.488)" fill="none" stroke="#263238" stroke-linecap="round" stroke-linejoin="round" stroke-width="1"/><line x2="90.145" transform="translate(17.712 91.376)" fill="none" stroke="#263238" stroke-linecap="round" stroke-linejoin="round" stroke-width="1"/><line y1="9.525" transform="translate(90.005 81.851)" fill="none" stroke="#263238" stroke-linecap="round" stroke-linejoin="round" stroke-width="1"/><line y2="6.568" transform="translate(71.645 84.368)" fill="none" stroke="#263238" stroke-linecap="round" stroke-linejoin="round" stroke-width="1"/><line x2="8.737" transform="translate(102.825 37.744)" fill="none" stroke="#263238" stroke-linecap="round" stroke-linejoin="round" stroke-width="1"/><line x2="83.767" transform="translate(18.053 99.689)" fill="none" stroke="#263238" stroke-linecap="round" stroke-linejoin="round" stroke-width="1"/><path d="M373.549,395.623V384.533h15.516v7.15h12.482v13.944H408.7V384.958h15.849v4.8h9.733" transform="translate(-337.52 -271.718)" fill="none" stroke="#263238" stroke-linecap="round" stroke-linejoin="round" stroke-width="1"/><line y2="11.904" transform="translate(87.033 118.041)" fill="none" stroke="#263238" stroke-linecap="round" stroke-linejoin="round" stroke-width="1"/><line y2="8.011" transform="translate(71.645 138.942)" fill="none" stroke="#263238" stroke-linecap="round" stroke-linejoin="round" stroke-width="1"/><line y2="10.559" transform="translate(64.028 133.908)" fill="none" stroke="#263238" stroke-linecap="round" stroke-linejoin="round" stroke-width="1"/><line y2="6.057" transform="translate(51.546 119.964)" fill="none" stroke="#263238" stroke-linecap="round" stroke-linejoin="round" stroke-width="1"/></g><g transform="translate(236.263 77.418)"><g transform="translate(0 0)"><rect width="274.216" height="189.457" fill="#92e3a9" stroke="#263238" stroke-linecap="round" stroke-linejoin="round" stroke-width="1"/><rect width="274.216" height="18.731" fill="#263238"/><g transform="translate(20.812 33.068)"><g transform="translate(58.999 68.323)"><path d="M311.935,190.283l-6.439-8.947a52.881,52.881,0,0,0-.285-5.594c-.238-.831-4.142-6.982-4.227-8.439a9.865,9.865,0,0,0-.269-2.054s-2,.5-1.971,1.726.231,5.36.231,5.36-5.218-3.047-5.795-3.852-6.946-5.461-7.548-6.161-3.022-.742-3.306-.038l.342.857-2,.946,1.345,3.976s-.9,2.319-.69,2.814.926,3.431.926,3.431-.441.444-.382,2.006,8.605,9.513,10.273,10.365a55.462,55.462,0,0,0,6.2,2.184l5.366,6.95Z" transform="translate(-280.67 -161.775)" fill="#fff" stroke="#263238" stroke-linecap="round" stroke-linejoin="round" stroke-width="1"/><path d="M296.795,171a11.815,11.815,0,0,0-.723,7.225" transform="translate(-278.49 -160.444)" fill="none" stroke="#263238" stroke-linecap="round" stroke-linejoin="round" stroke-width="1"/><path d="M282.417,162.968c1.735.669,3.9,3.889,4.894,4.887a22.255,22.255,0,0,0,2.876,2.212" transform="translate(-280.418 -161.603)" fill="none" stroke="#263238" stroke-linecap="round" stroke-linejoin="round" stroke-width="1"/><path d="M281.845,167.28c1.418-.3,2.372.248,2.341,1.639s3.029,3.49,3.029,3.49" transform="translate(-280.5 -160.992)" fill="none" stroke="#263238" stroke-linecap="round" stroke-linejoin="round" stroke-width="1"/><path d="M282.051,172.875s1-1.77,1.781-.957,1.049,2.9,2.5,3.332" transform="translate(-280.471 -160.342)" fill="none" stroke="#263238" stroke-linecap="round" stroke-linejoin="round" stroke-width="1"/></g><path d="M392.944,178.842s-22.57,1.391-27.552,3.441c-4.091,1.682-32.82,20.6-32.82,20.6s-16.9-12.743-21.8-17.12a9.415,9.415,0,0,0-3.019-.864l-2.566-1.727-6.337,8.911,1.775,2.46s.289,3.97,1.08,4.963c10.5,13.193,30.624,31.67,33.642,33.481s29.82-14.034,29.82-14.034l4.98,29.173H450.12s-.211-51.2-3.576-55.128-41.925-19.315-41.925-19.315Z" transform="translate(-219.048 -91.734)" fill="#757575" stroke="#263238" stroke-linecap="round" stroke-linejoin="round" stroke-width="1"/><path d="M407.806,162.038s-7.163,4.812-3.375,20.166c0,0-10.784,7.715-21.457-.074,0,0,2.461-12.241-.006-14.7" transform="translate(-206.91 -93.414)" fill="#fff" stroke="#263238" stroke-linecap="round" stroke-linejoin="round" stroke-width="1"/><path d="M428,192.67s-9.732,11.2-10.864,30.386" transform="translate(-201.98 -88.994)" fill="none" stroke="#263238" stroke-linecap="round" stroke-linejoin="round" stroke-width="1"/><g transform="translate(168.607 33.083)"><path d="M390.358,135.114s-6.391-.961-8.622,6.9a20.066,20.066,0,0,0,1.478,14.333l11.739-11.078Z" transform="translate(-375.798 -130.388)" fill="#263238"/><path d="M406.163,170.636c8.23-9.819,14.049-26.178,1.687-32.714-23.847-12.609-31.73,12-27.711,34.961,1.236,7.058,10.818,3.91,17.843,1.354" transform="translate(-376.069 -130.471)" fill="#fff" stroke="#263238" stroke-linecap="round" stroke-linejoin="round" stroke-width="1"/><path d="M388.2,147.43s3.927,1.063,4.93,3.171" transform="translate(-374.761 -128.605)" fill="none" stroke="#263238" stroke-linecap="round" stroke-linejoin="round" stroke-width="1"/><path d="M383.592,146.565a3.03,3.03,0,0,0-2.957.152" transform="translate(-375.853 -128.776)" fill="none" stroke="#263238" stroke-linecap="round" stroke-linejoin="round" stroke-width="1"/><path d="M388.14,152.318c-.068.7.241,1.312.691,1.356s.87-.493.937-1.2-.24-1.312-.69-1.356S388.209,151.613,388.14,152.318Z" transform="translate(-374.772 -128.073)" fill="#263238"/><path d="M380.686,150.476c-.069.7.24,1.313.69,1.356s.87-.493.938-1.2-.24-1.312-.69-1.356S380.755,149.771,380.686,150.476Z" transform="translate(-375.847 -128.339)" fill="#263238"/><path d="M402.87,156.578s-3.695,5.354-6.188,7.072a7.532,7.532,0,0,1-5.406,1.073s-3.166-3.908-7.794-3.966a8.9,8.9,0,0,0-3.97-1.359l.26-5.98s-3.511,12.813-3.174,17.394,11.6,7.772,17.256,6.487,8.506-10.056,10.22-18.333C404.21,158.311,402.87,156.578,402.87,156.578Z" transform="translate(-376.439 -127.741)" fill="#263238"/><path d="M379.745,162.408s4.459,2.143,8.425,1.639" transform="translate(-375.982 -126.444)" fill="none" stroke="#fff" stroke-linecap="round" stroke-linejoin="round" stroke-width="1"/><path d="M404.916,143.5c1.458-1.193-2.318-6.075-4.4-5.967s-12.436.491-12.436.491-2.176-11.371,15.219-5.228c2.85,1.007,3.765,3.678,6.318,5.036s6,8.526,5.025,14.633-4.246,16.838-10.16,20.054c0,0-2.044-.215-.8-1.615,5.818-6.556-.28-18.9-1.255-8.7l-2.047-1.215a14.752,14.752,0,0,1,.343-3.331C401.164,154.854,398.057,149.121,404.916,143.5Z" transform="translate(-374.791 -130.979)" fill="#263238"/><path d="M402.185,155.945s3.742-4.447,6.005-2.934.751,6.854-.47,8.208-2.195,1.632-3.876,3.775-3.8,1.417-3.491-.3" transform="translate(-373.013 -127.845)" fill="#fff" stroke="#263238" stroke-linecap="round" stroke-linejoin="round" stroke-width="1"/><path d="M392.9,153.216c.128,2.483-1.387,4.579-3.385,4.682s-3.721-1.826-3.849-4.309,1.387-4.579,3.385-4.682S392.766,150.733,392.9,153.216Z" transform="translate(-375.129 -128.393)" fill="none" stroke="#263238" stroke-miterlimit="10" stroke-width="0.5"/><path d="M383.7,151.248c.128,2.483-1.387,4.579-3.385,4.682s-3.721-1.826-3.849-4.309,1.387-4.579,3.385-4.682S383.569,148.765,383.7,151.248Z" transform="translate(-376.456 -128.677)" fill="none" stroke="#263238" stroke-miterlimit="10" stroke-width="0.5"/><path d="M384.486,148.84c.057,1.115-5.922,7.9-5.994,9.395s5.518,1.577,5.518,1.577" transform="translate(-376.163 -128.402)" fill="#fff" stroke="#263238" stroke-linecap="round" stroke-linejoin="round" stroke-width="1"/><path d="M382.785,150.708s1.771-.452,3.256,1.944" transform="translate(-375.543 -128.137)" fill="none" stroke="#263238" stroke-miterlimit="10" stroke-width="0.5"/><path d="M392.021,153.43l1.919.29,10.788.754" transform="translate(-374.21 -127.739)" fill="none" stroke="#263238" stroke-miterlimit="10" stroke-width="0.5"/></g><g transform="translate(158.116 107.085)"><path d="M427.9,198.316l-2.147-2.667s-18.084,2.1-26.178,12.9c0,0-14.9-7.033-28.257-3.609l-.395,4.8,29.288,17.519,11.465-4.761Z" transform="translate(-366.763 -195.649)" fill="#fff" stroke="#263238" stroke-linecap="round" stroke-linejoin="round" stroke-width="1"/><g transform="translate(0 1.077)"><path d="M431.369,196.59l-3.087,20.581s-17.049,7.491-20.611,13.507l-.841.119-4.007.554s-.822-.247-2.167-.634a120.318,120.318,0,0,0-16.129-3.532,25.113,25.113,0,0,0-5.7-.217l-11.538-17.979s17.842-2.464,30.181,1.761l5.9-.415.219-.188C405.345,208.712,417.773,198.836,431.369,196.59Z" transform="translate(-367.288 -196.59)" fill="#92e3a9"/><g clip-path="url(#a)"><path d="M402.035,226l-3.028-15.852c1.761-1.435,14.189-11.31,27.785-13.556L423.7,217.171s-17.049,7.491-20.611,13.507l-.841.119Z" transform="translate(-362.711 -196.59)" fill="rgba(0,0,0,0.7)" opacity="0.3"/><path d="M398.57,225.184l-.089,3.6a120.318,120.318,0,0,0-16.129-3.532c1.148-13.17,13.22-15.267,13.22-15.267Z" transform="translate(-365.114 -194.657)" fill="rgba(0,0,0,0.7)" opacity="0.3"/></g><path d="M431.369,196.59l-3.087,20.581s-17.049,7.491-20.611,13.507l-.841.119-4.007.554s-.822-.247-2.167-.634a120.318,120.318,0,0,0-16.129-3.532,25.113,25.113,0,0,0-5.7-.217l-11.538-17.979s17.842-2.464,30.181,1.761l5.9-.415.219-.188C405.345,208.712,417.773,198.836,431.369,196.59Z" transform="translate(-367.288 -196.59)" fill="none" stroke="#263238" stroke-linecap="round" stroke-linejoin="round" stroke-width="1"/></g></g><g transform="translate(173.895 123.492)"><path d="M404.545,233.778c-6.1-.386-17.734-9.751-17.734-9.751a17.088,17.088,0,0,0-2.9-4.8c-1.659-1.658.553-3.042.553-3.042s-1.935-1.244-3.042-1.935.83-2.489.83-2.489,8.295,1.107,9.148.83,8.825,4.839,10.07,4.978a9.12,9.12,0,0,0,4.775-1.244c.83-.691,3.381-4.978,5.038-5.807s4.565-.83,3.182.968-1.107,5.806-1.835,6.359-1.821,6.582-1.821,8.659l9.039,8.253-5.144,7.017Z" transform="translate(-381.078 -209.987)" fill="#fff" stroke="#263238" stroke-linecap="round" stroke-linejoin="round" stroke-width="1"/><path d="M384.034,215.408a15.126,15.126,0,0,1,4.687,1.315" transform="translate(-380.651 -209.205)" fill="none" stroke="#263238" stroke-linecap="round" stroke-linejoin="round" stroke-width="1"/><path d="M389.467,218.267s-.522,2.1-.652,2.42,1.7,2.371,1.436,3.3,1.871,3.473,1.871,3.473" transform="translate(-379.962 -208.792)" fill="none" stroke="#263238" stroke-linecap="round" stroke-linejoin="round" stroke-width="1"/><path d="M388.138,220.716s-4.168-2.1-4.587-2.65" transform="translate(-380.721 -208.821)" fill="none" stroke="#263238" stroke-linecap="round" stroke-linejoin="round" stroke-width="1"/></g><path d="M384.276,174.971l3.954,7.976,16.271-9.02,3.583,7.995-16.608,10.538L388.3,184.2l-6.461,6.212-2.182-10.039Z" transform="translate(-207.388 -91.699)" fill="#757575" stroke="#263238" stroke-linecap="round" stroke-linejoin="round" stroke-width="1"/><path d="M431.463,190.56c3.954,4.226,17.986,35.183,19.344,55.128H408.029V243.9l-4.669-2.729s2.9-10.182,11.14-8.593l2.408,3.473,5.319,4.008s9.342.245,12.059,2.935" transform="translate(-203.967 -89.299)" fill="#757575" stroke="#263238" stroke-linecap="round" stroke-linejoin="round" stroke-width="1"/><path d="M419.847,234.462s5.193-7.477,12.813-4.308" transform="translate(-201.588 -83.698)" fill="none" stroke="#263238" stroke-linecap="round" stroke-linejoin="round" stroke-width="1"/><path d="M418.121,223.269a90.921,90.921,0,0,1,4.434,9.529" transform="translate(-201.837 -84.579)" fill="none" stroke="#263238" stroke-linecap="round" stroke-linejoin="round" stroke-width="1"/><path d="M357.108,216.376s-3.169-18.474-2.263-24.855" transform="translate(-210.991 -89.16)" fill="#757575" stroke="#263238" stroke-linecap="round" stroke-linejoin="round" stroke-width="1"/><path d="M351.264,197.813s1.754,9.074,5.743,13.931" transform="translate(-211.485 -88.252)" fill="#757575" stroke="#263238" stroke-linecap="round" stroke-linejoin="round" stroke-width="1"/><path d="M328.319,199.2s4.979,4.122,1.81,14.4" transform="translate(-214.796 -88.052)" fill="#757575" stroke="#263238" stroke-linecap="round" stroke-linejoin="round" stroke-width="1"/><path d="M386.764,188.75a1.073,1.073,0,1,1-1.073-1.072A1.073,1.073,0,0,1,386.764,188.75Z" transform="translate(-206.672 -89.715)" fill="#263238"/><circle cx="1.073" cy="1.073" r="1.073" transform="translate(176.205 112.643)" fill="#263238"/><circle cx="1.073" cy="1.073" r="1.073" transform="translate(174.58 145.673)" fill="#263238"/><g transform="translate(6.313)"><path d="M261.792,148.42h13.483l6.741-11.676-6.741-11.676H261.792l-6.741,11.676Z" transform="translate(-231.681 -98.749)" fill="none" stroke="#263238" stroke-linecap="round" stroke-linejoin="round" stroke-width="1"/><path d="M261.781,169.332l-6.741-11.676H241.557" transform="translate(-233.628 -94.047)" fill="none" stroke="#263238" stroke-linecap="round" stroke-linejoin="round" stroke-width="1"/><path d="M243.99,138.217h13.483l6.741-11.676-6.741-11.676H243.99l-6.741,11.676Z" transform="translate(-234.25 -100.221)" fill="none" stroke="#263238" stroke-linecap="round" stroke-linejoin="round" stroke-width="1"/><path d="M261.792,128.013h13.483l6.741-11.676-6.741-11.676H261.792l-6.741,11.676Z" transform="translate(-231.681 -101.694)" fill="none" stroke="#263238" stroke-linecap="round" stroke-linejoin="round" stroke-width="1"/><path d="M259.231,125.3a1.811,1.811,0,1,1,1.81,1.81A1.81,1.81,0,0,1,259.231,125.3Z" transform="translate(-231.078 -98.977)" fill="#263238"/><circle cx="1.811" cy="1.811" r="1.811" fill="#263238"/><path d="M257.648,168.088a1.811,1.811,0,1,1,1.811,1.81A1.811,1.811,0,0,1,257.648,168.088Z" transform="translate(-231.306 -92.803)" fill="#263238"/><circle cx="1.811" cy="1.811" r="1.811" transform="translate(6.118 61.799)" fill="#263238"/><path d="M290.01,115.361a1.811,1.811,0,1,1,1.811,1.81A1.812,1.812,0,0,1,290.01,115.361Z" transform="translate(-226.636 -100.411)" fill="#263238"/><circle cx="1.811" cy="1.811" r="1.811" transform="translate(19.463 61.799)" fill="#263238"/><path d="M277.033,115.361a1.811,1.811,0,1,1,1.81,1.81A1.811,1.811,0,0,1,277.033,115.361Z" transform="translate(-228.509 -100.411)" fill="#263238"/><path d="M259.231,145.7a1.811,1.811,0,1,1,1.81,1.81A1.811,1.811,0,0,1,259.231,145.7Z" transform="translate(-231.078 -96.033)" fill="#263238"/><line x2="14.85" transform="translate(50.335 14.95)" fill="none" stroke="#263238" stroke-linecap="round" stroke-linejoin="round" stroke-width="1"/><line x1="8.69" y2="13.938" transform="translate(21.274 49.671)" fill="none" stroke="#263238" stroke-linecap="round" stroke-linejoin="round" stroke-width="1"/><line x1="7.929" y1="12.832" transform="translate(1.811 1.811)" fill="none" stroke="#263238" stroke-linecap="round" stroke-linejoin="round" stroke-width="1"/></g><path d="M229.558,195.134a17.591,17.591,0,0,1,4.051-2.728,1.448,1.448,0,0,0,1.587,1.213c.819-.121,1.737-.917,2.325-.333.229.225.278.59.515.807.732.671,1.981-.784,2.8-.23.217.146.339.406.56.547a1.423,1.423,0,0,0,1.131-.011,22.86,22.86,0,0,1,6.238-.532l9.61.064-.732-.376" transform="translate(-229.047 -89.032)" fill="none" stroke="#263238" stroke-linecap="round" stroke-linejoin="round" stroke-width="1"/><path d="M229.111,202.1a1.65,1.65,0,0,1,3.24.082,1.923,1.923,0,0,0,1.007-1.105c.619,1.4,2.525,1.5,4.049,1.4l6.788-.479c2.029-.143,4.416-.512,5.331-2.327a9.938,9.938,0,0,1,1.165,6.018,18.688,18.688,0,0,1,2.444-4.19l.6,2.2c4.727-3.3,11.192-1.161,16.915-1.869" transform="translate(-229.111 -87.985)" fill="none" stroke="#263238" stroke-linecap="round" stroke-linejoin="round" stroke-width="1"/><path d="M229.642,211.306a.86.86,0,0,1,.669-.931A1.6,1.6,0,0,0,232.4,211.4a4.642,4.642,0,0,0,2.014-1.65,1.545,1.545,0,0,0,2.239-.384,13.494,13.494,0,0,1,1.255,2.622c.621-1.585,2.721-1.834,4.424-1.83l13.762.038" transform="translate(-229.035 -86.585)" fill="none" stroke="#263238" stroke-linecap="round" stroke-linejoin="round" stroke-width="1"/><path d="M324.288,102.219c-3.259-.268-6.456,1.063-9.208,2.829-3.294,2.112-6.425,5.657-5.6,9.483.849,3.948,5.338,5.84,9.3,6.613a50.184,50.184,0,0,0,10.367.918,17.572,17.572,0,0,0,3.987-.423,21.176,21.176,0,0,0,3.82-1.5l8.855-4.162c1.222-.574,2.579-1.306,2.911-2.615.411-1.618-.97-3.11-2.323-4.086a24.225,24.225,0,0,0-17.112-4.324" transform="translate(-217.534 -102.051)" fill="none" stroke="#263238" stroke-linecap="round" stroke-linejoin="round" stroke-width="1"/><path d="M313.207,109.854a4.265,4.265,0,0,1,1.944-1.232,2.125,2.125,0,0,0,.042,1.346c.206.409.827.624,1.128.279.249-.285.379-.9.717-.728l.412.926c.563-.2,1-.661,1.544-.9a4.344,4.344,0,0,1,1.956-.189,89.512,89.512,0,0,0,14.724-.444" transform="translate(-216.976 -101.122)" fill="none" stroke="#263238" stroke-linecap="round" stroke-linejoin="round" stroke-width="1"/><path d="M320.215,114.094a1.553,1.553,0,0,1,.966-1.02c-.262.288.064.782.449.846a2.585,2.585,0,0,0,1.134-.235,6.118,6.118,0,0,1,1.323-.189l8.348-.566" transform="translate(-215.965 -100.501)" fill="none" stroke="#263238" stroke-linecap="round" stroke-linejoin="round" stroke-width="1"/><path d="M328.192,124.16a43.465,43.465,0,0,1-38.638,31.612" transform="translate(-220.389 -98.88)" fill="none" stroke="#263238" stroke-linecap="round" stroke-linejoin="round" stroke-width="1"/><path d="M290.206,149.624a17.149,17.149,0,0,0-4.267,3.724,3.942,3.942,0,0,1,3.894,1.4" transform="translate(-220.911 -95.206)" fill="none" stroke="#263238" stroke-linecap="round" stroke-linejoin="round" stroke-width="1"/><path d="M320.924,151.96l1.04,2.3,1.489-1.759a1.413,1.413,0,0,1,.539.843c.114.323.287.676.616.77s.721-.343.475-.581a1.778,1.778,0,0,0,1.457.237c.214-.061.415-.161.63-.216a3.155,3.155,0,0,1,.791-.066l15.458.025" transform="translate(-215.863 -94.869)" fill="none" stroke="#263238" stroke-linecap="round" stroke-linejoin="round" stroke-width="1"/><path d="M321.549,163.159a1.091,1.091,0,0,1,1.93-.33,1.54,1.54,0,0,0,.233.407.694.694,0,0,0,.905-.114c.247-.227.41-.539.674-.746.72-.568,1.75-.128,2.635.112a10.949,10.949,0,0,0,3.449.185l8.784-.461" transform="translate(-215.772 -93.406)" fill="none" stroke="#263238" stroke-linecap="round" stroke-linejoin="round" stroke-width="1"/><path d="M321.791,171.679a1.314,1.314,0,0,0,1.3-.965.743.743,0,0,1,.585.576,3.375,3.375,0,0,0,1.054-1.017q8.491.1,16.983.042" transform="translate(-215.738 -92.226)" fill="none" stroke="#263238" stroke-linecap="round" stroke-linejoin="round" stroke-width="1"/><path d="M321.785,177.939a1.551,1.551,0,0,0,1.927-.684,2.049,2.049,0,0,1,.714,1.172,1.96,1.96,0,0,1,1.549-.287c.225.054.438.146.66.213a5.6,5.6,0,0,0,1.682.146l19.721-.294" transform="translate(-215.738 -91.219)" fill="none" stroke="#263238" stroke-linecap="round" stroke-linejoin="round" stroke-width="1"/><path d="M275.52,219.35l8.954-.863a.533.533,0,0,0,.58-.674l-.006-5.746a.6.6,0,0,0-.68-.736c-1.95-.168-6.33-1.148-8.011.172C274.623,212.865,275.526,217.4,275.52,219.35Z" transform="translate(-222.447 -86.375)" fill="none" stroke="#263238" stroke-linecap="round" stroke-linejoin="round" stroke-width="1"/><path d="M277.729,213.823q.166.808.334,1.617a13.709,13.709,0,0,1,4.135-.215" transform="translate(-222.096 -85.942)" fill="none" stroke="#263238" stroke-linecap="round" stroke-linejoin="round" stroke-width="1"/><path d="M281.741,220.444a.824.824,0,0,0,.751,1.269c.606-.122,1.084-.934,1.645-.676" transform="translate(-221.538 -84.987)" fill="none" stroke="#263238" stroke-linecap="round" stroke-linejoin="round" stroke-width="1"/><path d="M276.329,208.966a1.055,1.055,0,0,1,1.9.341l2.152-.261" transform="translate(-222.298 -86.71)" fill="none" stroke="#263238" stroke-linecap="round" stroke-linejoin="round" stroke-width="1"/><path d="M291.987,227.469q4.6.034,9.193,0a47.276,47.276,0,0,0,7.1-.429,1.161,1.161,0,0,0,.712-.3,1.185,1.185,0,0,0,.193-.794l.01-13.915c0-.16-14.02-.615-15.659.522C290.195,214.87,291.985,223.91,291.987,227.469Z" transform="translate(-220.108 -86.233)" fill="none" stroke="#263238" stroke-linecap="round" stroke-linejoin="round" stroke-width="1"/><path d="M296.3,215.6l2.183.049a14.524,14.524,0,0,1-1.852,4.2c-.294.405-.648.906-.429,1.357,1.127.18,2.477.281,3.209-.594.936-1.121.108-2.949.818-4.225l.271,2.711.955.9a2.339,2.339,0,0,0,.9.617.8.8,0,0,0,.951-.343" transform="translate(-219.44 -85.685)" fill="none" stroke="#263238" stroke-linecap="round" stroke-linejoin="round" stroke-width="1"/><path d="M301.83,227.552c.725-.255,1.013,1.091,1.758,1.284s1.165-.784,1.779-1.226a1.475,1.475,0,0,1,1.928.253" transform="translate(-218.618 -83.988)" fill="none" stroke="#263238" stroke-linecap="round" stroke-linejoin="round" stroke-width="1"/><path d="M296.668,208.286c.685.181.419,1.321.933,1.809.532.506,1.371-.024,1.953-.471s1.652-.674,1.861.03" transform="translate(-219.363 -86.741)" fill="none" stroke="#263238" stroke-linecap="round" stroke-linejoin="round" stroke-width="1"/></g><rect width="274.216" height="19.366" transform="translate(0 189.195)" fill="#bfbfbf" stroke="#263238" stroke-linecap="round" stroke-linejoin="round" stroke-width="1"/><g transform="translate(8.488 195.092)"><rect width="179.176" height="4.124" transform="translate(35.812 1.724)" fill="#263238"/><path d="M339.2,247.348a3.008,3.008,0,1,1-3.008-3.008A3.008,3.008,0,0,1,339.2,247.348Z" transform="translate(-201.769 -243.562)" fill="#92e3a9" stroke="#263238" stroke-linecap="round" stroke-linejoin="round" stroke-width="1"/><rect width="7.411" height="7.411" transform="translate(249.432 0.081)" fill="none" stroke="#263238" stroke-linecap="round" stroke-linejoin="round" stroke-width="1"/><rect width="7.411" height="7.411" transform="translate(236.989 0.081)" fill="none" stroke="#263238" stroke-linecap="round" stroke-linejoin="round" stroke-width="1"/><rect width="12.924" height="7.573" fill="none" stroke="#263238" stroke-linecap="round" stroke-linejoin="round" stroke-width="1"/></g><line x2="48.752" transform="translate(8.337 9.365)" fill="none" stroke="#fff" stroke-linecap="round" stroke-linejoin="round" stroke-width="1"/><path d="M445.209,81.563a2.863,2.863,0,1,1-2.863-2.863A2.863,2.863,0,0,1,445.209,81.563Z" transform="translate(-177.943 -72.371)" fill="none" stroke="#fff" stroke-linecap="round" stroke-linejoin="round" stroke-width="1"/><path d="M435.323,81.715a2.863,2.863,0,1,1-2.863-2.863A2.863,2.863,0,0,1,435.323,81.715Z" transform="translate(-179.369 -72.35)" fill="none" stroke="#fff" stroke-linecap="round" stroke-linejoin="round" stroke-width="1"/><path d="M425.436,81.867A2.862,2.862,0,1,1,422.573,79,2.863,2.863,0,0,1,425.436,81.867Z" transform="translate(-180.796 -72.328)" fill="none" stroke="#fff" stroke-linecap="round" stroke-linejoin="round" stroke-width="1"/></g></g><g transform="translate(35.315 295.685)"><g transform="translate(19.284)"><g transform="translate(0.781 82.2)"><path d="M261.021,423.232h-27.1l-14.67-4.646-4.612-1.453L213.3,430.944l-160.453.3S55.3,425.063,59.292,416c8.617-19.556,24.408-52.581,38.22-66.072,11.214-10.951,39.227-11.26,39.227-11.26a17.452,17.452,0,0,1,9.646-2.906c5.149.252,44.078,4.474,46.493,5.687a13.063,13.063,0,0,1,4.222,3.913s13.64-6.03,27.04-.6S261.021,423.232,261.021,423.232Z" transform="translate(-52.85 -335.748)" fill="#bfbfbf"/><g clip-path="url(#b)"><path d="M219.254,412.773l-4.612-1.453L213.3,425.132l-160.453.3s2.449-6.179,6.442-15.242c6.191-.149,13.171-.469,13.171-.469l3.593-11.752S81.7,392,88.747,395.517a4.4,4.4,0,0,1,1.819-4.795c2.723-1.808,13.892,3.994,13.892,3.994s5.378-10.253,7.209-17.039,3.044,9.532,3.044,9.532,4.531-7.484,4.531-9.532,8.445,20.288,8.445,20.288,11.168,1.339,14.189,2.483,33.093,2.334,42.774,0-6.866,11.4-6.866,11.4,17,5.733,26.616,1.968,13.915-7.77,13.915-7.77S218.75,408.871,219.254,412.773Z" transform="translate(-52.85 -329.935)" fill="rgba(0,0,0,0.7)" opacity="0.2"/></g><path d="M261.021,423.232h-27.1l-14.67-4.646-4.612-1.453L213.3,430.944l-160.453.3S55.3,425.063,59.292,416c8.617-19.556,24.408-52.581,38.22-66.072,11.214-10.951,39.227-11.26,39.227-11.26a17.452,17.452,0,0,1,9.646-2.906c5.149.252,44.078,4.474,46.493,5.687a13.063,13.063,0,0,1,4.222,3.913s13.64-6.03,27.04-.6S261.021,423.232,261.021,423.232Z" transform="translate(-52.85 -335.748)" fill="none" stroke="#263238" stroke-linecap="round" stroke-linejoin="round" stroke-width="1"/></g><path d="M191.572,381.36a60.109,60.109,0,0,1-8.108,9.276" transform="translate(-33.222 -246.966)" fill="none" stroke="#263238" stroke-linecap="round" stroke-linejoin="round" stroke-width="1"/><path d="M181.545,395.3a83.36,83.36,0,0,1-39.754,15.726" transform="translate(-39.235 -244.954)" fill="none" stroke="#263238" stroke-linecap="round" stroke-linejoin="round" stroke-width="1"/><g transform="translate(162.579 96.376)"><path d="M224.081,398.2s4.166-2.584,7.817-1.744,6.669,4.46,6.669,4.46,30.307-2.516,37.184-2.315,22.269,4.729,22.269,4.729,7.457-1.509,8.255-1.207-1.616,25.7-1.616,25.7H206.275c-4.829,0-8.409-6.991-12.03-12.489a246.55,246.55,0,0,0,9.5-67.206" transform="translate(-194.245 -348.136)" fill="#bfbfbf"/><g clip-path="url(#c)"><path d="M251.089,424.107H206.278c-4.829,0-8.411-6.992-12.038-12.484a230.927,230.927,0,0,0,7.632-37.693s4.76,7.06,1.865,15.242l2.9-8.182s2.781,8.765,0,16.192-4.76,9.555-4.76,9.555,3.4,4.486,7.072,3.284,7.6,6.076,7.6,6.076,8.742.332,10.562,0C227.94,415.949,239.257,419.851,251.089,424.107Z" transform="translate(-194.246 -344.414)" fill="rgba(0,0,0,0.7)" opacity="0.2"/></g><path d="M224.081,398.2s4.166-2.584,7.817-1.744,6.669,4.46,6.669,4.46,30.307-2.516,37.184-2.315,22.269,4.729,22.269,4.729,7.457-1.509,8.255-1.207-1.616,25.7-1.616,25.7H206.275c-4.829,0-8.409-6.991-12.03-12.489a246.55,246.55,0,0,0,9.5-67.206" transform="translate(-194.245 -348.136)" fill="none" stroke="#263238" stroke-linecap="round" stroke-linejoin="round" stroke-width="1"/></g><path d="M176.854,323.4v24.442a105.817,105.817,0,0,1-9.612,5.824c-6.671,3.536-15.231,7.037-20.323,5.046-9.234-3.627-15.219-17.565-15.219-17.565,9.967-7.6,11.168-17.748,12.679-22.577Z" transform="translate(-40.691 -256.026)" fill="#fff" stroke="#263238" stroke-linecap="round" stroke-linejoin="round" stroke-width="1"/><path d="M127.483,339.934s8.451,18.409,18.712,21.729,27.691-9.657,27.691-9.657" transform="translate(-41.299 -252.943)" fill="none" stroke="#263238" stroke-linecap="round" stroke-linejoin="round" stroke-width="1"/><path d="M87.132,359.4s15.995,12.471,18.71,16.677,0,43.742,0,43.742" transform="translate(-47.122 -250.135)" fill="none" stroke="#263238" stroke-linecap="round" stroke-linejoin="round" stroke-width="1"/><path d="M70.365,394.886c9.439-6.082,16.079.579,21.813,1.776s18.409-5.271,27.915,0,9.507,3.459,9.507,3.459,9.959,7.594,4.828,22.8l-81.483.15s-5.432-11.618,12.433-28.184" transform="translate(-52.167 -245.378)" fill="#bfbfbf" stroke="#263238" stroke-linecap="round" stroke-linejoin="round" stroke-width="1"/><path d="M138.263,373.978l21.506,39.328.676,4.414-3.4-3.051-22.182-39.049A3.232,3.232,0,0,1,138.263,373.978Z" transform="translate(-40.234 -248.038)" fill="#92e3a9" stroke="#263238" stroke-linecap="round" stroke-linejoin="round" stroke-width="1"/><g transform="translate(74.185 146.936)"><path d="M120.471,402.164a24.594,24.594,0,0,1,4.98-.905c1.81,0,13-8.278,16.8-8.892s10.632,5.044,14.117,5.949,3.26,5.433,5.3,7.243-.905,3.848-3.4,1.81a4.621,4.621,0,0,1-.905,4.089s.679,2.476,0,3.608H117.034S116.4,407.37,120.471,402.164Z" transform="translate(-116.997 -392.32)" fill="#fff" stroke="#263238" stroke-linecap="round" stroke-linejoin="round" stroke-width="1"/><path d="M154.693,406.3l-3.621-3.583-9.28-2.981" transform="translate(-113.42 -391.25)" fill="none" stroke="#263238" stroke-linecap="round" stroke-linejoin="round" stroke-width="1"/><path d="M153.93,409.539l-5.545-2.492-7.583-1.425" transform="translate(-113.562 -390.401)" fill="none" stroke="#263238" stroke-linecap="round" stroke-linejoin="round" stroke-width="1"/><path d="M140.8,410.781l7.583.34,5.545,1.281" transform="translate(-113.562 -389.657)" fill="none" stroke="#263238" stroke-linecap="round" stroke-linejoin="round" stroke-width="1"/><path d="M139.59,392.361c-3.447,3.007-.051,6.176-1.636,8.439s-3.4,2.943-2.037,6.564" transform="translate(-114.336 -392.314)" fill="none" stroke="#263238" stroke-linecap="round" stroke-linejoin="round" stroke-width="1"/></g><g transform="translate(147.608 93.131)"><g transform="translate(0 78.461)"><path d="M181.979,413.867h183.3a6.1,6.1,0,0,1-6.1,6.1H196.659a6.12,6.12,0,0,1-1.872-.294l-13.059-4.212A.817.817,0,0,1,181.979,413.867Z" transform="translate(-181.161 -413.867)" fill="#92e3a9"/><g clip-path="url(#d)"><path d="M365.277,413.87a6.119,6.119,0,0,1-1.785,4.314,2.292,2.292,0,0,1-.183.16,6.066,6.066,0,0,1-4.131,1.625H196.665a6.132,6.132,0,0,1-1.877-.3l-13.056-4.211a.814.814,0,0,1,.252-1.591Z" transform="translate(-181.161 -413.867)" fill="rgba(0,0,0,0.7)" opacity="0.2"/><path d="M356.1,413.87a6.119,6.119,0,0,1-1.785,4.314,2.287,2.287,0,0,1-.183.16H249.256a4.483,4.483,0,0,1-4.486-4.474Z" transform="translate(-171.983 -413.867)" fill="rgba(0,0,0,0.7)" opacity="0.2"/></g><path d="M181.979,413.867h183.3a6.1,6.1,0,0,1-6.1,6.1H196.659a6.12,6.12,0,0,1-1.872-.294l-13.059-4.212A.817.817,0,0,1,181.979,413.867Z" transform="translate(-181.161 -413.867)" fill="none" stroke="#263238" stroke-linecap="round" stroke-linejoin="round" stroke-width="1"/></g><path d="M244.774,413.867h0a4.479,4.479,0,0,0,4.479,4.479h17.408" transform="translate(-171.982 -335.406)" fill="none" stroke="#263238" stroke-linecap="round" stroke-linejoin="round" stroke-width="1"/><g transform="translate(77.294)"><path d="M388.337,348.527c-.011.046-.023.1-.034.149l-21.3,74.208a4.949,4.949,0,0,1-4.5,3.376H251.4a2.515,2.515,0,0,1-2.563-3.376l21.307-74.208a4.937,4.937,0,0,1,4.5-3.376H385.751A2.488,2.488,0,0,1,388.337,348.527Z" transform="translate(-248.708 -345.3)" fill="#92e3a9"/><g clip-path="url(#e)"><path d="M387.906,348.12c-.011.046-.023.1-.034.149l-21.3,74.208a4.949,4.949,0,0,1-4.5,3.376H251.7c.011-.046.023-.1.034-.149l21.3-74.208a4.949,4.949,0,0,1,4.5-3.376Z" transform="translate(-248.276 -344.893)" fill="#fff" opacity="0.4"/></g><path d="M388.337,348.527c-.011.046-.023.1-.034.149l-21.3,74.208a4.949,4.949,0,0,1-4.5,3.376H251.4a2.515,2.515,0,0,1-2.563-3.376l21.307-74.208a4.937,4.937,0,0,1,4.5-3.376H385.751A2.488,2.488,0,0,1,388.337,348.527Z" transform="translate(-248.708 -345.3)" fill="none" stroke="#263238" stroke-linecap="round" stroke-linejoin="round" stroke-width="1"/></g><path d="M318.865,383.061a11.938,11.938,0,0,1-10.259,6.718c-4.672,0-7.425-3.614-6.144-8.08a11.859,11.859,0,0,1,10.786-8.09h.122a9.065,9.065,0,0,0-.516,1.371C311.584,379.407,314.264,382.992,318.865,383.061Z" transform="translate(-163.703 -341.215)" fill="#fff" stroke="#263238" stroke-linecap="round" stroke-linejoin="round" stroke-width="1"/><path d="M252.2,422.248l20.793-72.431a2.879,2.879,0,0,1,2.619-1.965H383.318" transform="translate(-170.911 -344.932)" fill="none" stroke="#263238" stroke-linecap="round" stroke-linejoin="round" stroke-width="1"/></g><g transform="translate(23.988 169.385)"><path d="M226.42,420.248H73.13l1.854-3.868s14.441,1.327,25.918-2.231c5.069-1.579,12.873-2.311,20.7-2.2,4.932.069,16.936.114,24.385.08H146c2.655-.011,4.737-.034,5.7-.069.378-.023.755-.023,1.121-.023a30.072,30.072,0,0,1,6.328.6,47.745,47.745,0,0,1,6.053-.3c3.536.046,18.744-.057,22.886,0,5.458.069,11.763,1.121,17.748,1.968.057-.023.114-.034.16-.057l.034.08c7.232,1.007,14.006,1.694,18.274-.08Z" transform="translate(-73.13 -411.939)" fill="#fff"/><g clip-path="url(#f)"><path d="M222.078,420.262H103.22l2.414-4.154s6.488,3.788,12.828,1.1,12.725-4.005,23.183-5.161h.011a36.905,36.905,0,0,1,6.82-.092,46.489,46.489,0,0,1,13.285,3.021s6.236-2.723,21.982-2.723c5.458.069,11.763,1.121,17.748,1.968.057-.023.114-.034.16-.057l.034.08c7.232,1.007,14.006,1.694,18.274-.08Z" transform="translate(-68.788 -411.953)" fill="#92e3a9" opacity="0.4"/><path d="M109.976,415.57l-34.993.286-1.854,3.868h34.432Z" transform="translate(-73.13 -411.414)" fill="#92e3a9"/><path d="M104.084,418.548l1.426-2.452a24.436,24.436,0,0,0,9.808,2.039c5.131-.151,13.23-6.5,28.8-6.194" transform="translate(-68.663 -411.94)" fill="none" stroke="#263238" stroke-linecap="round" stroke-linejoin="round" stroke-width="1"/><path d="M148.3,412.5c2.877,1.055,6.957,2.426,6.957,2.426s5.287-3.04,16.906-2.726" transform="translate(-62.283 -411.904)" fill="none" stroke="#263238" stroke-linecap="round" stroke-linejoin="round" stroke-width="1"/><path d="M108.526,415.57s-18.105.325-25.347.476" transform="translate(-71.68 -411.414)" fill="none" stroke="#263238" stroke-linecap="round" stroke-linejoin="round" stroke-width="1"/><path d="M152.275,419.588a3.57,3.57,0,0,1,2.866-3.051c2.566-.42,4.225,2.749,4.225,2.749" transform="translate(-61.71 -411.281)" fill="none" stroke="#263238" stroke-linecap="round" stroke-linejoin="round" stroke-width="1"/><line x2="0.458" y2="2.234" transform="translate(92.974 3.023)" fill="none" stroke="#263238" stroke-linecap="round" stroke-linejoin="round" stroke-width="1"/><path d="M156.629,416.927s8.145-3.718,15.992-3.05" transform="translate(-61.081 -411.67)" fill="none" stroke="#263238" stroke-linecap="round" stroke-linejoin="round" stroke-width="1"/><path d="M156.915,417.248c-.729-.566-12.951-4.344-25.475-1.551" transform="translate(-64.716 -411.543)" fill="none" stroke="#263238" stroke-linecap="round" stroke-linejoin="round" stroke-width="1"/><path d="M154.7,418.412s-10.311-1.962-19.264-.6" transform="translate(-64.139 -411.161)" fill="none" stroke="#263238" stroke-linecap="round" stroke-linejoin="round" stroke-width="1"/><path d="M157.635,418.017A51.85,51.85,0,0,1,178.6,416.6a129.358,129.358,0,0,0,20.925,1.39" transform="translate(-60.936 -411.339)" fill="none" stroke="#263238" stroke-linecap="round" stroke-linejoin="round" stroke-width="1"/></g><path d="M226.42,420.248H73.13l1.854-3.868s14.441,1.327,25.918-2.231c5.069-1.579,12.873-2.311,20.7-2.2,4.932.069,16.936.114,24.385.08H146c2.655-.011,4.737-.034,5.7-.069.378-.023.755-.023,1.121-.023a30.072,30.072,0,0,1,6.328.6,47.745,47.745,0,0,1,6.053-.3c3.536.046,18.744-.057,22.886,0,5.458.069,11.763,1.121,17.748,1.968.057-.023.114-.034.16-.057l.034.08c7.232,1.007,14.006,1.694,18.274-.08Z" transform="translate(-73.13 -411.939)" fill="none" stroke="#263238" stroke-linecap="round" stroke-linejoin="round" stroke-width="1"/></g><path d="M173.428,341.818v4.062a105.817,105.817,0,0,1-9.612,5.824c-7.335-6.74-8.376-19.545-8.376-19.545Z" transform="translate(-37.265 -254.065)" fill="#263238"/><g transform="translate(93.098)"><path d="M144.523,327.52c-8.622-12.762-6.888-36.677,4.225-49.642,16.3-19.013,58.825-5.13,58.78,21.753a72.136,72.136,0,0,1-.957,11.145c-.564,3.547-3.641,7.134-4.585,10.665s-.565,9.111-.943,12.626c-.84,7.816-11.654,23.32-14.592,25-4.1,2.339-26.235-3.927-31.063-18.119" transform="translate(-132.726 -263.167)" fill="#fff" stroke="#263238" stroke-linecap="round" stroke-linejoin="round" stroke-width="1"/><path d="M170.209,306.493s6.035-2.192,11.468,0" transform="translate(-128.232 -257.909)" fill="none" stroke="#263238" stroke-linecap="round" stroke-linejoin="round" stroke-width="1"/><path d="M191.044,306.493s4.39-2.192,7.325,0" transform="translate(-125.225 -257.909)" fill="none" stroke="#263238" stroke-linecap="round" stroke-linejoin="round" stroke-width="1"/><path d="M175.6,315.731c-.317,1.552-1.369,2.647-2.348,2.447s-1.517-1.62-1.2-3.172,1.369-2.647,2.349-2.447S175.916,314.179,175.6,315.731Z" transform="translate(-127.979 -256.897)" fill="#263238"/><path d="M192.558,315.731c-.317,1.552-1.369,2.647-2.348,2.447s-1.517-1.62-1.2-3.172,1.369-2.647,2.348-2.447S192.875,314.179,192.558,315.731Z" transform="translate(-125.532 -256.897)" fill="#263238"/><path d="M190.51,308.418s-2.868,4.979-3.17,9.2,4.527,12.826,3.17,15.543-7.394,2.566-9.356.905" transform="translate(-126.653 -257.491)" fill="#fff" stroke="#263238" stroke-linecap="round" stroke-linejoin="round" stroke-width="1"/><path d="M183.542,335.791a21.143,21.143,0,0,1-11.619-1.659" transform="translate(-127.985 -253.781)" fill="none" stroke="#263238" stroke-linecap="round" stroke-linejoin="round" stroke-width="1"/><path d="M153.984,316.5s2.807-2.715,6.127-1.659,3.924,10.11,3.924,10.11l2.414-2.566s-.906-5.112,2.715-12.289,1.811-15.628,1.811-15.628,6.228,2.112,8.4,6.941c0,0,2.36-5.13,0-9.054,0,0,9.712,2.414,12.126,9.658,0,0,1.91-5.433,1.256-8.149,0,0,6.59,2.112,9,8.449,0,0,2.195-4.828,1.248-8.752,0,0,2.655,2.267,3.662,9.054a20.983,20.983,0,0,0,1.659-13.278s3.389,3.923,3.994,7.242c0,0,2.789-9.657-13.544-22.634s-44.283-10.033-48.626,0c0,0,1.442-7.392,4.343-10.033,0,0-8.073,3.568-7.843,10.938,0,0-7.063-.905-10.684,3.622a28.026,28.026,0,0,1,6.639.3s-9.657,5.734-9.054,19.315,9.054,33.2,9.054,33.2l6.614-1.932S150.273,320.121,153.984,316.5Z" transform="translate(-133.525 -263.913)" fill="#263238"/><path d="M159.662,314s-5.13-9.054-7.846-9.657-7.846,3.018-6.639,7.846,2.112,12.977,3.622,13.883,3.923,6.337,6.337,4.829a2.305,2.305,0,0,0,.6-3.622" transform="translate(-131.87 -258.089)" fill="#fff" stroke="#263238" stroke-linecap="round" stroke-linejoin="round" stroke-width="1"/></g><path d="M208.175,373.928a53.047,53.047,0,0,1-2,6.574" transform="translate(-29.944 -248.038)" fill="none" stroke="#263238" stroke-linecap="round" stroke-linejoin="round" stroke-width="1"/><path d="M205.564,383.491a32.846,32.846,0,0,1-7.85,10.953" transform="translate(-31.165 -246.658)" fill="none" stroke="#263238" stroke-linecap="round" stroke-linejoin="round" stroke-width="1"/><path d="M233.947,394.266c-1.569-.208-4.757,1.767-7.683,4.323" transform="translate(-27.045 -245.106)" fill="none" stroke="#263238" stroke-linecap="round" stroke-linejoin="round" stroke-width="1"/><path d="M224.914,399.806c-2.308,2.372-4.068,4.878-4.068,6.484" transform="translate(-27.827 -244.304)" fill="none" stroke="#263238" stroke-linecap="round" stroke-linejoin="round" stroke-width="1"/><path d="M78.956,388.868s6.518,1.81,6.579,7.393" transform="translate(-48.302 -245.882)" fill="none" stroke="#263238" stroke-linecap="round" stroke-linejoin="round" stroke-width="1"/><path d="M100.319,362.231a30.766,30.766,0,0,1,2.947,3.863" transform="translate(-45.219 -249.726)" fill="none" stroke="#263238" stroke-linecap="round" stroke-linejoin="round" stroke-width="1"/><path d="M105.23,369.726a22.206,22.206,0,0,1,2.024,8.864c0,9.419-2.717,14.852-2.717,14.852" transform="translate(-44.61 -248.644)" fill="none" stroke="#263238" stroke-linecap="round" stroke-linejoin="round" stroke-width="1"/><path d="M134.868,354.156a45.265,45.265,0,0,0,5.528,4.41" transform="translate(-40.234 -250.891)" fill="none" stroke="#263238" stroke-linecap="round" stroke-linejoin="round" stroke-width="1"/><path d="M144.717,361c5.852,2.955,13.41,5.18,21.264,3.223" transform="translate(-38.812 -249.904)" fill="none" stroke="#263238" stroke-linecap="round" stroke-linejoin="round" stroke-width="1"/><g transform="translate(100.917 5.913)" opacity="0.2"><path d="M155.44,273.139a36.01,36.01,0,0,1,6.181-.4" transform="translate(-138.182 -268.553)" fill="none" stroke="#fff" stroke-linecap="round" stroke-linejoin="round" stroke-width="1"/><path d="M163.466,272.878c5.6.526,12.489,2.487,16.77,8.389" transform="translate(-137.024 -268.532)" fill="none" stroke="#fff" stroke-linecap="round" stroke-linejoin="round" stroke-width="1"/><path d="M167.308,269.08s10.492.117,18.016,5.372" transform="translate(-136.47 -269.08)" fill="none" stroke="#fff" stroke-linecap="round" stroke-linejoin="round" stroke-width="1"/><path d="M185.632,275.982a16.132,16.132,0,0,1,3.175,4.837" transform="translate(-133.826 -268.084)" fill="none" stroke="#fff" stroke-linecap="round" stroke-linejoin="round" stroke-width="1"/><path d="M153.066,277.044s10.314,3.622,13.883,10.11" transform="translate(-138.525 -267.931)" fill="none" stroke="#fff" stroke-linecap="round" stroke-linejoin="round" stroke-width="1"/><path d="M148.714,280.209a29.446,29.446,0,0,1,4.721,10.241" transform="translate(-139.153 -267.474)" fill="none" stroke="#fff" stroke-linecap="round" stroke-linejoin="round" stroke-width="1"/><path d="M153.448,293.66a19.992,19.992,0,0,1-.382,4.074" transform="translate(-138.525 -265.533)" fill="none" stroke="#fff" stroke-linecap="round" stroke-linejoin="round" stroke-width="1"/><path d="M142.813,283.9a33.622,33.622,0,0,0-1.311,4.124" transform="translate(-140.194 -266.941)" fill="none" stroke="#fff" stroke-linecap="round" stroke-linejoin="round" stroke-width="1"/><path d="M140.847,290.951a35.264,35.264,0,0,0-.132,10.8" transform="translate(-140.359 -265.924)" fill="none" stroke="#fff" stroke-linecap="round" stroke-linejoin="round" stroke-width="1"/></g></g><g transform="translate(0 177.692)"><path d="M293.189,439.548H437.6V419.2H35.315v20.35H116.64" transform="translate(-35.315 -419.198)" fill="#fff" stroke="#263238" stroke-linecap="round" stroke-linejoin="round" stroke-width="1"/><line x1="20.507" transform="translate(227.002 20.35)" fill="#fff" stroke="#263238" stroke-linecap="round" stroke-linejoin="round" stroke-width="1"/></g></g></g></svg>