<svg xmlns="http://www.w3.org/2000/svg" width="75" height="75" viewBox="0 0 75 75">
  <g id="websx" transform="translate(8332 -3135)">
    <g id="_10lak" data-name="10lak" transform="translate(-9372 1206)">
      <circle id="Ellipse_532" data-name="Ellipse 532" cx="37.5" cy="37.5" r="37.5" transform="translate(1040 1929)" fill="#1374f2"/>
      <g id="cinema" transform="translate(1055 1910)">
        <g id="Group_1729" data-name="Group 1729" transform="translate(0 38)">
          <g id="Group_1728" data-name="Group 1728">
            <path id="Path_2037" data-name="Path 2037" d="M43.752,65.691v-.23a2.534,2.534,0,0,0-1.143-2.117,4.127,4.127,0,0,0,1.143-2.857,4.878,4.878,0,0,0-1.177-3.107,4.05,4.05,0,0,0-2.309-1.406v-14.7A3.272,3.272,0,0,0,37,38H7.626a3.272,3.272,0,0,0-3.268,3.268v14.7a4.05,4.05,0,0,0-2.309,1.406A4.878,4.878,0,0,0,.872,60.486a4.126,4.126,0,0,0,1.143,2.857A2.534,2.534,0,0,0,.872,65.46v.23A1.526,1.526,0,0,0,0,67.066v4.358a.654.654,0,0,0,1.307,0V67.066a.218.218,0,0,1,.218-.218H8.5a.218.218,0,0,1,.218.218v2.4H7.278a1.527,1.527,0,0,0-1.525,1.525v4.358a.654.654,0,1,0,1.307,0v-4.36a.218.218,0,0,1,.218-.218H14.25a.218.218,0,0,1,.218.218v4.358a.654.654,0,1,0,1.307,0V70.989a1.527,1.527,0,0,0-1.525-1.525H12.841v-2.4a.218.218,0,0,1,.218-.218h6.972a.218.218,0,0,1,.218.218v2.4h-1.38a1.527,1.527,0,0,0-1.525,1.525v4.358a.654.654,0,1,0,1.307,0V70.989a.218.218,0,0,1,.218-.218h6.972a.218.218,0,0,1,.218.218v4.358a.654.654,0,1,0,1.307,0V70.989a1.527,1.527,0,0,0-1.525-1.525H24.375v-2.4a.218.218,0,0,1,.218-.218h6.972a.218.218,0,0,1,.218.218v2.4H30.461a1.527,1.527,0,0,0-1.525,1.525v4.358a.654.654,0,1,0,1.307,0V70.989a.218.218,0,0,1,.218-.218h6.972a.218.218,0,0,1,.218.218v4.358a.654.654,0,1,0,1.307,0V70.989a1.527,1.527,0,0,0-1.525-1.525H35.908v-2.4a.218.218,0,0,1,.218-.218H43.1a.218.218,0,0,1,.218.218v4.358a.654.654,0,0,0,1.307,0V67.067a1.526,1.526,0,0,0-.873-1.376ZM5.982,63.736a.654.654,0,0,0,.635.5A1.228,1.228,0,0,1,7.844,65.46v.081H2.179V65.46a1.228,1.228,0,0,1,1.227-1.227A.654.654,0,0,0,3.707,63a2.826,2.826,0,0,1-1.528-2.514c0-1.511,1.237-3.268,2.833-3.268,1.572,0,2.813,1.738,2.832,3.232v.036A2.826,2.826,0,0,1,6.316,63a.654.654,0,0,0-.334.736ZM12.4,65.461v.23a1.526,1.526,0,0,0-.872,1.376v2.4h-1.51v-2.4a1.526,1.526,0,0,0-.872-1.376v-.23a2.534,2.534,0,0,0-1.143-2.117,4.12,4.12,0,0,0,1.1-2.247H12.45a4.121,4.121,0,0,0,1.1,2.247A2.534,2.534,0,0,0,12.4,65.461Zm5.111-1.725a.654.654,0,0,0,.635.5,1.228,1.228,0,0,1,1.227,1.227v.081H13.713V65.46a1.228,1.228,0,0,1,1.227-1.227A.654.654,0,0,0,15.24,63a2.826,2.826,0,0,1-1.528-2.516v-.034c.018-1.495,1.259-3.233,2.832-3.233s2.813,1.738,2.832,3.232v.036A2.826,2.826,0,0,1,17.849,63a.654.654,0,0,0-.333.736Zm6.423,1.725v.23a1.526,1.526,0,0,0-.872,1.376v2.4h-1.51v-2.4a1.526,1.526,0,0,0-.872-1.376v-.23a2.534,2.534,0,0,0-1.143-2.117,4.12,4.12,0,0,0,1.1-2.247h3.344a4.121,4.121,0,0,0,1.1,2.247A2.534,2.534,0,0,0,23.939,65.461Zm5.111-1.725a.654.654,0,0,0,.635.5,1.228,1.228,0,0,1,1.227,1.227v.081H25.246V65.46a1.228,1.228,0,0,1,1.227-1.227.654.654,0,0,0,.3-1.234,2.826,2.826,0,0,1-1.528-2.515v-.035c.018-1.495,1.259-3.233,2.832-3.233s2.813,1.738,2.832,3.232v.036A2.826,2.826,0,0,1,29.383,63a.653.653,0,0,0-.333.736Zm6.423,1.725v.23a1.526,1.526,0,0,0-.872,1.376v2.4H33.09v-2.4a1.526,1.526,0,0,0-.872-1.376v-.23a2.534,2.534,0,0,0-1.143-2.117,4.12,4.12,0,0,0,1.1-2.247h3.344a4.121,4.121,0,0,0,1.1,2.247,2.534,2.534,0,0,0-1.147,2.117Zm.058-5.672h-3.37a4.972,4.972,0,0,0-1.136-2.429,3.718,3.718,0,0,0-5.891,0A4.971,4.971,0,0,0,24,59.789H20.63a4.972,4.972,0,0,0-1.136-2.429,3.9,3.9,0,0,0-2.946-1.449A3.9,3.9,0,0,0,13.6,57.36a4.97,4.97,0,0,0-1.136,2.429H9.094A4.972,4.972,0,0,0,7.957,57.36a4.045,4.045,0,0,0-2.292-1.386V41.268a1.963,1.963,0,0,1,1.961-1.961H37a1.963,1.963,0,0,1,1.961,1.961v14.7a4.045,4.045,0,0,0-2.292,1.386,4.971,4.971,0,0,0-1.138,2.43Zm5.053,3.947a.654.654,0,0,0,.635.5,1.228,1.228,0,0,1,1.227,1.227v.081H36.78V65.46a1.228,1.228,0,0,1,1.227-1.227.654.654,0,0,0,.3-1.234,2.826,2.826,0,0,1-1.528-2.515v-.035c.018-1.495,1.259-3.233,2.832-3.233,1.6,0,2.833,1.757,2.833,3.268A2.826,2.826,0,0,1,40.917,63a.654.654,0,0,0-.334.736Z" transform="translate(0 -38)" fill="#1374f2"/>
          </g>
        </g>
        <g id="Group_1731" data-name="Group 1731" transform="translate(17.735 44.974)">
          <g id="Group_1730" data-name="Group 1730">
            <path id="Path_2038" data-name="Path 2038" d="M212.28,122l-7.844-3.922a.661.661,0,0,0-.635.029.65.65,0,0,0-.31.556V123.9a.654.654,0,1,0,1.307,0v-4.171l5.729,2.864c-6.963,3.482-6.729,3.368-6.729,3.368a.646.646,0,0,0-.215.221h0a.653.653,0,0,0,.26.908h0a.619.619,0,0,0,.2.067h0a.627.627,0,0,0,.255-.011c.06,0,7.927-3.945,7.98-3.972a.654.654,0,0,0,0-1.17Z" transform="translate(-203.49 -118.014)" fill="#1374f2"/>
          </g>
        </g>
      </g>
    </g>
    <path id="earth-grid_1_" data-name="earth-grid (1)" d="M20,0A20,20,0,1,0,40,20,20.023,20.023,0,0,0,20,0ZM38.412,19.215H34.337a25.54,25.54,0,0,0-2.463-10.47,20.186,20.186,0,0,0,1.594-1.313A18.362,18.362,0,0,1,38.412,19.215ZM24.7,6.194a16.014,16.014,0,0,0-1.737-4.124,13.224,13.224,0,0,1,6.871,6.171A18.226,18.226,0,0,1,25.6,10.215,36.2,36.2,0,0,0,24.7,6.194Zm-.62,4.433A18.561,18.561,0,0,1,20,11.078a18.562,18.562,0,0,1-4.078-.451c.96-5.757,2.7-9.057,4.077-9.057S23.117,4.869,24.078,10.627Zm-8.865,8.588a59.117,59.117,0,0,1,.478-7.031,20.152,20.152,0,0,0,4.31.464,20.151,20.151,0,0,0,4.309-.464,59.139,59.139,0,0,1,.478,7.031H15.212Zm9.575,1.57a59.1,59.1,0,0,1-.479,7.032,20.238,20.238,0,0,0-8.618,0,59.108,59.108,0,0,1-.479-7.032h9.575ZM17.039,2.071A16.014,16.014,0,0,0,15.3,6.194a36.153,36.153,0,0,0-.9,4.02,18.227,18.227,0,0,1-4.234-1.973A13.224,13.224,0,0,1,17.039,2.071Zm-2.876,9.715a61.143,61.143,0,0,0-.521,7.43H7.234a24.155,24.155,0,0,1,2.2-9.577A19.787,19.787,0,0,0,14.163,11.786Zm-.521,9a61.134,61.134,0,0,0,.521,7.43,19.779,19.779,0,0,0-4.725,2.147,24.155,24.155,0,0,1-2.2-9.577Zm.76,9a36.168,36.168,0,0,0,.9,4.019,16.014,16.014,0,0,0,1.737,4.124,13.225,13.225,0,0,1-6.871-6.171A18.228,18.228,0,0,1,14.4,29.786Zm1.521-.412a18.648,18.648,0,0,1,8.155,0c-.96,5.757-2.7,9.056-4.077,9.056S16.883,35.131,15.923,29.374Zm7.039,8.555A16.015,16.015,0,0,0,24.7,33.806a36.144,36.144,0,0,0,.9-4.02,18.229,18.229,0,0,1,4.234,1.972A13.225,13.225,0,0,1,22.961,37.929Zm2.876-9.714a61.15,61.15,0,0,0,.521-7.43h6.408a24.156,24.156,0,0,1-2.2,9.577A19.78,19.78,0,0,0,25.837,28.215Zm.521-9a61.119,61.119,0,0,0-.521-7.429,19.772,19.772,0,0,0,4.725-2.147,24.155,24.155,0,0,1,2.2,9.577ZM32.347,6.33q-.593.536-1.224,1.015-.42-.716-.891-1.385a16.92,16.92,0,0,0-2.179-2.535A18.5,18.5,0,0,1,32.347,6.33ZM9.768,5.96q-.471.667-.891,1.385Q8.246,6.866,7.653,6.33a18.5,18.5,0,0,1,4.294-2.9A16.915,16.915,0,0,0,9.768,5.96ZM6.533,7.433A20.187,20.187,0,0,0,8.127,8.745a25.54,25.54,0,0,0-2.463,10.47H1.588A18.362,18.362,0,0,1,6.533,7.433ZM1.588,20.785H5.663a25.541,25.541,0,0,0,2.464,10.47,20.183,20.183,0,0,0-1.594,1.312A18.362,18.362,0,0,1,1.588,20.785ZM7.653,33.671q.593-.536,1.224-1.015.42.716.89,1.384a16.913,16.913,0,0,0,2.179,2.535A18.5,18.5,0,0,1,7.653,33.671Zm22.579.369q.471-.667.89-1.384.631.479,1.224,1.015a18.5,18.5,0,0,1-4.293,2.9A16.929,16.929,0,0,0,30.232,34.04Zm3.235-1.472a20.183,20.183,0,0,0-1.594-1.313,25.54,25.54,0,0,0,2.464-10.47h4.075A18.362,18.362,0,0,1,33.467,32.568Z" transform="translate(-8314 3152)" fill="#fff"/>
  </g>
</svg>
