<svg xmlns="http://www.w3.org/2000/svg" width="75" height="75" viewBox="0 0 75 75">
  <g id="wordd" transform="translate(8332 -3135)">
    <g id="_10lak" data-name="10lak" transform="translate(-9372 1206)">
      <circle id="Ellipse_532" data-name="Ellipse 532" cx="37.5" cy="37.5" r="37.5" transform="translate(1040 1929)" fill="#f21367"/>
      <g id="cinema" transform="translate(1055 1910)">
        <g id="Group_1729" data-name="Group 1729" transform="translate(0 38)">
          <g id="Group_1728" data-name="Group 1728">
            <path id="Path_2037" data-name="Path 2037" d="M43.752,65.691v-.23a2.534,2.534,0,0,0-1.143-2.117,4.127,4.127,0,0,0,1.143-2.857,4.878,4.878,0,0,0-1.177-3.107,4.05,4.05,0,0,0-2.309-1.406v-14.7A3.272,3.272,0,0,0,37,38H7.626a3.272,3.272,0,0,0-3.268,3.268v14.7a4.05,4.05,0,0,0-2.309,1.406A4.878,4.878,0,0,0,.872,60.486a4.126,4.126,0,0,0,1.143,2.857A2.534,2.534,0,0,0,.872,65.46v.23A1.526,1.526,0,0,0,0,67.066v4.358a.654.654,0,0,0,1.307,0V67.066a.218.218,0,0,1,.218-.218H8.5a.218.218,0,0,1,.218.218v2.4H7.278a1.527,1.527,0,0,0-1.525,1.525v4.358a.654.654,0,1,0,1.307,0v-4.36a.218.218,0,0,1,.218-.218H14.25a.218.218,0,0,1,.218.218v4.358a.654.654,0,1,0,1.307,0V70.989a1.527,1.527,0,0,0-1.525-1.525H12.841v-2.4a.218.218,0,0,1,.218-.218h6.972a.218.218,0,0,1,.218.218v2.4h-1.38a1.527,1.527,0,0,0-1.525,1.525v4.358a.654.654,0,1,0,1.307,0V70.989a.218.218,0,0,1,.218-.218h6.972a.218.218,0,0,1,.218.218v4.358a.654.654,0,1,0,1.307,0V70.989a1.527,1.527,0,0,0-1.525-1.525H24.375v-2.4a.218.218,0,0,1,.218-.218h6.972a.218.218,0,0,1,.218.218v2.4H30.461a1.527,1.527,0,0,0-1.525,1.525v4.358a.654.654,0,1,0,1.307,0V70.989a.218.218,0,0,1,.218-.218h6.972a.218.218,0,0,1,.218.218v4.358a.654.654,0,1,0,1.307,0V70.989a1.527,1.527,0,0,0-1.525-1.525H35.908v-2.4a.218.218,0,0,1,.218-.218H43.1a.218.218,0,0,1,.218.218v4.358a.654.654,0,0,0,1.307,0V67.067a1.526,1.526,0,0,0-.873-1.376ZM5.982,63.736a.654.654,0,0,0,.635.5A1.228,1.228,0,0,1,7.844,65.46v.081H2.179V65.46a1.228,1.228,0,0,1,1.227-1.227A.654.654,0,0,0,3.707,63a2.826,2.826,0,0,1-1.528-2.514c0-1.511,1.237-3.268,2.833-3.268,1.572,0,2.813,1.738,2.832,3.232v.036A2.826,2.826,0,0,1,6.316,63a.654.654,0,0,0-.334.736ZM12.4,65.461v.23a1.526,1.526,0,0,0-.872,1.376v2.4h-1.51v-2.4a1.526,1.526,0,0,0-.872-1.376v-.23a2.534,2.534,0,0,0-1.143-2.117,4.12,4.12,0,0,0,1.1-2.247H12.45a4.121,4.121,0,0,0,1.1,2.247A2.534,2.534,0,0,0,12.4,65.461Zm5.111-1.725a.654.654,0,0,0,.635.5,1.228,1.228,0,0,1,1.227,1.227v.081H13.713V65.46a1.228,1.228,0,0,1,1.227-1.227A.654.654,0,0,0,15.24,63a2.826,2.826,0,0,1-1.528-2.516v-.034c.018-1.495,1.259-3.233,2.832-3.233s2.813,1.738,2.832,3.232v.036A2.826,2.826,0,0,1,17.849,63a.654.654,0,0,0-.333.736Zm6.423,1.725v.23a1.526,1.526,0,0,0-.872,1.376v2.4h-1.51v-2.4a1.526,1.526,0,0,0-.872-1.376v-.23a2.534,2.534,0,0,0-1.143-2.117,4.12,4.12,0,0,0,1.1-2.247h3.344a4.121,4.121,0,0,0,1.1,2.247A2.534,2.534,0,0,0,23.939,65.461Zm5.111-1.725a.654.654,0,0,0,.635.5,1.228,1.228,0,0,1,1.227,1.227v.081H25.246V65.46a1.228,1.228,0,0,1,1.227-1.227.654.654,0,0,0,.3-1.234,2.826,2.826,0,0,1-1.528-2.515v-.035c.018-1.495,1.259-3.233,2.832-3.233s2.813,1.738,2.832,3.232v.036A2.826,2.826,0,0,1,29.383,63a.653.653,0,0,0-.333.736Zm6.423,1.725v.23a1.526,1.526,0,0,0-.872,1.376v2.4H33.09v-2.4a1.526,1.526,0,0,0-.872-1.376v-.23a2.534,2.534,0,0,0-1.143-2.117,4.12,4.12,0,0,0,1.1-2.247h3.344a4.121,4.121,0,0,0,1.1,2.247,2.534,2.534,0,0,0-1.147,2.117Zm.058-5.672h-3.37a4.972,4.972,0,0,0-1.136-2.429,3.718,3.718,0,0,0-5.891,0A4.971,4.971,0,0,0,24,59.789H20.63a4.972,4.972,0,0,0-1.136-2.429,3.9,3.9,0,0,0-2.946-1.449A3.9,3.9,0,0,0,13.6,57.36a4.97,4.97,0,0,0-1.136,2.429H9.094A4.972,4.972,0,0,0,7.957,57.36a4.045,4.045,0,0,0-2.292-1.386V41.268a1.963,1.963,0,0,1,1.961-1.961H37a1.963,1.963,0,0,1,1.961,1.961v14.7a4.045,4.045,0,0,0-2.292,1.386,4.971,4.971,0,0,0-1.138,2.43Zm5.053,3.947a.654.654,0,0,0,.635.5,1.228,1.228,0,0,1,1.227,1.227v.081H36.78V65.46a1.228,1.228,0,0,1,1.227-1.227.654.654,0,0,0,.3-1.234,2.826,2.826,0,0,1-1.528-2.515v-.035c.018-1.495,1.259-3.233,2.832-3.233,1.6,0,2.833,1.757,2.833,3.268A2.826,2.826,0,0,1,40.917,63a.654.654,0,0,0-.334.736Z" transform="translate(0 -38)" fill="#f21367"/>
          </g>
        </g>
        <g id="Group_1731" data-name="Group 1731" transform="translate(17.735 44.974)">
          <g id="Group_1730" data-name="Group 1730">
            <path id="Path_2038" data-name="Path 2038" d="M212.28,122l-7.844-3.922a.661.661,0,0,0-.635.029.65.65,0,0,0-.31.556V123.9a.654.654,0,1,0,1.307,0v-4.171l5.729,2.864c-6.963,3.482-6.729,3.368-6.729,3.368a.646.646,0,0,0-.215.221h0a.653.653,0,0,0,.26.908h0a.619.619,0,0,0,.2.067h0a.627.627,0,0,0,.255-.011c.06,0,7.927-3.945,7.98-3.972a.654.654,0,0,0,0-1.17Z" transform="translate(-203.49 -118.014)" fill="#f21367"/>
          </g>
        </g>
      </g>
    </g>
    <g id="idea" transform="translate(-8314 3151.921)">
      <path id="Path_2087" data-name="Path 2087" d="M39.512,267.524l-2.168-2.518a2.662,2.662,0,0,0-2.019-.926H4.678a2.664,2.664,0,0,0-2.02.926L.489,267.523A2,2,0,0,0,2,270.828H18.755a3.323,3.323,0,0,0,2.563-1.2.666.666,0,0,0-1.025-.852,1.993,1.993,0,0,1-1.538.722H2a.666.666,0,0,1-.5-1.1l2.169-2.518a1.332,1.332,0,0,1,1.01-.463h19.16v14.662a.667.667,0,0,1-.666.666h-7v-3.774a2,2,0,0,0-2.59-1.91l-1.575.487-1.575-.487a2,2,0,0,0-2.591,1.91V278.8a.666.666,0,0,0,1.333,0v-1.836a.666.666,0,0,1,.864-.637l1.772.548a.666.666,0,0,0,.394,0l1.772-.548a.666.666,0,0,1,.863.637v3.774H4.261a.667.667,0,0,1-.666-.666v-6.732a.666.666,0,1,0-1.333,0v6.732a2,2,0,0,0,2,2h18.91a2,2,0,0,0,2-2V266.6l2.516,3.03a3.32,3.32,0,0,0,2.562,1.2h3.309a.666.666,0,1,0,0-1.333H30.249a1.992,1.992,0,0,1-1.537-.722l-2.79-3.36h9.4a1.33,1.33,0,0,1,1.009.463l2.168,2.518a.667.667,0,0,1-.5,1.1h-.915a.666.666,0,0,0-.666.666v9.913a.667.667,0,0,1-.666.666H28.108a.666.666,0,0,0,0,1.333h7.643a2,2,0,0,0,2-2v-9.247H38a2,2,0,0,0,1.514-3.3Z" transform="translate(0 -242.008)" fill="#fff"/>
      <path id="Path_2088" data-name="Path 2088" d="M150.174,14.391a2.022,2.022,0,0,1,.908,1.436.666.666,0,0,0,.66.583c.26,0-1.283,0,4.687,0v1.416a1.334,1.334,0,0,1-1.333,1.333h-1.333a1.317,1.317,0,0,1-.838-.3.666.666,0,0,0-.839,1.035,2.672,2.672,0,0,0,1.678.594H155.1a2.669,2.669,0,0,0,2.666-2.666c0-1.9,0-1.835.016-2a.665.665,0,0,0-.539-.736,13.563,13.563,0,0,0-1.616-.016,14.076,14.076,0,0,1,1.8-6.921.666.666,0,1,0-1.162-.654,15.37,15.37,0,0,0-1.835,5.476A15.37,15.37,0,0,0,152.6,7.5a.666.666,0,0,0-1.162.654,14.077,14.077,0,0,1,1.8,6.921h-.962a3.367,3.367,0,0,0-1.372-1.8,6.457,6.457,0,1,1,8.291-1.051.666.666,0,0,0,.983.9,7.789,7.789,0,1,0-10,1.266Z" transform="translate(-134.425 0)" fill="#fff"/>
      <path id="Path_2089" data-name="Path 2089" d="M106.5,17.332l1.25.666a.666.666,0,0,0,.627-1.176l-1.25-.666a.666.666,0,0,0-.627,1.176Z" transform="translate(-97.3 -14.666)" fill="#fff"/>
      <path id="Path_2090" data-name="Path 2090" d="M106.745,144.156l-1.25.666a.666.666,0,0,0,.627,1.176l1.25-.666a.666.666,0,0,0-.627-1.176Z" transform="translate(-96.383 -132.002)" fill="#fff"/>
      <path id="Path_2091" data-name="Path 2091" d="M86.81,84.413h1.833a.666.666,0,0,0,0-1.333H86.81a.666.666,0,0,0,0,1.333Z" transform="translate(-78.967 -76.087)" fill="#fff"/>
      <path id="Path_2092" data-name="Path 2092" d="M344.122,18l1.25-.666a.666.666,0,1,0-.627-1.176l-1.25.666A.666.666,0,1,0,344.122,18Z" transform="translate(-314.556 -14.665)" fill="#fff"/>
      <path id="Path_2093" data-name="Path 2093" d="M345.122,144.156a.666.666,0,0,0-.627,1.176l1.25.666a.666.666,0,1,0,.627-1.176Z" transform="translate(-315.473 -132.003)" fill="#fff"/>
      <path id="Path_2094" data-name="Path 2094" d="M356.144,83.746a.666.666,0,0,0,.666.666h1.833a.666.666,0,0,0,0-1.333H356.81A.666.666,0,0,0,356.144,83.746Z" transform="translate(-326.475 -76.087)" fill="#fff"/>
    </g>
  </g>
</svg>
